<?xml version="1.0" encoding="UTF-8" standalone="no"?>
<!-- Created with Inkscape (http://www.inkscape.org/) -->

<svg
   width="283.78662mm"
   height="261.50427mm"
   viewBox="0 0 283.78662 261.50427"
   version="1.1"
   id="svg1"
   xml:space="preserve"
   xmlns="http://www.w3.org/2000/svg"
   xmlns:svg="http://www.w3.org/2000/svg"><defs
     id="defs1" /><g
     id="layer1"
     transform="translate(25.48782,28.551199)"><path
       style="fill:none;stroke:#000000;stroke-width:1.773;stroke-linecap:round;stroke-dasharray:none;stroke-opacity:1;paint-order:stroke markers fill"
       d="m 196.34768,183.85565 c 0,0 -25.81043,-6.00242 -40.81649,-6.00242 -15.00607,0 -25.69038,5.88238 -43.93775,5.76233 -18.247372,-0.12005 -22.44907,-3.12126 -37.335083,-3.60146 -13.447012,-0.43378 -36.494746,7.56306 -36.494746,7.56306"
       id="path47" /><path
       style="fill:#000000;fill-opacity:1;stroke:none;stroke-width:0.273;stroke-dasharray:none;stroke-opacity:1;paint-order:stroke markers fill"
       d="m 112.88501,182.9787 c -0.0258,0.001 0.78042,-15.34415 0.4274,-27.06865 -0.3537,-11.7471 -0.56987,-10.11513 -0.99727,-14.24667 -0.4274,-4.13153 1.01473,-6.75574 -0.043,-14.91561 -0.53216,-8.22556 -1.50671,-17.01915 -3.92883,-21.60853 -2.36799,-4.48681 -9.524231,-3.45143 -10.996891,-3.08415 -12.535849,3.12644 -25.813608,12.69603 -26.352113,13.09266 -1.355753,0.99856 -16.597177,13.28841 2.835326,-6.33785 0,0 9.381686,-7.92231 15.802928,-10.21561 6.421243,-2.293301 6.504636,-2.293301 11.63329,-2.209908 5.12866,0.08339 10.90729,4.037268 12.13365,8.214188 1.22068,4.15755 0.43411,-4.12698 0.95901,-5.54562 0.84382,-2.280585 -0.236,-4.565067 -0.32418,-5.315168 -0.11462,-0.975079 -1.45833,-7.043772 -3.46426,-10.746321 -1.50498,-2.777884 -4.69022,-8.09818 -10.33825,-7.761453 -1.901995,0.113394 -5.704538,0.169844 0.68926,-1.747566 3.58118,-1.073944 7.49736,0.545281 10.84374,3.917106 1.47621,1.487436 1.99724,5.622469 1.62543,-0.684246 -0.15655,-2.655499 -0.55201,-0.814368 -0.50835,-8.509638 0,0 -0.59983,-15.991031 0.35145,-23.062529 0.95521,-7.100703 1.5459,-16.158618 7.51042,-21.886414 6.56905,-6.308327 12.72786,-5.311222 17.64629,-4.653654 5.83352,0.779912 13.50145,6.779035 18.80348,11.989143 1.26483,1.242903 3.48027,4.039134 2.93809,4.434985 -0.54219,0.395851 -6.93855,-7.339049 -16.08572,-11.412159 -5.95419,-2.65132 -9.76765,-2.558533 -14.67277,-0.39852 -5.50514,2.424238 -9.3074,15.675016 -9.49202,15.68719 -0.76712,0.05059 -3.51313,16.676179 -3.58668,24.889376 -0.0704,7.859469 -0.39629,14.259147 -0.36229,14.274256 0,0 0.34152,10.041724 0.6159,8.296458 0.27985,-1.78009 2.64136,-6.648331 5.43436,-9.962996 2.28799,-2.715332 9.2186,-4.377134 13.2174,-1.528591 1.7308,1.232936 -7.66168,-3.273278 -12.97001,7.499419 -4.31164,8.750032 -4.20875,10.974308 -4.28694,13.493243 -0.0781,2.515519 0.065,6.620869 0.92384,5.135469 0.86152,-1.490031 4.37861,-5.719725 9.4558,-6.52123 9.16149,-1.446272 16.49423,3.171616 20.54188,5.361903 4.0974,2.116307 19.53309,15.587417 18.90518,17.748417 -0.23571,0.81121 -1.27634,-0.88303 -6.58729,-4.30743 -5.3959,-3.47918 -18.40111,-11.45528 -24.12857,-12.78886 -4.15027,-0.966348 -8.32893,-2.441868 -12.57149,1.08687 -4.19047,3.48541 -5.1083,24.672 -5.1083,24.672 -0.43475,29.34555 -1.26802,46.04716 -0.8695,51.22791 0.39852,5.18076 0.18115,5.43437 0.18115,5.43437 z"
       id="path48" /><path
       style="fill:#fe6307;fill-opacity:1;stroke:none;stroke-width:0.273;stroke-dasharray:none;stroke-opacity:1;paint-order:stroke markers fill"
       d="m 9.0305736,132.47751 c 14.9931284,-5.3169 20.3856364,-12.57766 27.1628884,-16.70708 6.777252,-4.12941 8.980163,-4.06102 13.542391,-4.11616 3.475136,-0.042 5.936342,1.34198 8.266003,3.14935 1.752539,1.35964 3.515157,5.5424 4.238802,6.08648 1.15887,0.87131 6.362345,4.04553 7.593098,7.72302 0.792541,2.36811 0.945282,4.97246 -0.395942,7.07892 -3.655691,5.74144 -11.523131,8.32578 -17.910353,10.67772 -7.904131,2.9105 -16.546994,4.22727 -24.955616,4.71857 -7.804488,0.45601 -15.638334,0.0208 -23.3271293,-1.39353 -4.2752895,-0.78644 -8.599328,-2.00759 -12.4115666,-4.09647 -3.6667661,-2.00917 -10.3229191,-6.74871 -9.5644761,-8.11531 0.275005,-0.49552 9.9884664,0.0932 14.8539212,-0.8695 3.5891088,-0.71017 9.0344882,-2.76239 12.9079794,-4.13601 z"
       id="path49" /><path
       style="fill:#a10067;fill-opacity:1;stroke:none;stroke-width:0.273;stroke-dasharray:none;stroke-opacity:1;paint-order:stroke markers fill"
       d="m 92.905463,53.461579 c 2.27499,2.057648 4.376305,4.205259 5.42557,7.087712 1.058655,2.90825 1.176372,6.071365 0.409132,9.0697 -0.710496,2.776581 -2.973352,5.078247 -3.069616,5.733739 -0.113703,0.77424 0.279686,4.054792 -1.19587,7.645403 -1.059044,2.577072 -3.723105,5.255828 -6.538815,5.550017 C 82.023339,89.165899 76.159656,84.938667 71.551531,81.183038 64.934629,75.790253 59.01044,68.937166 53.974213,62.411981 48.937987,55.886795 45.30372,48.908958 42.407281,41.331055 40.166213,35.467787 38.395267,29.314866 37.935342,23.054773 37.616086,18.709345 37.946952,10.085887 38.610243,9.947617 38.82794,9.902235 44.303109,20.61798 52.022237,28.024372 c 4.695626,4.505386 6.084228,6.006011 11.488442,9.816131 5.918154,4.172462 13.959598,7.92153 18.359922,9.48775 3.730667,1.327867 7.766796,3.177477 11.034862,6.133326 z"
       id="path50" /><path
       style="fill:#fe6307;fill-opacity:1;stroke:none;stroke-width:0.273;stroke-dasharray:none;stroke-opacity:1;paint-order:stroke markers fill"
       d="m 136.47403,74.80672 c -0.4084,-0.684262 -2.53975,-3.399587 -2.95266,-5.86911 -0.46858,-2.802471 -0.13763,-7.405557 1.02781,-9.661174 1.97341,-3.819378 3.80548,-5.154593 7.06938,-7.294034 5.29021,-3.467653 8.32441,-3.931689 11.97556,-5.738771 4.59931,-2.276362 8.43744,-3.77083 12.73267,-6.579115 4.73252,-3.094187 8.99223,-6.87825 13.07661,-10.788306 2.70808,-2.592496 4.92955,-5.571117 7.39073,-8.399072 3.31416,-3.808054 6.27109,-10.341061 6.70028,-10.297016 0.57527,0.05904 0.9974,8.32699 0.65212,12.569395 -0.45308,5.566932 -1.25823,10.548768 -3.44574,16.558782 -2.18751,6.010014 -5.46846,12.804172 -9.44343,18.814828 -3.16277,4.782506 -7.23533,9.569792 -11.13049,13.77731 -3.33082,3.597924 -6.86306,7.163538 -10.75606,10.144141 -3.02911,2.31918 -6.19796,4.492299 -8.78712,5.522736 -1.76154,0.701057 -6.07689,1.480781 -8.48786,0.308053 -2.02878,-0.986825 -3.79044,-3.350101 -4.4966,-5.492788 -1.52844,-4.637697 -0.46237,-6.465319 -1.1252,-7.575859 z"
       id="path51" /><path
       style="fill:#a10067;fill-opacity:1;stroke:none;stroke-width:0.273;stroke-linecap:round;stroke-dasharray:none;stroke-opacity:1;paint-order:stroke markers fill"
       d="m 169.1425,119.34474 c 0.23859,-0.23695 2.11211,-4.06777 5.17669,-6.62146 2.15386,-1.7948 5.39253,-2.80867 8.19526,-2.88001 3.60957,-0.0919 7.06866,1.23055 10.34122,2.75625 3.79143,1.76761 7.5468,5.46258 10.09479,7.33591 3.94221,2.89838 7.60754,5.33429 11.51207,7.39089 3.55613,1.87309 7.62018,3.58618 11.09904,4.71186 3.47886,1.12568 6.35021,1.93345 9.63313,2.19886 3.31155,0.26773 6.70111,0.0793 9.94726,-0.62824 3.18702,-0.69464 5.12212,-2.42983 5.65423,-2.30358 0.44422,0.10539 -2.29844,6.38755 -5.75894,9.52842 -3.74563,3.39966 -7.71881,4.85239 -12.04142,6.35597 -5.116,1.77955 -10.53943,2.37796 -15.94627,2.7039 -5.0924,0.30698 -10.44074,0.0676 -15.50948,-0.51083 -6.02652,-0.68772 -11.73923,-1.80311 -17.57188,-3.46807 -5.01705,-1.43214 -10.24966,-2.84215 -14.7395,-5.4998 -2.96498,-1.75505 -6.7585,-4.24701 -7.93163,-7.48662 -1.21388,-3.35215 -0.20613,-5.70278 1.33163,-7.7889 2.53069,-3.4331 6.21744,-5.50023 6.5138,-5.79455 z"
       id="path52" /></g></svg>
