<svg xmlns="http://www.w3.org/2000/svg" xml:space="preserve" width="70.96" height="35" viewBox="0 0 18.566 9.976"><g stroke-linejoin="round" paint-order="stroke fill markers" transform="translate(-89.057 -66.126)"><path d="m89.08 70.607.349-.024.183-1.986c.142-1.53 1.365-1.79 2.069-1.274l2.358 1.753 1.51-.21 1.298 1.028 1.32-.572.083-.737.479-.093.736-.082.62.994 1.566-.14.596-1.181 3.765.748-.051 4.5-4.088.63.035.422-.993.14-.07-.503c-4.408-.601-8.604-1.195-11.256-2.372l-.386-.783-.146-.01z"/><path fill="none" stroke="#eb2424" stroke-width=".557" d="M98.3 68.43a1.315 1.315 0 0 1-1.157 1.444 1.315 1.315 0 0 1-1.455-1.144m6.422-.641a1.315 1.315 0 0 1-1.204 1.407 1.315 1.315 0 0 1-1.417-1.193"/><circle cx="101.528" cy="75.148" r=".589" fill="#eb2424" stroke="#000" stroke-linecap="round" stroke-width=".73"/><path fill="#eb2424" d="m91.985 70.993.07-.456 6.683.016.075.994c1.92-.171 3.584.177 6.146-.938l.011 1.67c-4.192 1.501-13.207.082-13.207.082l-2.35-.55-.163-.771Z"/><path fill="none" stroke="#000" stroke-linecap="round" stroke-width=".43" d="m98.837 67.018.133 3.207c2.298.37 2.597-1.856 3.578-3.413l-.024 2.545"/><path d="m96.127 66.828.033.455 8.835-.356-.48-.801zm9.793 3.083.975.132.728.835-.72.777-1.065.157z"/><path fill="none" stroke="#000" stroke-linecap="round" stroke-width=".33" d="m106.788 67.465-.025 6.86m-6.735-1.199c-.464-.593-1.062-1.221-.992-1.876l3.388-.314.075 1.132"/><path d="m96.63 71.878.083.471 7.215-.016-.23-.438z"/></g></svg>