<svg xmlns="http://www.w3.org/2000/svg" xml:space="preserve" width="70.96" height="64.2" viewBox="0 0 18.78 16.98"><defs><radialGradient id="b" cx="53.28" cy="97.1" r="9.39" fx="53.28" fy="97.1" gradientTransform="matrix(1.307 -.175 .183 1.368 -33.16 -28.24)" gradientUnits="userSpaceOnUse" href="#a"/><linearGradient id="a"><stop offset="0" stop-color="#fff600"/><stop offset=".67" stop-color="#fe0500"/><stop offset="1" stop-color="#1a0000"/></linearGradient></defs><path fill="url(#b)" d="M44.95 105.23s1.16-.45 2.31-.95c3.1-1.16 2.91-1.66 3.35-3.18.45-1.57-1.52-2.82-3.37-2.3-1.35.37-2.1-.16-2.33-1.51-1.51-9.5 16.63-13.9 18.64-1.12.1.92.06 1.52-.4 2.3-.63 1.03-2.67.35-3.24.3-.45-.02-1.3.35-1.3.35-.96.42-.94 2.54-.67 2.99.97 1.6 3.44 2.07 5.16 3.12z" transform="translate(-44.82 -88.25)"/></svg>