<svg xmlns="http://www.w3.org/2000/svg" xml:space="preserve" width="64.16" height="64.65" viewBox="0 0 16.98 17.11"><path fill="#0d0d0d" d="M6.37 16.43C-.34 13.4 4.1 2.03 11.07 4.4c4.16 1.42 3.7 7.61-.64 8.58-3.2.72-5.74-2.68-3.56-4.74 1.14-1.06 2.47-.18 1.75 1.16-.6 1.11 1.56 2 2.43 1 2.23-2.57-.92-5.34-3.82-3.36-3.87 2.62-2.3 7.8 2.37 7.8 5.65 0 7.35-9.81 2.11-12.2-4.66-2.1-10.18 2.9-9.56 8.68.33 3.03.2 3.5-.97 3.5C-.2 14.85-.43 9.25.8 6.24 3.95-1.35 13.58-2.24 16.3 4.81c2.8 7.3-3.4 14.57-9.92 11.62"/></svg>