<svg xmlns="http://www.w3.org/2000/svg" xml:space="preserve" width="64.16" height="64.65" viewBox="0 0 16.98 17.11"><path fill="#0d0d0d" d="M10.6 16.43c6.72-3.04 2.28-14.4-4.7-12.03-4.15 1.42-3.69 7.61.65 8.58 3.2.72 5.74-2.68 3.55-4.74-1.13-1.06-2.47-.18-1.75 1.16.6 1.11-1.56 2-2.42 1-2.23-2.57.92-5.34 3.82-3.36 3.87 2.62 2.29 7.8-2.37 7.8-5.65 0-7.35-9.81-2.11-12.2 4.66-2.1 10.17 2.9 9.55 8.68-.32 3.03-.19 3.5.98 3.5 1.37.02 1.61-5.58.37-8.59C13.03-1.35 3.4-2.24.69 4.81c-2.8 7.3 3.4 14.57 9.92 11.62"/></svg>