<svg xmlns="http://www.w3.org/2000/svg" xml:space="preserve" width="50.66" height="51.12" viewBox="0 0 13.4 13.53"><path d="m1.3 2.58.76.98 1.2-1.35-.6-1.05L3.73 0c1.3.6 1.92 1.5 1.2 3.08l4.78 4.9c1.92-.41 2.5.24 3.68 1.65-.22.68-.7 1.05-1.2 1.38l-1.4-.85-.99 1-.05.74.5.64-.95.99c-.66-.52-2.2-2-1.36-3.5l-4.59-4.7c-1.31.59-2.43 0-3.36-1.6z"/><path fill="#333" d="M1.33 9.98c-.03.4-.3.83.05 1.39l.93 1.27c.25.2.52.05.68.01l4.62-5.09c.2-.2.31-.43.19-.83l-.4-.65 4.3-4.31c.36-.03.43-.23.59-.39l-.75-.7c-.21.13-.48.35-.46.65l-3.9 4.06a2.4 2.4 0 0 0-1.25.1z"/></svg>