<svg xmlns="http://www.w3.org/2000/svg" xml:space="preserve" width="51.43" height="50.26" viewBox="0 0 13.61 13.3"><path fill="none" stroke="#fb1717" stroke-linecap="round" stroke-linejoin="round" stroke-width="1.0362" d="M3.52 9c3.74-.72 4.66 2.5 5.42 3.7"/><path fill="none" stroke="#fb1717" stroke-linecap="round" stroke-linejoin="round" stroke-width="1.0362" d="M13.1 9.47C9.68 8.2 6.84 8.82 5 12.78"/><path fill="#12cd13" d="m4.52 6.14.55-.43s.45.44.85.86l.97.99c-.42-1.95-.8-4.18-1.67-5.71L5.67.57c1.37 2.12 1.32 3.8 1.88 5.74.2-.94.41-1.89.54-2.85 0 0 .52.36.65.57-.7 5.38-1.04 6.13-1.06 6.12-.62-.27-3.16-4.01-3.16-4.01M1.48 1.6l.43.55.43.55-.82 1.6C.39 6.5.27 8.84.22 8.49-.44 4.4.5 3.54 1.47 1.61m.58-.68A3.8 3.8 0 0 1 4.61 0l-.28 1.33c-.48.1-.91.46-1.4.75Q2.53 1.5 2.07.93"/></svg>