<svg xmlns="http://www.w3.org/2000/svg" xml:space="preserve" width="77.11" height="52.43" viewBox="0 0 20.4 13.87"><g paint-order="markers fill stroke"><path fill="#2e2e2e" d="M6.54 13.55c-1.71 0-1.9-2.16-1.9-2.16H19s-.2 2.16-1.7 2.16z"/><path fill="#022f00" d="M3.77 11.62c-.12-1.06.17-2 .45-3l.51-.02 1.35-1.17.04-1.1c.05-.55.82-.61 1.02-.61h9.42q.93.07 1.16.76v1.17l1.34.96h.6c.35.97.41 2 .42 3z"/><path fill="none" stroke="#08fcfc" stroke-linecap="round" stroke-width=".65" d="M7.14 5.72c-.2 0-.97.06-1.02.62l-.04 1.1L4.73 8.6l-.51.01c-.28 1-.57 1.95-.45 3h.9c.1.55.49 1.94 1.87 1.94H17.3c1.21 0 1.57-1.39 1.67-1.93h1.1a9 9 0 0 0-.41-3h-.6l-1.34-.97V6.48q-.23-.67-1.16-.76z"/><path fill="#460002" stroke="#08fcfc" stroke-linecap="round" stroke-linejoin="round" stroke-width=".65" d="m2.8 1.81 9.98 5.99-.76 1.27-9.98-5.99z"/><path fill="#022f00" stroke="#08fcfc" stroke-linecap="round" stroke-linejoin="round" stroke-width=".65" d="m2.27 3.77 1.34.14.68-1.05-.33-1.14L1.6.32.32 2.35z"/></g></svg>