<svg xmlns="http://www.w3.org/2000/svg" xml:space="preserve" width="62.8" height="77.46" viewBox="0 0 16.62 20.49"><defs><marker id="a" markerHeight=".7" markerWidth=".9" orient="auto-start-reverse" overflow="visible" preserveAspectRatio="none" refX="0" refY="0" viewBox="0 0 1 1"><use href="#reuse-0"/></marker><marker id="b" markerHeight=".7" markerWidth=".9" orient="auto-start-reverse" overflow="visible" preserveAspectRatio="none" refX="0" refY="0" viewBox="0 0 1 1"><use href="#reuse-0"/></marker><path id="reuse-0" fill="none" stroke="context-stroke" d="m-2.75 3 3-3-3-3"/></defs><path fill="#2e2e2e" d="M3.02 13.34c-1.32-1.09-.1-2.87-.1-2.87l11.1 9.13s-1.53 1.54-2.7.58z"/><path fill="#022f00" d="M2.1 10.09c.59-.9 1.41-1.44 2.26-2.04l.41.32 1.78-.05.73-.82c.4-.4 1.03.05 1.18.17l7.27 5.99q.67.66.41 1.32l-.74.91.42 1.6.47.38a9 9 0 0 1-1.6 2.58z"/><path fill="#460002" d="m7.6 1.9 3.9 10.97-1.4.49L6.22 2.39z" paint-order="stroke fill markers"/><path fill="#022f00" d="m5.94 3.07.94.96 1.2-.38.47-1.08L7.62 0 5.34.75z" paint-order="stroke fill markers"/><path fill="#022f00" stroke="#3f0" stroke-linecap="round" stroke-linejoin="round" stroke-width="1.7" marker-end="url(#a)" d="m162.47 238.3 7.8-.1" paint-order="markers fill stroke" transform="rotate(39.5 397.66 -86.9)"/><path fill="#022f00" stroke="#3f0" stroke-linecap="round" stroke-linejoin="round" stroke-width="1.7" marker-end="url(#b)" d="m159.5 238.3-7.82-.1" paint-order="markers fill stroke" transform="rotate(39.5 397.66 -86.9)"/></svg>