<svg xmlns="http://www.w3.org/2000/svg" xml:space="preserve" width="81.35" height="53.37" viewBox="0 0 21.52 14.12"><defs><marker id="a" markerHeight=".7" markerWidth=".9" orient="auto-start-reverse" overflow="visible" preserveAspectRatio="none" refX="0" refY="0" viewBox="0 0 1 1"><use href="#reuse-0"/></marker><marker id="b" markerHeight=".7" markerWidth=".9" orient="auto-start-reverse" overflow="visible" preserveAspectRatio="none" refX="0" refY="0" viewBox="0 0 1 1"><use href="#reuse-0"/></marker><path id="reuse-0" fill="none" stroke="context-stroke" d="m-2.75 3 3-3-3-3"/></defs><path fill="#2e2e2e" d="M6.52 13.22c-1.72 0-1.9-2.15-1.9-2.15h14.36s-.2 2.15-1.7 2.15z"/><path fill="#022f00" d="M3.74 11.3c-.12-1.06.17-2.01.45-3.01l.51-.02 1.35-1.16.04-1.1c.05-.56.82-.62 1.02-.62h9.42q.93.09 1.16.76v1.17l1.34.97h.6c.36.97.41 1.99.42 3z"/><path fill="#460002" d="m2.78 1.48 9.98 5.99L12 8.73 2.02 2.75z" paint-order="stroke fill markers"/><path fill="#022f00" d="m2.24 3.44 1.34.14.68-1.05-.33-1.14L1.59 0 .29 2.03z" paint-order="stroke fill markers"/><path fill="#022f00" stroke="#3f0" stroke-linecap="round" stroke-linejoin="round" stroke-width="1.7" marker-end="url(#a)" d="m162.47 238.3 7.8-.1" paint-order="markers fill stroke" transform="translate(-150.22 -228.12)"/><path fill="#022f00" stroke="#3f0" stroke-linecap="round" stroke-linejoin="round" stroke-width="1.7" marker-end="url(#b)" d="m159.5 238.3-7.82-.1" paint-order="markers fill stroke" transform="translate(-150.22 -228.12)"/></svg>