<?xml version="1.0" encoding="UTF-8" standalone="no"?>
<!-- Created with Inkscape -->
<svg width="97.88mm" height="99.62mm" viewBox="0 0 97.88 99.62" xml:space="preserve" xmlns="http://www.w3.org/2000/svg" xmlns:svg="http://www.w3.org/2000/svg">
   <defs id="defs1" >
   </defs>
    <g id="layer1" transform="translate(-1.06,-0.18)">
    <path style="fill:#000" d="m 24.71,0.19 c -2.27,0.04 -5.49,0.11 -9.03,2.56 -3.53,2.44 -5.22,6.57 -5.78,9.45 -0.55,2.88 -0.56,5.43 -0.55,8.65 0.00,1.81 0.06,4.48 0.07,6.02 0.10,12.01 -0.00,34.49 -0.03,42.24 -1.04,0.59 -2.16,0.89 -3.10,1.78 -3.20,2.99 -5.21,7.82 -5.21,12.10 0,4.26 1.92,9.16 5.21,12.24 l 0.11,0.11 0.13,0.11 c 4.28,3.74 9.04,4.30 13.54,4.30 h 20.79 c 4.49,0 24.24,-2.98e-4 29.56,-2.98e-4 h 7.16 c 7.11,0 13.09,-5.97 13.09,-13.08 V 30.99 c 1.01,-0.58 2.12,-0.88 3.04,-1.74 3.24,-3.03 5.21,-7.91 5.21,-12.18 0,-4.31 -2.08,-9.30 -5.49,-12.32 -4.27,-3.80 -9.02,-4.38 -13.48,-4.38 h -0.02 l -20.78,-0.06 h -0.01 c -4.53,0 -22.49,0.16 -27.90,0.05 -2.32,-0.05 -4.25,-0.19 -6.52,-0.14 z" id="text1-8" />
    <path style="fill:#FFF" d="m 45.87,43.84 v 6.40 h 1.26 c 0.50,0 0.87,0.09 1.08,0.29 0.22,0.19 0.33,0.44 0.33,0.76 0,0.31 -0.11,0.56 -0.33,0.76 -0.21,0.19 -0.57,0.28 -1.08,0.28 h -3.28 c -0.50,0 -0.87,-0.09 -1.09,-0.28 -0.21,-0.19 -0.32,-0.45 -0.32,-0.77 0,-0.30 0.10,-0.55 0.32,-0.75 0.21,-0.19 0.54,-0.29 0.99,-0.29 0,0 0.02,-5.56 0.00,-7.81 -0.00,-0.26 -0.01,-0.68 -0.01,-0.94 -0.00,-1.89 0.23,-1.68 1.83,-1.65 0.15,0.00 0.35,0.11 0.43,0.24 l 5.26,8.25 v -6.37 h -1.26 c -0.50,0 -0.87,-0.09 -1.09,-0.28 -0.21,-0.19 -0.32,-0.45 -0.32,-0.77 0,-0.31 0.10,-0.57 0.32,-0.76 0.22,-0.19 0.58,-0.29 1.09,-0.29 l 3.28,0.01 c 0.50,0 0.87,0.09 1.08,0.28 0.22,0.19 0.33,0.44 0.33,0.76 0,0.31 -0.10,0.56 -0.32,0.76 -0.21,0.19 -0.54,0.29 -0.98,0.29 v 9.92 a 0.48,0.48 135 0 1 -0.48,0.48 h -1.13 a 0.88,0.88 28.71 0 1 -0.74,-0.40 z" id="text1" aria-label="N" transform="matrix(6.33,0,0,6.33,-257.93,-242.12)" />
    </g>
</svg>
