<?xml version="1.0" encoding="UTF-8" standalone="no"?>
<svg
   width="2452.475"
   height="1048.101"
   viewBox="0 0 648.884 277.31"
   version="1.1"
   id="svg8"
   sodipodi:docname="FullLogo.svg"
   inkscape:version="1.4 (86a8ad7, 2024-10-11)"
   xmlns:inkscape="http://www.inkscape.org/namespaces/inkscape"
   xmlns:sodipodi="http://sodipodi.sourceforge.net/DTD/sodipodi-0.dtd"
   xmlns="http://www.w3.org/2000/svg"
   xmlns:svg="http://www.w3.org/2000/svg">
  <defs
     id="defs8">
    <inkscape:path-effect
       effect="fillet_chamfer"
       id="path-effect3"
       is_visible="true"
       lpeversion="1"
       nodesatellites_param="F,0,0,1,0,3.2113417,0,1 @ F,0,0,1,0,0,0,1 @ F,0,0,1,0,0,0,1 @ F,0,0,1,0,0,0,1 @ F,0,0,1,0,0,0,1 @ F,0,0,1,0,0,0,1 @ F,0,0,1,0,0,0,1 @ F,0,0,1,0,0,0,1 @ F,0,0,1,0,0,0,1 @ F,0,0,1,0,0,0,1 @ F,0,0,1,0,0,0,1 @ F,0,0,1,0,0,0,1 @ F,0,0,1,0,0,0,1 @ F,0,0,1,0,0,0,1 @ F,0,0,1,0,0,0,1 @ F,0,0,1,0,0,0,1 @ F,0,0,1,0,0,0,1 @ F,0,0,1,0,0,0,1 @ F,0,0,1,0,0,0,1 @ F,0,0,1,0,0,0,1 @ F,0,0,1,0,0,0,1 @ F,0,0,1,0,0,0,1 @ F,0,0,1,0,0,0,1 @ F,0,0,1,0,0,0,1 @ F,0,0,1,0,0,0,1 @ F,0,0,1,0,0,0,1 @ F,0,0,1,0,0,0,1 @ F,0,0,1,0,0,0,1 @ F,0,0,1,0,0,0,1 @ F,0,0,1,0,0,0,1 @ F,0,0,1,0,0,0,1 @ F,0,0,1,0,0,0,1 @ F,0,0,1,0,0,0,1 @ F,0,0,1,0,0,0,1 @ F,0,0,1,0,0,0,1 @ F,0,0,1,0,0,0,1 | F,0,0,1,0,2.9284147,0,1 @ F,0,0,1,0,0,0,1 @ F,0,0,1,0,0,0,1 @ F,0,0,1,0,0,0,1 @ F,0,0,1,0,0,0,1 @ F,0,0,1,0,0,0,1 @ F,0,0,1,0,0,0,1 @ F,0,0,1,0,0,0,1 @ F,0,0,1,0,0,0,1 @ F,0,0,1,0,0,0,1 @ F,0,0,1,0,0,0,1 @ F,0,0,1,0,0,0,1 @ F,0,0,1,0,0,0,1 @ F,0,0,1,0,0,0,1 @ F,0,0,1,0,0,0,1 @ F,0,0,1,0,0,0,1 @ F,0,0,1,0,0,0,1 @ F,0,0,1,0,0,0,1 @ F,0,0,1,0,0,0,1 | F,0,0,1,0,0,0,1 @ F,0,0,1,0,0,0,1 @ F,0,0,1,0,0,0,1 @ F,0,0,1,0,0,0,1 @ F,0,0,1,0,0,0,1 | F,0,0,1,0,3.7370168,0,1 @ F,0,0,1,0,0,0,1 @ F,0,0,1,0,0,0,1 @ F,0,0,1,0,0,0,1 @ F,0,0,1,0,0,0,1 @ F,0,0,1,0,0,0,1 @ F,0,0,1,0,0,0,1 @ F,0,0,1,0,0,0,1 @ F,0,0,1,0,0,0,1 @ F,0,0,1,0,0,0,1 @ F,0,0,1,0,0,0,1 @ F,0,0,1,0,0,0,1 @ F,0,0,1,0,0,0,1 @ F,0,0,1,0,0,0,1 @ F,0,0,1,0,0,0,1 @ F,0,0,1,0,0,0,1 @ F,0,0,1,0,0,0,1 @ F,0,0,1,0,0,0,1 @ F,0,0,1,0,0,0,1 @ F,0,0,1,0,0,0,1 @ F,0,0,1,0,0,0,1 @ F,0,0,1,0,0,0,1 @ F,0,0,1,0,0,0,1 @ F,0,0,1,0,0,0,1 @ F,0,0,1,0,0,0,1 @ F,0,0,1,0,0,0,1 @ F,0,0,1,0,0,0,1 @ F,0,0,1,0,0,0,1 @ F,0,0,1,0,0,0,1 @ F,0,0,1,0,0,0,1 | F,0,0,1,0,0,0,1 @ F,0,0,1,0,3.1950743,0,1 @ F,0,0,1,0,0,0,1 @ F,0,0,1,0,0,0,1 @ F,0,0,1,0,0,0,1 @ F,0,0,1,0,0,0,1 @ F,0,0,1,0,0,0,1 @ F,0,0,1,0,0,0,1 @ F,0,0,1,0,0,0,1 @ F,0,0,1,0,0,0,1 @ F,0,0,1,0,0,0,1 @ F,0,0,1,0,0,0,1 @ F,0,0,1,0,0,0,1 @ F,0,0,1,0,0,0,1 @ F,0,0,1,0,0,0,1 @ F,0,0,1,0,0,0,1 @ F,0,0,1,0,0,0,1 @ F,0,0,1,0,0,0,1 @ F,0,0,1,0,0,0,1 @ F,0,0,1,0,0,0,1 @ F,0,0,1,0,0,0,1 @ F,0,0,1,0,0,0,1 @ F,0,0,1,0,0,0,1 @ F,0,0,1,0,0,0,1 @ F,0,0,1,0,0,0,1 @ F,0,0,1,0,0,0,1 @ F,0,0,1,0,0,0,1 @ F,0,0,1,0,0,0,1 @ F,0,0,1,0,0,0,1 | F,0,0,1,0,0,0,1 @ F,0,0,1,0,0,0,1 @ F,0,0,1,0,0,0,1 @ F,0,0,1,0,0,0,1 @ F,0,0,1,0,0,0,1 @ F,0,0,1,0,0,0,1 @ F,0,0,1,0,0,0,1 @ F,0,0,1,0,0,0,1 | F,0,0,1,0,0,0,1 @ F,0,0,1,0,0,0,1 @ F,0,0,1,0,0,0,1 @ F,0,0,1,0,0,0,1 @ F,0,0,1,0,0,0,1 @ F,0,0,1,0,0,0,1 @ F,0,0,1,0,0,0,1 @ F,0,0,1,0,0,0,1 @ F,0,0,1,0,0,0,1 @ F,0,0,1,0,0,0,1 @ F,0,0,1,0,0,0,1 @ F,0,0,1,0,0,0,1 @ F,0,0,1,0,0,0,1 @ F,0,0,1,0,0,0,1 @ F,0,0,1,0,0,0,1 @ F,0,0,1,0,0,0,1 @ F,0,0,1,0,0,0,1 @ F,0,0,1,0,0,0,1 @ F,0,0,1,0,0,0,1 @ F,0,0,1,0,0,0,1 @ F,0,0,1,0,0,0,1 @ F,0,0,1,0,0,0,1 @ F,0,0,1,0,0,0,1 @ F,0,0,1,0,0,0,1 @ F,0,0,1,0,0,0,1 @ F,0,0,1,0,0,0,1 @ F,0,0,1,0,0,0,1 @ F,0,0,1,0,0,0,1 @ F,0,0,1,0,0,0,1 @ F,0,0,1,0,0,0,1 @ F,0,0,1,0,0,0,1 @ F,0,0,1,0,0,0,1 @ F,0,0,1,0,0,0,1"
       radius="0"
       unit="px"
       method="auto"
       mode="F"
       chamfer_steps="1"
       flexible="false"
       use_knot_distance="true"
       apply_no_radius="true"
       apply_with_radius="true"
       only_selected="false"
       hide_knots="false" />
    <inkscape:path-effect
       effect="fillet_chamfer"
       id="path-effect2"
       is_visible="true"
       lpeversion="1"
       nodesatellites_param="F,0,0,1,0,0,0,1 @ F,0,0,1,0,0,0,1 @ F,0,0,1,0,0,0,1 @ F,0,0,1,0,0,0,1 @ F,0,0,1,0,0,0,1 @ F,0,0,1,0,0,0,1 @ F,0,0,1,0,0,0,1 @ F,0,0,1,0,0,0,1 @ F,0,0,1,0,0,0,1 @ F,0,0,1,0,0,0,1 @ F,0,0,1,0,0,0,1 @ F,0,0,1,0,0,0,1 @ F,0,0,1,0,0,0,1 @ F,0,0,1,0,0,0,1 @ F,0,0,1,0,0,0,1 @ F,0,0,1,0,0,0,1 @ F,0,0,1,0,0,0,1 @ F,0,0,1,0,0,0,1 @ F,0,0,1,0,0,0,1 @ F,0,0,1,0,0,0,1 @ F,0,0,1,0,0,0,1 @ F,0,0,1,0,0,0,1 @ F,0,0,1,0,0,0,1 @ F,0,0,1,0,0,0,1 @ F,0,0,1,0,0,0,1 @ F,0,0,1,0,0,0,1 @ F,0,0,1,0,0,0,1 @ F,0,0,1,0,0,0,1 @ F,0,0,1,0,0,0,1 @ F,0,0,1,0,0,0,1 @ F,0,0,1,0,0,0,1 @ F,0,0,1,0,0,0,1 @ F,0,0,1,0,0,0,1 @ F,0,0,1,0,0,0,1 @ F,0,0,1,0,0,0,1 @ F,0,0,1,0,0,0,1 | F,0,0,1,0,3.0175828,0,1 @ F,0,0,1,0,0,0,1 @ F,0,0,1,0,0,0,1 @ F,0,0,1,0,0,0,1 @ F,0,0,1,0,0,0,1 @ F,0,0,1,0,0,0,1 @ F,0,0,1,0,0,0,1 @ F,0,0,1,0,0,0,1 @ F,0,0,1,0,0,0,1 @ F,0,0,1,0,0,0,1 @ F,0,0,1,0,0,0,1 @ F,0,0,1,0,0,0,1 @ F,0,0,1,0,0,0,1 @ F,0,0,1,0,0,0,1 @ F,0,0,1,0,0,0,1 @ F,0,0,1,0,0,0,1 @ F,0,0,1,0,0,0,1 @ F,0,0,1,0,0,0,1 @ F,0,0,1,0,0,0,1 | F,0,0,1,0,0,0,1 @ F,0,0,1,0,0,0,1 @ F,0,0,1,0,0,0,1 @ F,0,0,1,0,0,0,1 @ F,0,0,1,0,0,0,1 | F,0,0,1,0,3.6546116,0,1 @ F,0,0,1,0,0,0,1 @ F,0,0,1,0,0,0,1 @ F,0,0,1,0,0,0,1 @ F,0,0,1,0,0,0,1 @ F,0,0,1,0,0,0,1 @ F,0,0,1,0,0,0,1 @ F,0,0,1,0,0,0,1 @ F,0,0,1,0,0,0,1 @ F,0,0,1,0,0,0,1 @ F,0,0,1,0,0,0,1 @ F,0,0,1,0,0,0,1 @ F,0,0,1,0,0,0,1 @ F,0,0,1,0,0,0,1 @ F,0,0,1,0,0,0,1 @ F,0,0,1,0,0,0,1 @ F,0,0,1,0,0,0,1 @ F,0,0,1,0,0,0,1 @ F,0,0,1,0,0,0,1 @ F,0,0,1,0,0,0,1 @ F,0,0,1,0,0,0,1 @ F,0,0,1,0,0,0,1 @ F,0,0,1,0,0,0,1 @ F,0,0,1,0,0,0,1 @ F,0,0,1,0,0,0,1 @ F,0,0,1,0,0,0,1 @ F,0,0,1,0,0,0,1 @ F,0,0,1,0,0,0,1 @ F,0,0,1,0,0,0,1 @ F,0,0,1,0,0,0,1 | F,0,0,1,0,0,0,1 @ F,0,0,1,0,0,0,1 @ F,0,0,1,0,0,0,1 @ F,0,0,1,0,0,0,1 @ F,0,0,1,0,0,0,1 @ F,0,0,1,0,0,0,1 @ F,0,0,1,0,0,0,1 @ F,0,0,1,0,0,0,1 @ F,0,0,1,0,0,0,1 @ F,0,0,1,0,0,0,1 @ F,0,0,1,0,0,0,1 @ F,0,0,1,0,0,0,1 @ F,0,0,1,0,0,0,1 @ F,0,0,1,0,0,0,1 @ F,0,0,1,0,0,0,1 @ F,0,0,1,0,0,0,1 @ F,0,0,1,0,0,0,1 @ F,0,0,1,0,0,0,1 @ F,0,0,1,0,0,0,1 @ F,0,0,1,0,0,0,1 @ F,0,0,1,0,0,0,1 @ F,0,0,1,0,0,0,1 @ F,0,0,1,0,0,0,1 @ F,0,0,1,0,0,0,1 @ F,0,0,1,0,0,0,1 @ F,0,0,1,0,0,0,1 @ F,0,0,1,0,0,0,1 @ F,0,0,1,0,0,0,1 @ F,0,0,1,0,0,0,1 | F,0,0,1,0,0,0,1 @ F,0,0,1,0,0,0,1 @ F,0,0,1,0,0,0,1 @ F,0,0,1,0,0,0,1 @ F,0,0,1,0,0,0,1 @ F,0,0,1,0,0,0,1 @ F,0,0,1,0,0,0,1 @ F,0,0,1,0,0,0,1 | F,0,0,1,0,0,0,1 @ F,0,0,1,0,0,0,1 @ F,0,0,1,0,0,0,1 @ F,0,0,1,0,0,0,1 @ F,0,0,1,0,0,0,1 @ F,0,0,1,0,0,0,1 @ F,0,0,1,0,0,0,1 @ F,0,0,1,0,0,0,1 @ F,0,0,1,0,0,0,1 @ F,0,0,1,0,0,0,1 @ F,0,0,1,0,0,0,1 @ F,0,0,1,0,0,0,1 @ F,0,0,1,0,0,0,1 @ F,0,0,1,0,0,0,1 @ F,0,0,1,0,0,0,1 @ F,0,0,1,0,0,0,1 @ F,0,0,1,0,0,0,1 @ F,0,0,1,0,0,0,1 @ F,0,0,1,0,0,0,1 @ F,0,0,1,0,0,0,1 @ F,0,0,1,0,0,0,1 @ F,0,0,1,0,0,0,1 @ F,0,0,1,0,0,0,1 @ F,0,0,1,0,0,0,1 @ F,0,0,1,0,0,0,1 @ F,0,0,1,0,0,0,1 @ F,0,0,1,0,0,0,1 @ F,0,0,1,0,0,0,1 @ F,0,0,1,0,0,0,1 @ F,0,0,1,0,0,0,1 @ F,0,0,1,0,0,0,1 @ F,0,0,1,0,0,0,1 @ F,0,0,1,0,0,0,1"
       radius="0"
       unit="px"
       method="auto"
       mode="F"
       chamfer_steps="1"
       flexible="false"
       use_knot_distance="true"
       apply_no_radius="true"
       apply_with_radius="true"
       only_selected="false"
       hide_knots="false" />
    <inkscape:path-effect
       effect="fillet_chamfer"
       id="path-effect1"
       is_visible="true"
       lpeversion="1"
       nodesatellites_param="F,0,0,1,0,0,0,1 @ F,0,0,1,0,0,0,1 @ F,0,0,1,0,0,0,1 @ F,0,0,1,0,0,0,1 @ F,0,0,1,0,0,0,1 @ F,0,0,1,0,0,0,1 @ F,0,0,1,0,0,0,1 @ F,0,0,1,0,0,0,1 @ F,0,0,1,0,0,0,1 @ F,0,0,1,0,0,0,1 @ F,0,0,1,0,0,0,1 @ F,0,0,1,0,0,0,1 @ F,0,0,1,0,0,0,1 @ F,0,0,1,0,0,0,1 @ F,0,0,1,0,0,0,1 @ F,0,0,1,0,0,0,1 @ F,0,0,1,0,0,0,1 @ F,0,0,1,0,0,0,1 @ F,0,0,1,0,0,0,1 | F,0,0,1,0,0,0,1 @ F,0,0,1,0,0,0,1 @ F,0,0,1,0,0,0,1 @ F,0,0,1,0,0,0,1 @ F,0,0,1,0,0,0,1 | F,0,0,1,0,6.2308092,0,1 @ F,0,0,1,0,0,0,1 @ F,0,0,1,0,0,0,1 @ F,0,0,1,0,0,0,1 @ F,0,0,1,0,0,0,1 @ F,0,0,1,0,0,0,1 @ F,0,0,1,0,0,0,1 @ F,0,0,1,0,0,0,1 @ F,0,0,1,0,0,0,1 @ F,0,0,1,0,0,0,1 @ F,0,0,1,0,0,0,1 @ F,0,0,1,0,0,0,1 @ F,0,0,1,0,0,0,1 @ F,0,0,1,0,0,0,1 @ F,0,0,1,0,0,0,1 @ F,0,0,1,0,0,0,1 @ F,0,0,1,0,0,0,1 @ F,0,0,1,0,0,0,1 @ F,0,0,1,0,0,0,1 @ F,0,0,1,0,0,0,1 @ F,0,0,1,0,0,0,1 @ F,0,0,1,0,0,0,1 @ F,0,0,1,0,0,0,1 @ F,0,0,1,0,0,0,1 @ F,0,0,1,0,0,0,1 @ F,0,0,1,0,0,0,1 @ F,0,0,1,0,0,0,1 @ F,0,0,1,0,0,0,1 @ F,0,0,1,0,0,0,1 @ F,0,0,1,0,0,0,1 | F,0,0,1,0,0,0,1 @ F,0,0,1,0,0,0,1 @ F,0,0,1,0,0,0,1 @ F,0,0,1,0,0,0,1 @ F,0,0,1,0,0,0,1 @ F,0,0,1,0,0,0,1 @ F,0,0,1,0,0,0,1 @ F,0,0,1,0,0,0,1 @ F,0,0,1,0,0,0,1 @ F,0,0,1,0,0,0,1 @ F,0,0,1,0,0,0,1 @ F,0,0,1,0,0,0,1 @ F,0,0,1,0,6.2308092,0,1 @ F,0,0,1,0,6.2308092,0,1 @ F,0,0,1,0,0,0,1 @ F,0,0,1,0,0,0,1 @ F,0,0,1,0,0,0,1 @ F,0,0,1,0,0,0,1 @ F,0,0,1,0,0,0,1 @ F,0,0,1,0,0,0,1 @ F,0,0,1,0,0,0,1 @ F,0,0,1,0,0,0,1 @ F,0,0,1,0,0,0,1 @ F,0,0,1,0,0,0,1 @ F,0,0,1,0,0,0,1 | F,0,0,1,0,0,0,1 @ F,0,0,1,0,0,0,1 @ F,0,0,1,0,0,0,1 @ F,0,0,1,0,0,0,1 @ F,0,0,1,0,0,0,1 @ F,0,0,1,0,0,0,1 @ F,0,0,1,0,0,0,1 @ F,0,0,1,0,0,0,1 @ F,0,0,1,0,0,0,1 @ F,0,0,1,0,0,0,1 @ F,0,0,1,0,0,0,1 @ F,0,0,1,0,0,0,1 @ F,0,0,1,0,0,0,1 | F,0,0,1,0,0,0,1 @ F,0,0,1,0,0,0,1 @ F,0,0,1,0,0,0,1 @ F,0,0,1,0,0,0,1 @ F,0,0,1,0,0,0,1 @ F,0,0,1,0,0,0,1 @ F,0,0,1,0,0,0,1 @ F,0,0,1,0,0,0,1 | F,0,0,1,0,6.2308092,0,1 @ F,0,0,1,0,0,0,1 @ F,0,0,1,0,0,0,1 @ F,0,0,1,0,0,0,1 @ F,0,0,1,0,0,0,1 @ F,0,0,1,0,0,0,1 @ F,0,0,1,0,3.092,0,1 @ F,0,0,1,0,0,0,1 @ F,0,0,1,0,0,0,1 @ F,0,0,1,0,0,0,1 @ F,0,0,1,0,0,0,1 @ F,0,0,1,0,0,0,1 @ F,0,0,1,0,0,0,1 @ F,0,0,1,0,0,0,1 @ F,0,0,1,0,0,0,1 @ F,0,0,1,0,0,0,1 @ F,0,0,1,0,0,0,1 @ F,0,0,1,0,0,0,1 @ F,0,0,1,0,0,0,1 @ F,0,0,1,0,6.2308092,0,1 @ F,0,0,1,0,0,0,1 @ F,0,0,1,0,0,0,1 @ F,0,0,1,0,0,0,1 @ F,0,0,1,0,0,0,1 @ F,0,0,1,0,0,0,1 @ F,0,0,1,0,0,0,1 @ F,0,0,1,0,0,0,1 @ F,0,0,1,0,0,0,1 @ F,0,0,1,0,0,0,1 @ F,0,0,1,0,0,0,1 @ F,0,0,1,0,0,0,1 | F,0,0,1,0,0,0,1 @ F,0,0,1,0,0,0,1 @ F,0,0,1,0,0,0,1 @ F,0,0,1,0,0,0,1 @ F,0,0,1,0,0,0,1 @ F,0,0,1,0,0,0,1 @ F,0,0,1,0,0,0,1 @ F,0,0,1,0,0,0,1 @ F,0,0,1,0,0,0,1 @ F,0,0,1,0,0,0,1 @ F,0,0,1,0,0,0,1 @ F,0,0,1,0,0,0,1 @ F,0,0,1,0,0,0,1 @ F,0,0,1,0,0,0,1 @ F,0,0,1,0,0,0,1 @ F,0,0,1,0,0,0,1 @ F,0,0,1,0,0,0,1 @ F,0,0,1,0,0,0,1 @ F,0,0,1,0,0,0,1 @ F,0,0,1,0,0,0,1 @ F,0,0,1,0,0,0,1 @ F,0,0,1,0,0,0,1 @ F,0,0,1,0,0,0,1 @ F,0,0,1,0,0,0,1 @ F,0,0,1,0,0,0,1 @ F,0,0,1,0,0,0,1 @ F,0,0,1,0,0,0,1 @ F,0,0,1,0,0,0,1 @ F,0,0,1,0,0,0,1 @ F,0,0,1,0,0,0,1 @ F,0,0,1,0,0,0,1 @ F,0,0,1,0,0,0,1 @ F,0,0,1,0,0,0,1 @ F,0,0,1,0,0,0,1 @ F,0,0,1,0,0,0,1 @ F,0,0,1,0,0,0,1 @ F,0,0,1,0,0,0,1 @ F,0,0,1,0,0,0,1 @ F,0,0,1,0,0,0,1 @ F,0,0,1,0,0,0,1 @ F,0,0,1,0,0,0,1 @ F,0,0,1,0,0,0,1 @ F,0,0,1,0,0,0,1 @ F,0,0,1,0,0,0,1"
       radius="0"
       unit="px"
       method="auto"
       mode="F"
       chamfer_steps="1"
       flexible="false"
       use_knot_distance="true"
       apply_no_radius="true"
       apply_with_radius="true"
       only_selected="false"
       hide_knots="false" />
    <inkscape:path-effect
       effect="fillet_chamfer"
       id="path-effect13"
       is_visible="true"
       lpeversion="1"
       nodesatellites_param="F,0,0,1,0,3.354,0,1 @ F,0,0,1,0,0,0,1 @ F,0,0,1,0,0,0,1 @ F,0,0,1,0,0,0,1 @ F,0,0,1,0,0,0,1 @ F,0,0,1,0,0,0,1 @ F,0,0,1,0,0,0,1 @ F,0,0,1,0,0,0,1 @ F,0,0,1,0,0,0,1 @ F,0,0,1,0,0,0,1 @ F,0,0,1,0,0,0,1 @ F,0,0,1,0,0,0,1 @ F,0,0,1,0,0,0,1 @ F,0,0,1,0,0,0,1 @ F,0,0,1,0,0,0,1 @ F,0,0,1,0,0,0,1 @ F,0,0,1,0,0,0,1 @ F,0,0,1,0,0,0,1 @ F,0,0,1,0,0,0,1 @ F,0,0,1,0,0,0,1 @ F,0,0,1,0,0,0,1 @ F,0,0,1,0,0,0,1 @ F,0,0,1,0,0,0,1 @ F,0,0,1,0,0,0,1 @ F,0,0,1,0,0,0,1 @ F,0,0,1,0,0,0,1 @ F,0,0,1,0,0,0,1 @ F,0,0,1,0,0,0,1 @ F,0,0,1,0,0,0,1 @ F,0,0,1,0,0,0,1 @ F,0,0,1,0,0,0,1 @ F,0,0,1,0,0,0,1 @ F,0,0,1,0,0,0,1 @ F,0,0,1,0,0,0,1 @ F,0,0,1,0,0,0,1 @ F,0,0,1,0,0,0,1 | F,0,0,1,0,0,0,1 @ F,0,0,1,0,0,0,1 @ F,0,0,1,0,0,0,1 @ F,0,0,1,0,0,0,1 @ F,0,0,1,0,0,0,1 @ F,0,0,1,0,0,0,1 @ F,0,0,1,0,0,0,1 @ F,0,0,1,0,0,0,1 @ F,0,0,1,0,0,0,1 @ F,0,0,1,0,0,0,1 @ F,0,0,1,0,0,0,1 @ F,0,0,1,0,0,0,1 @ F,0,0,1,0,0,0,1 @ F,0,0,1,0,0,0,1 @ F,0,0,1,0,0,0,1 @ F,0,0,1,0,0,0,1 @ F,0,0,1,0,0,0,1 @ F,0,0,1,0,0,0,1 @ F,0,0,1,0,0,0,1 | F,0,0,1,0,0,0,1 @ F,0,0,1,0,0,0,1 @ F,0,0,1,0,0,0,1 @ F,0,0,1,0,0,0,1 @ F,0,0,1,0,0,0,1 | F,0,0,1,0,3.7205357,0,1 @ F,0,0,1,0,0,0,1 @ F,0,0,1,0,0,0,1 @ F,0,0,1,0,0,0,1 @ F,0,0,1,0,0,0,1 @ F,0,0,1,0,0,0,1 @ F,0,0,1,0,0,0,1 @ F,0,0,1,0,0,0,1 @ F,0,0,1,0,0,0,1 @ F,0,0,1,0,0,0,1 @ F,0,0,1,0,0,0,1 @ F,0,0,1,0,0,0,1 @ F,0,0,1,0,0,0,1 @ F,0,0,1,0,0,0,1 @ F,0,0,1,0,0,0,1 @ F,0,0,1,0,0,0,1 @ F,0,0,1,0,0,0,1 @ F,0,0,1,0,0,0,1 @ F,0,0,1,0,0,0,1 @ F,0,0,1,0,0,0,1 @ F,0,0,1,0,0,0,1 @ F,0,0,1,0,0,0,1 @ F,0,0,1,0,0,0,1 @ F,0,0,1,0,0,0,1 @ F,0,0,1,0,0,0,1 @ F,0,0,1,0,0,0,1 @ F,0,0,1,0,0,0,1 @ F,0,0,1,0,0,0,1 @ F,0,0,1,0,0,0,1 @ F,0,0,1,0,0,0,1 | F,0,0,1,0,0,0,1 @ F,0,0,1,0,3.5146995,0,1 @ F,0,0,1,0,0,0,1 @ F,0,0,1,0,0,0,1 @ F,0,0,1,0,0,0,1 @ F,0,0,1,0,0,0,1 @ F,0,0,1,0,0,0,1 @ F,0,0,1,0,0,0,1 @ F,0,0,1,0,0,0,1 @ F,0,0,1,0,0,0,1 @ F,0,0,1,0,0,0,1 @ F,0,0,1,0,0,0,1 @ F,0,0,1,0,0,0,1 @ F,0,0,1,0,0,0,1 @ F,0,0,1,0,0,0,1 @ F,0,0,1,0,0,0,1 @ F,0,0,1,0,0,0,1 @ F,0,0,1,0,0,0,1 @ F,0,0,1,0,0,0,1 @ F,0,0,1,0,0,0,1 @ F,0,0,1,0,0,0,1 @ F,0,0,1,0,0,0,1 @ F,0,0,1,0,0,0,1 @ F,0,0,1,0,0,0,1 @ F,0,0,1,0,0,0,1 @ F,0,0,1,0,0,0,1 @ F,0,0,1,0,0,0,1 @ F,0,0,1,0,0,0,1 @ F,0,0,1,0,0,0,1 | F,0,0,1,0,0,0,1 @ F,0,0,1,0,0,0,1 @ F,0,0,1,0,0,0,1 @ F,0,0,1,0,0,0,1 @ F,0,0,1,0,0,0,1 @ F,0,0,1,0,0,0,1 @ F,0,0,1,0,0,0,1 @ F,0,0,1,0,0,0,1 | F,0,0,1,0,0,0,1 @ F,0,0,1,0,0,0,1 @ F,0,0,1,0,0,0,1 @ F,0,0,1,0,0,0,1 @ F,0,0,1,0,0,0,1 @ F,0,0,1,0,0,0,1 @ F,0,0,1,0,0,0,1 @ F,0,0,1,0,0,0,1 @ F,0,0,1,0,0,0,1 @ F,0,0,1,0,0,0,1 @ F,0,0,1,0,0,0,1 @ F,0,0,1,0,0,0,1 @ F,0,0,1,0,0,0,1 @ F,0,0,1,0,0,0,1 @ F,0,0,1,0,0,0,1 @ F,0,0,1,0,0,0,1 @ F,0,0,1,0,0,0,1 @ F,0,0,1,0,0,0,1 @ F,0,0,1,0,0,0,1 @ F,0,0,1,0,0,0,1 @ F,0,0,1,0,0,0,1 @ F,0,0,1,0,0,0,1 @ F,0,0,1,0,0,0,1 @ F,0,0,1,0,0,0,1 @ F,0,0,1,0,0,0,1 @ F,0,0,1,0,0,0,1 @ F,0,0,1,0,0,0,1 @ F,0,0,1,0,0,0,1 @ F,0,0,1,0,0,0,1 @ F,0,0,1,0,0,0,1 @ F,0,0,1,0,0,0,1 @ F,0,0,1,0,0,0,1 @ F,0,0,1,0,0,0,1"
       radius="0"
       unit="px"
       method="auto"
       mode="F"
       chamfer_steps="1"
       flexible="false"
       use_knot_distance="true"
       apply_no_radius="true"
       apply_with_radius="true"
       only_selected="false"
       hide_knots="false" />
    <inkscape:path-effect
       effect="fillet_chamfer"
       id="path-effect12"
       is_visible="true"
       lpeversion="1"
       nodesatellites_param="F,0,0,1,0,0,0,1 @ F,0,0,1,0,0,0,1 @ F,0,0,1,0,0,0,1 @ F,0,0,1,0,0,0,1 @ F,0,0,1,0,0,0,1 @ F,0,0,1,0,0,0,1 @ F,0,0,1,0,0,0,1 @ F,0,0,1,0,0,0,1 @ F,0,0,1,0,0,0,1 @ F,0,0,1,0,0,0,1 @ F,0,0,1,0,0,0,1 @ F,0,0,1,0,0,0,1 @ F,0,0,1,0,0,0,1 @ F,0,0,1,0,0,0,1 @ F,0,0,1,0,0,0,1 @ F,0,0,1,0,0,0,1 @ F,0,0,1,0,0,0,1 @ F,0,0,1,0,0,0,1 @ F,0,0,1,0,0,0,1 | F,0,0,1,0,0,0,1 @ F,0,0,1,0,0,0,1 @ F,0,0,1,0,0,0,1 @ F,0,0,1,0,0,0,1 @ F,0,0,1,0,0,0,1 | F,0,0,1,0,4.6277358,0,1 @ F,0,0,1,0,0,0,1 @ F,0,0,1,0,0,0,1 @ F,0,0,1,0,0,0,1 @ F,0,0,1,0,0,0,1 @ F,0,0,1,0,0,0,1 @ F,0,0,1,0,0,0,1 @ F,0,0,1,0,0,0,1 @ F,0,0,1,0,0,0,1 @ F,0,0,1,0,0,0,1 @ F,0,0,1,0,0,0,1 @ F,0,0,1,0,0,0,1 @ F,0,0,1,0,0,0,1 @ F,0,0,1,0,0,0,1 @ F,0,0,1,0,0,0,1 @ F,0,0,1,0,0,0,1 @ F,0,0,1,0,0,0,1 @ F,0,0,1,0,0,0,1 @ F,0,0,1,0,0,0,1 @ F,0,0,1,0,0,0,1 @ F,0,0,1,0,0,0,1 @ F,0,0,1,0,0,0,1 @ F,0,0,1,0,0,0,1 @ F,0,0,1,0,0,0,1 @ F,0,0,1,0,0,0,1 @ F,0,0,1,0,0,0,1 @ F,0,0,1,0,0,0,1 @ F,0,0,1,0,0,0,1 @ F,0,0,1,0,0,0,1 @ F,0,0,1,0,0,0,1 | F,0,0,1,0,0,0,1 @ F,0,0,1,0,0,0,1 @ F,0,0,1,0,0,0,1 @ F,0,0,1,0,0,0,1 @ F,0,0,1,0,0,0,1 @ F,0,0,1,0,0,0,1 @ F,0,0,1,0,0,0,1 @ F,0,0,1,0,0,0,1 @ F,0,0,1,0,0,0,1 @ F,0,0,1,0,0,0,1 @ F,0,0,1,0,0,0,1 @ F,0,0,1,0,0,0,1 @ F,0,1,1,0,4.6277358,0,1 @ F,0,1,1,0,4.6277358,0,1 @ F,0,0,1,0,0,0,1 @ F,0,0,1,0,0,0,1 @ F,0,0,1,0,0,0,1 @ F,0,0,1,0,0,0,1 @ F,0,0,1,0,0,0,1 @ F,0,0,1,0,0,0,1 @ F,0,0,1,0,0,0,1 @ F,0,0,1,0,0,0,1 @ F,0,0,1,0,0,0,1 @ F,0,0,1,0,0,0,1 @ F,0,0,1,0,0,0,1 | F,0,0,1,0,0,0,1 @ F,0,0,1,0,0,0,1 @ F,0,0,1,0,0,0,1 @ F,0,0,1,0,0,0,1 @ F,0,0,1,0,0,0,1 @ F,0,0,1,0,0,0,1 @ F,0,0,1,0,0,0,1 @ F,0,0,1,0,0,0,1 @ F,0,0,1,0,0,0,1 @ F,0,0,1,0,0,0,1 @ F,0,0,1,0,0,0,1 @ F,0,0,1,0,0,0,1 @ F,0,0,1,0,0,0,1 | F,0,0,1,0,0,0,1 @ F,0,0,1,0,0,0,1 @ F,0,0,1,0,0,0,1 @ F,0,0,1,0,0,0,1 @ F,0,0,1,0,0,0,1 @ F,0,0,1,0,0,0,1 @ F,0,0,1,0,0,0,1 @ F,0,0,1,0,0,0,1 | F,0,0,1,0,7.7476902,0,1 @ F,0,0,1,0,0,0,1 @ F,0,0,1,0,0,0,1 @ F,0,0,1,0,0,0,1 @ F,0,0,1,0,0,0,1 @ F,0,0,1,0,0,0,1 @ F,0,0,1,0,3.022239,0,1 @ F,0,0,1,0,0,0,1 @ F,0,0,1,0,0,0,1 @ F,0,0,1,0,0,0,1 @ F,0,0,1,0,0,0,1 @ F,0,0,1,0,0,0,1 @ F,0,0,1,0,0,0,1 @ F,0,0,1,0,0,0,1 @ F,0,0,1,0,0,0,1 @ F,0,0,1,0,0,0,1 @ F,0,0,1,0,0,0,1 @ F,0,0,1,0,0,0,1 @ F,0,0,1,0,0,0,1 @ F,0,0,1,0,0,0,1 @ F,0,0,1,0,0,0,1 @ F,0,0,1,0,0,0,1 @ F,0,0,1,0,0,0,1 @ F,0,0,1,0,0,0,1 @ F,0,0,1,0,0,0,1 @ F,0,0,1,0,0,0,1 @ F,0,0,1,0,0,0,1 @ F,0,0,1,0,0,0,1 @ F,0,0,1,0,0,0,1 @ F,0,0,1,0,0,0,1 @ F,0,0,1,0,0,0,1 | F,0,0,1,0,0,0,1 @ F,0,0,1,0,0,0,1 @ F,0,0,1,0,0,0,1 @ F,0,0,1,0,0,0,1 @ F,0,0,1,0,0,0,1 @ F,0,0,1,0,0,0,1 @ F,0,0,1,0,0,0,1 @ F,0,0,1,0,0,0,1 @ F,0,0,1,0,0,0,1 @ F,0,0,1,0,0,0,1 @ F,0,0,1,0,0,0,1 @ F,0,0,1,0,0,0,1 @ F,0,0,1,0,0,0,1 @ F,0,0,1,0,0,0,1 @ F,0,0,1,0,0,0,1 @ F,0,0,1,0,0,0,1 @ F,0,0,1,0,0,0,1 @ F,0,0,1,0,0,0,1 @ F,0,0,1,0,0,0,1 @ F,0,0,1,0,0,0,1 @ F,0,0,1,0,0,0,1 @ F,0,0,1,0,0,0,1 @ F,0,0,1,0,0,0,1 @ F,0,0,1,0,0,0,1 @ F,0,0,1,0,0,0,1 @ F,0,0,1,0,0,0,1 @ F,0,0,1,0,0,0,1 @ F,0,0,1,0,0,0,1 @ F,0,0,1,0,0,0,1 @ F,0,0,1,0,0,0,1 @ F,0,0,1,0,0,0,1 @ F,0,0,1,0,0,0,1 @ F,0,0,1,0,0,0,1 @ F,0,0,1,0,0,0,1 @ F,0,0,1,0,0,0,1 @ F,0,0,1,0,0,0,1 @ F,0,0,1,0,0,0,1 @ F,0,0,1,0,0,0,1 @ F,0,0,1,0,0,0,1 @ F,0,0,1,0,0,0,1 @ F,0,0,1,0,0,0,1 @ F,0,0,1,0,0,0,1 @ F,0,0,1,0,0,0,1 @ F,0,0,1,0,0,0,1"
       radius="0"
       unit="px"
       method="auto"
       mode="F"
       chamfer_steps="1"
       flexible="false"
       use_knot_distance="true"
       apply_no_radius="true"
       apply_with_radius="true"
       only_selected="false"
       hide_knots="false" />
  </defs>
  <sodipodi:namedview
     id="namedview8"
     pagecolor="#505050"
     bordercolor="#eeeeee"
     borderopacity="1"
     inkscape:showpageshadow="0"
     inkscape:pageopacity="0"
     inkscape:pagecheckerboard="0"
     inkscape:deskcolor="#505050"
     inkscape:zoom="1.0719877"
     inkscape:cx="1020.5341"
     inkscape:cy="626.40647"
     inkscape:window-width="3840"
     inkscape:window-height="2137"
     inkscape:window-x="1912"
     inkscape:window-y="-8"
     inkscape:window-maximized="1"
     inkscape:current-layer="g7" />
  <path
     d="M31.983 0c-3.072.054-7.431.149-12.222 3.465-4.778 3.303-7.065 8.892-7.823 12.791-.744 3.898-.758 7.35-.744 11.708l.095 8.148-.041 57.172c-1.408.799-2.924 1.205-4.196 2.409C2.72 99.74 0 106.277 0 112.07c0 5.766 2.599 12.398 7.052 16.567l.149.149.176.149c5.793 5.062 12.236 5.82 18.326 5.82h28.139 40.009 9.691c9.623 0 17.717-8.08 17.717-17.704V41.688c1.367-.785 2.869-1.191 4.115-2.355 4.385-4.101 7.052-10.706 7.052-16.486 0-5.834-2.815-12.588-7.431-16.675C119.216 1.029 112.787.244 106.75.244h-.027L78.597.163h-.013L40.821.23c-3.14-.068-5.752-.257-8.825-.189z"
     id="path1" />
  <g
     fill="#fff"
     id="g8">
    <path
       d="M42.428 47.64v54.833h10.795c4.284 0 7.454.771 9.253 2.485 1.885 1.628 2.827 3.77 2.827 6.511 0 2.656-.942 4.798-2.827 6.511-1.799 1.628-4.884 2.399-9.253 2.399H25.121c-4.284 0-7.454-.771-9.339-2.399-1.799-1.628-2.742-3.855-2.742-6.597 0-2.57.857-4.712 2.742-6.426 1.799-1.628 4.627-2.485 8.482-2.485V35.559l-.086-8.054c0-16.193 1.971-14.394 15.679-14.137 1.285 0 2.999.942 3.684 2.056l45.066 70.683V31.532H77.812c-4.284 0-7.454-.771-9.339-2.399-1.799-1.628-2.742-3.855-2.742-6.597 0-2.656.857-4.884 2.742-6.511s4.969-2.485 9.339-2.485l28.102.086c4.284 0 7.454.771 9.253 2.399 1.885 1.628 2.827 3.77 2.827 6.511 0 2.656-.857 4.798-2.742 6.511-1.799 1.628-4.627 2.485-8.396 2.485v84.991c0 2.271-1.841 4.112-4.112 4.112h-9.681a7.54 7.54 0 0 1-6.34-3.427z"
       id="path2" />
    <g
       transform="matrix(1.022528 0 0 .977969 -61.96 -98.651)"
       stroke="#000"
       paint-order="stroke markers fill"
       id="g7">
      <path
         d="m 249.109,192.841 h -55.325 c 1.403,3.509 3.881,6.337 7.434,8.486 3.596,2.149 8.442,3.223 14.539,3.223 5,0 11.644,-1.074 19.933,-3.223 3.421,-0.877 5.789,-1.316 7.105,-1.316 1.798,0 3.311,0.636 4.539,1.908 1.228,1.272 1.842,2.873 1.842,4.802 0,1.754 -0.658,3.245 -1.974,4.473 -1.754,1.623 -6.03,3.18 -12.828,4.671 -6.798,1.447 -13.332,2.171 -19.604,2.171 -10.789,0 -19.429,-3.048 -25.919,-9.144 -6.447,-6.096 -9.67,-13.596 -9.67,-22.499 0,-9.473 3.487,-17.17 10.46,-23.091 7.017,-5.965 15.087,-8.947 24.209,-8.947 5.482,0 10.504,0.965 15.065,2.895 4.605,1.93 8.026,4.013 10.262,6.25 3.158,3.245 5.767,7.258 7.828,12.039 1.403,3.333 2.105,7.193 2.105,11.578 z m -14.933,-13.486 c -2.061,-3.859 -4.758,-6.732 -8.092,-8.618 -3.333,-1.93 -7.302,-2.895 -11.907,-2.895 -4.561,0 -8.508,0.965 -11.841,2.895 -3.333,1.886 -6.052,4.758 -8.157,8.618 z m 56.036,-16.99119 v 2.19019 c 5.658,-4.079 10.109,-6.798 13.354,-8.157 3.289,-1.36 6.359,-2.039 9.21,-2.039 4.386,0 8.64,1.623 12.762,4.868 2.807,2.193 4.21,4.43 4.21,6.71 0,1.93 -0.68,3.574 -2.039,4.934 -1.316,1.316 -2.916,1.974 -4.802,1.974 -1.667,0 -3.421,-0.833 -5.263,-2.5 -1.842,-1.667 -3.487,-2.5 -4.934,-2.5 -1.886,0 -4.715,1.184 -8.486,3.552 -3.728,2.368 -8.399,5.921 -14.012,10.657 v 20.328 h 19.209 c 3.245,0 5.548,0.636 6.907,1.908 1.403,1.228 2.105,2.851 2.105,4.868 0,1.974 -0.702,3.596 -2.105,4.868 -1.36,1.228 -3.662,1.842 -6.907,1.842 H 268.7 c -3.245,0 -5.57,-0.614 -6.973,-1.842 -1.36,-1.272 -2.039,-2.916 -2.039,-4.934 0,-1.974 0.68,-3.574 2.039,-4.802 1.403,-1.272 3.728,-1.908 6.973,-1.908 h 8.026 V 169.62 h -4.868 c -3.245,0 -5.57,-0.614 -6.973,-1.842 -1.36,-1.272 -2.039,-2.916 -2.039,-4.934 0,-1.974 0.68,-3.574 2.039,-4.802 1.403,-1.272 3.728,-1.908 6.973,-1.908 l 12.12319,-6.6e-4 a 6.2304697,6.2304697 44.998439 0 1 6.23081,6.23047 z m 83.745,37.12119 14.539,-29.866 c -3.596,0 -5.899,-0.307 -6.907,-0.921 -2.193,-1.36 -3.289,-3.311 -3.289,-5.855 0,-1.974 0.68,-3.574 2.039,-4.802 1.403,-1.272 3.728,-1.908 6.973,-1.908 h 18.486 c 3.245,0 5.548,0.636 6.907,1.908 1.403,1.228 2.105,2.851 2.105,4.868 0,1.974 -0.702,3.596 -2.105,4.868 -1.36,1.228 -3.662,1.842 -6.907,1.842 h -2.237 l -19.83183,40.64716 a 9.9728967,9.9728967 148.00392 0 1 -8.96298,5.59984 h -1.61638 a 9.9728967,9.9728967 31.996082 0 1 -8.96298,-5.59984 L 344.355,169.619 h -1.908 c -3.245,0 -5.57,-0.614 -6.973,-1.842 -1.36,-1.272 -2.039,-2.916 -2.039,-4.934 0,-1.974 0.68,-3.574 2.039,-4.802 1.403,-1.272 3.728,-1.908 6.973,-1.908 h 18.091 c 3.202,0 5.482,0.636 6.842,1.908 1.403,1.228 2.105,2.851 2.105,4.868 0,2.5 -1.053,4.408 -3.158,5.723 -1.053,0.658 -3.399,0.987 -7.039,0.987 z m 110.607,-12.368 c 0,5.175 -1.447,10.197 -4.342,15.065 -2.851,4.824 -7.127,8.684 -12.828,11.578 -5.658,2.851 -11.578,4.276 -17.762,4.276 -6.14,0 -12.017,-1.403 -17.63,-4.21 -5.614,-2.851 -9.89,-6.71 -12.828,-11.578 -2.938,-4.868 -4.408,-9.955 -4.408,-15.262 0,-5.394 1.491,-10.679 4.473,-15.854 2.982,-5.219 7.258,-9.32 12.828,-12.302 5.614,-2.982 11.469,-4.473 17.565,-4.473 6.14,0 12.039,1.535 17.696,4.605 5.701,3.026 9.999,7.127 12.894,12.302 2.895,5.131 4.342,10.416 4.342,15.854 z m -13.486,0.066 c 0,-4.342 -1.557,-8.333 -4.671,-11.973 -4.254,-4.912 -9.846,-7.368 -16.775,-7.368 -6.096,0 -11.183,1.952 -15.262,5.855 -4.079,3.903 -6.118,8.421 -6.118,13.552 0,4.21 2.061,8.157 6.184,11.841 4.123,3.64 9.188,5.46 15.196,5.46 6.052,0 11.14,-1.82 15.262,-5.46 4.123,-3.684 6.184,-7.653 6.184,-11.907 z M 553.34,162.36281 V 202.379 c 2.851,0 4.956,0.636 6.315,1.908 1.359,1.272 2.039,2.895 2.039,4.868 0,1.973 -0.702,3.596 -2.105,4.868 -1.36,1.228 -3.662,1.842 -6.907,1.842 h -9.736 a 3.092,3.092 45 0 1 -3.092,-3.092 c -3.859,1.754 -7.543,3.07 -11.052,3.947 -3.509,0.877 -6.842,1.316 -9.999,1.316 -4.43,0 -8.267,-0.921 -11.512,-2.763 -3.245,-1.886 -5.811,-4.473 -7.697,-7.763 -1.36,-2.368 -2.039,-5.329 -2.039,-8.881 v -29.011 h -2.302 c -3.245,0 -5.57,-0.614 -6.973,-1.842 -1.36,-1.272 -2.039,-2.916 -2.039,-4.934 0,-1.974 0.68,-3.574 2.039,-4.802 1.403,-1.272 3.728,-1.908 6.973,-1.908 h 9.55719 a 6.2308092,6.2308092 45 0 1 6.23081,6.23081 l 0,33.89819 c 0,2.851 0.68,4.956 2.039,6.315 1.403,1.316 3.53,1.974 6.381,1.974 2.719,0 5.636,-0.526 8.749,-1.579 3.158,-1.096 7.039,-3.048 11.644,-5.855 v -27.498 h -4.868 c -3.245,0 -5.57,-0.614 -6.973,-1.842 -1.36,-1.272 -2.039,-2.916 -2.039,-4.934 0,-1.974 0.68,-3.574 2.039,-4.802 1.403,-1.272 3.728,-1.908 6.973,-1.908 h 12.12319 a 6.2308092,6.2308092 45 0 1 6.23081,6.23081 z m 63.667,9.55719 c -2.193,-1.36 -4.495,-2.368 -6.907,-3.026 -2.412,-0.702 -4.934,-1.053 -7.565,-1.053 -5.219,0 -9.363,0.855 -12.433,2.566 -1.36,0.746 -2.039,1.557 -2.039,2.434 0,1.009 0.921,1.995 2.763,2.96 1.403,0.702 4.539,1.381 9.407,2.039 8.947,1.228 15.174,2.456 18.683,3.684 4.605,1.623 8.157,4.035 10.657,7.236 2.5,3.201 3.75,6.579 3.75,10.131 0,4.824 -2.127,8.859 -6.381,12.104 -6.096,4.693 -14.012,7.039 -23.748,7.039 -3.903,0 -7.521,-0.351 -10.855,-1.053 -3.289,-0.658 -6.315,-1.645 -9.078,-2.96 -0.658,0.57 -1.36,1.009 -2.105,1.316 -0.745,0.307 -1.513,0.46 -2.302,0.46 -2.105,0 -3.794,-0.68 -5.065,-2.039 -1.228,-1.403 -1.842,-3.728 -1.842,-6.973 v -4.539 c 0,-3.245 0.614,-5.548 1.842,-6.907 1.272,-1.403 2.916,-2.105 4.934,-2.105 1.623,0 2.982,0.46 4.079,1.381 1.096,0.877 1.952,2.412 2.566,4.605 2.061,1.754 4.539,3.092 7.434,4.013 2.895,0.877 6.228,1.316 9.999,1.316 6.184,0 10.986,-0.965 14.407,-2.895 1.623,-0.965 2.434,-1.974 2.434,-3.026 0,-1.754 -1.162,-3.202 -3.487,-4.342 -2.325,-1.14 -7.127,-2.105 -14.407,-2.895 -10.833,-1.14 -18.069,-3.333 -21.709,-6.579 -3.64,-3.202 -5.46,-7.149 -5.46,-11.841 0,-4.824 2.039,-8.837 6.118,-12.039 5.526,-4.386 12.762,-6.579 21.709,-6.579 3.114,0 6.096,0.307 8.947,0.921 2.895,0.57 5.658,1.469 8.289,2.697 0.833,-0.614 1.601,-1.074 2.302,-1.381 0.746,-0.307 1.425,-0.46 2.039,-0.46 1.842,0 3.377,0.702 4.605,2.105 1.228,1.36 1.842,3.662 1.842,6.907 v 3.289 c 0,2.938 -0.351,4.934 -1.053,5.986 -1.403,2.017 -3.311,3.026 -5.723,3.026 -1.623,0 -3.048,-0.504 -4.276,-1.513 -1.228,-1.009 -2.017,-2.346 -2.368,-4.013 z"
         stroke-width="25.785"
         id="path3"
         style="stroke-linejoin:round"
         sodipodi:nodetypes="cccscsssccscscscccccccsccccccscscssscccscscsscscsccscsccccccscsscscsccccscscsscsccccccscssccsccccscssscscsccsscsccssccscscscscscscccscscscccscscccsscsccsscsscscccscssccscscccscsscsscc"
         inkscape:path-effect="#path-effect1"
         inkscape:original-d="m 249.109,192.841 h -55.325 c 1.403,3.509 3.881,6.337 7.434,8.486 3.596,2.149 8.442,3.223 14.539,3.223 5,0 11.644,-1.074 19.933,-3.223 3.421,-0.877 5.789,-1.316 7.105,-1.316 1.798,0 3.311,0.636 4.539,1.908 1.228,1.272 1.842,2.873 1.842,4.802 0,1.754 -0.658,3.245 -1.974,4.473 -1.754,1.623 -6.03,3.18 -12.828,4.671 -6.798,1.447 -13.332,2.171 -19.604,2.171 -10.789,0 -19.429,-3.048 -25.919,-9.144 -6.447,-6.096 -9.67,-13.596 -9.67,-22.499 0,-9.473 3.487,-17.17 10.46,-23.091 7.017,-5.965 15.087,-8.947 24.209,-8.947 5.482,0 10.504,0.965 15.065,2.895 4.605,1.93 8.026,4.013 10.262,6.25 3.158,3.245 5.767,7.258 7.828,12.039 1.403,3.333 2.105,7.193 2.105,11.578 z m -14.933,-13.486 c -2.061,-3.859 -4.758,-6.732 -8.092,-8.618 -3.333,-1.93 -7.302,-2.895 -11.907,-2.895 -4.561,0 -8.508,0.965 -11.841,2.895 -3.333,1.886 -6.052,4.758 -8.157,8.618 z m 56.036,-23.222 v 8.421 c 5.658,-4.079 10.109,-6.798 13.354,-8.157 3.289,-1.36 6.359,-2.039 9.21,-2.039 4.386,0 8.64,1.623 12.762,4.868 2.807,2.193 4.21,4.43 4.21,6.71 0,1.93 -0.68,3.574 -2.039,4.934 -1.316,1.316 -2.916,1.974 -4.802,1.974 -1.667,0 -3.421,-0.833 -5.263,-2.5 -1.842,-1.667 -3.487,-2.5 -4.934,-2.5 -1.886,0 -4.715,1.184 -8.486,3.552 -3.728,2.368 -8.399,5.921 -14.012,10.657 v 20.328 h 19.209 c 3.245,0 5.548,0.636 6.907,1.908 1.403,1.228 2.105,2.851 2.105,4.868 0,1.974 -0.702,3.596 -2.105,4.868 -1.36,1.228 -3.662,1.842 -6.907,1.842 H 268.7 c -3.245,0 -5.57,-0.614 -6.973,-1.842 -1.36,-1.272 -2.039,-2.916 -2.039,-4.934 0,-1.974 0.68,-3.574 2.039,-4.802 1.403,-1.272 3.728,-1.908 6.973,-1.908 h 8.026 V 169.62 h -4.868 c -3.245,0 -5.57,-0.614 -6.973,-1.842 -1.36,-1.272 -2.039,-2.916 -2.039,-4.934 0,-1.974 0.68,-3.574 2.039,-4.802 1.403,-1.272 3.728,-1.908 6.973,-1.908 z m 83.745,43.352 14.539,-29.866 c -3.596,0 -5.899,-0.307 -6.907,-0.921 -2.193,-1.36 -3.289,-3.311 -3.289,-5.855 0,-1.974 0.68,-3.574 2.039,-4.802 1.403,-1.272 3.728,-1.908 6.973,-1.908 h 18.486 c 3.245,0 5.548,0.636 6.907,1.908 1.403,1.228 2.105,2.851 2.105,4.868 0,1.974 -0.702,3.596 -2.105,4.868 -1.36,1.228 -3.662,1.842 -6.907,1.842 h -2.237 l -22.564,46.247 h -14.078 l -22.564,-46.247 h -1.908 c -3.245,0 -5.57,-0.614 -6.973,-1.842 -1.36,-1.272 -2.039,-2.916 -2.039,-4.934 0,-1.974 0.68,-3.574 2.039,-4.802 1.403,-1.272 3.728,-1.908 6.973,-1.908 h 18.091 c 3.202,0 5.482,0.636 6.842,1.908 1.403,1.228 2.105,2.851 2.105,4.868 0,2.5 -1.053,4.408 -3.158,5.723 -1.053,0.658 -3.399,0.987 -7.039,0.987 z m 110.607,-12.368 c 0,5.175 -1.447,10.197 -4.342,15.065 -2.851,4.824 -7.127,8.684 -12.828,11.578 -5.658,2.851 -11.578,4.276 -17.762,4.276 -6.14,0 -12.017,-1.403 -17.63,-4.21 -5.614,-2.851 -9.89,-6.71 -12.828,-11.578 -2.938,-4.868 -4.408,-9.955 -4.408,-15.262 0,-5.394 1.491,-10.679 4.473,-15.854 2.982,-5.219 7.258,-9.32 12.828,-12.302 5.614,-2.982 11.469,-4.473 17.565,-4.473 6.14,0 12.039,1.535 17.696,4.605 5.701,3.026 9.999,7.127 12.894,12.302 2.895,5.131 4.342,10.416 4.342,15.854 z m -13.486,0.066 c 0,-4.342 -1.557,-8.333 -4.671,-11.973 -4.254,-4.912 -9.846,-7.368 -16.775,-7.368 -6.096,0 -11.183,1.952 -15.262,5.855 -4.079,3.903 -6.118,8.421 -6.118,13.552 0,4.21 2.061,8.157 6.184,11.841 4.123,3.64 9.188,5.46 15.196,5.46 6.052,0 11.14,-1.82 15.262,-5.46 4.123,-3.684 6.184,-7.653 6.184,-11.907 z m 82.262,-31.051 v 46.247 c 2.851,0 4.956,0.636 6.315,1.908 1.359,1.272 2.039,2.895 2.039,4.868 0,1.973 -0.702,3.596 -2.105,4.868 -1.36,1.228 -3.662,1.842 -6.907,1.842 h -12.828 v -3.092 c -3.859,1.754 -7.543,3.07 -11.052,3.947 -3.509,0.877 -6.842,1.316 -9.999,1.316 -4.43,0 -8.267,-0.921 -11.512,-2.763 -3.245,-1.886 -5.811,-4.473 -7.697,-7.763 -1.36,-2.368 -2.039,-5.329 -2.039,-8.881 v -29.011 h -2.302 c -3.245,0 -5.57,-0.614 -6.973,-1.842 -1.36,-1.272 -2.039,-2.916 -2.039,-4.934 0,-1.974 0.68,-3.574 2.039,-4.802 1.403,-1.272 3.728,-1.908 6.973,-1.908 h 15.788 v 40.129 c 0,2.851 0.68,4.956 2.039,6.315 1.403,1.316 3.53,1.974 6.381,1.974 2.719,0 5.636,-0.526 8.749,-1.579 3.158,-1.096 7.039,-3.048 11.644,-5.855 v -27.498 h -4.868 c -3.245,0 -5.57,-0.614 -6.973,-1.842 -1.36,-1.272 -2.039,-2.916 -2.039,-4.934 0,-1.974 0.68,-3.574 2.039,-4.802 1.403,-1.272 3.728,-1.908 6.973,-1.908 z m 63.667,15.788 c -2.193,-1.36 -4.495,-2.368 -6.907,-3.026 -2.412,-0.702 -4.934,-1.053 -7.565,-1.053 -5.219,0 -9.363,0.855 -12.433,2.566 -1.36,0.746 -2.039,1.557 -2.039,2.434 0,1.009 0.921,1.995 2.763,2.96 1.403,0.702 4.539,1.381 9.407,2.039 8.947,1.228 15.174,2.456 18.683,3.684 4.605,1.623 8.157,4.035 10.657,7.236 2.5,3.201 3.75,6.579 3.75,10.131 0,4.824 -2.127,8.859 -6.381,12.104 -6.096,4.693 -14.012,7.039 -23.748,7.039 -3.903,0 -7.521,-0.351 -10.855,-1.053 -3.289,-0.658 -6.315,-1.645 -9.078,-2.96 -0.658,0.57 -1.36,1.009 -2.105,1.316 -0.745,0.307 -1.513,0.46 -2.302,0.46 -2.105,0 -3.794,-0.68 -5.065,-2.039 -1.228,-1.403 -1.842,-3.728 -1.842,-6.973 v -4.539 c 0,-3.245 0.614,-5.548 1.842,-6.907 1.272,-1.403 2.916,-2.105 4.934,-2.105 1.623,0 2.982,0.46 4.079,1.381 1.096,0.877 1.952,2.412 2.566,4.605 2.061,1.754 4.539,3.092 7.434,4.013 2.895,0.877 6.228,1.316 9.999,1.316 6.184,0 10.986,-0.965 14.407,-2.895 1.623,-0.965 2.434,-1.974 2.434,-3.026 0,-1.754 -1.162,-3.202 -3.487,-4.342 -2.325,-1.14 -7.127,-2.105 -14.407,-2.895 -10.833,-1.14 -18.069,-3.333 -21.709,-6.579 -3.64,-3.202 -5.46,-7.149 -5.46,-11.841 0,-4.824 2.039,-8.837 6.118,-12.039 5.526,-4.386 12.762,-6.579 21.709,-6.579 3.114,0 6.096,0.307 8.947,0.921 2.895,0.57 5.658,1.469 8.289,2.697 0.833,-0.614 1.601,-1.074 2.302,-1.381 0.746,-0.307 1.425,-0.46 2.039,-0.46 1.842,0 3.377,0.702 4.605,2.105 1.228,1.36 1.842,3.662 1.842,6.907 v 3.289 c 0,2.938 -0.351,4.934 -1.053,5.986 -1.403,2.017 -3.311,3.026 -5.723,3.026 -1.623,0 -3.048,-0.504 -4.276,-1.513 -1.228,-1.009 -2.017,-2.346 -2.368,-4.013 z" />
      <g
         transform="matrix(1.353499 0 0 1.353499 146.69283 -67.582591)"
         id="g6">
        <path
           d="M36.993 220.216c-8.068-.009-14.851 6.764-14.828 14.848l.043 8.869v52.682l-.025 8.697c-.046 8.049 6.723 14.881 14.791 14.881h51.973c8.068 0 14.824-6.756 14.824-14.824v-18.221c0-4.518.822-9.584-3.078-13.84l.117-20.25v-17.957c0-8.065-6.748-14.821-14.813-14.83zm39.584 28.322l.225.25c-.035-.041-.087-.069-.123-.109-.042-.045-.059-.095-.102-.141zm1.826 40.928l-.057.084c.014-.02.018-.035.031-.055.007-.01.018-.019.025-.029z"
           fill="#000"
           stroke="none"
           id="path4" />
        <path
           d="m 119.388,262.71034 v 0.14266 c 1.815,-1.555 3.807,-2.722 5.978,-3.499 2.203,-0.778 4.585,-1.166 7.145,-1.166 5.897,0 10.563,1.831 13.998,5.492 2.722,2.916 4.083,6.74 4.083,11.47 v 18.518 c 2.106,0 3.661,0.47 4.666,1.41 1.004,0.907 1.507,2.106 1.507,3.597 0,1.458 -0.518,2.657 -1.555,3.597 -1.004,0.907 -2.706,1.361 -5.103,1.361 h -8.992 c -2.398,0 -4.115,-0.454 -5.152,-1.361 -1.004,-0.94 -1.507,-2.155 -1.507,-3.645 0,-1.458 0.502,-2.641 1.507,-3.548 1.004,-0.94 2.56,-1.41 4.666,-1.41 v -18.81 c 0,-2.171 -0.583,-3.759 -1.75,-4.763 -1.523,-1.296 -3.807,-1.944 -6.853,-1.944 -2.301,0 -4.326,0.454 -6.075,1.361 -1.717,0.875 -3.905,2.754 -6.562,5.638 v 18.518 c 2.56,0 4.212,0.243 4.958,0.729 1.588,0.972 2.382,2.398 2.382,4.277 0,1.458 -0.518,2.657 -1.555,3.597 -1.004,0.907 -2.706,1.361 -5.103,1.361 h -11.325 c -2.398,0 -4.115,-0.454 -5.152,-1.361 -1.004,-0.94 -1.507,-2.155 -1.507,-3.645 0,-1.815 0.778,-3.224 2.333,-4.229 0.778,-0.486 2.446,-0.729 5.006,-0.729 v -24.205 c -2.106,0 -3.661,-0.47 -4.666,-1.41 -1.005,-0.94 -1.507,-2.139 -1.507,-3.597 0,-1.458 0.502,-2.641 1.507,-3.548 1.037,-0.94 2.754,-1.41 5.152,-1.41 l 6.26466,0 a 3.2113417,3.2113417 45 0 1 3.21134,3.21134 z M 210.52059,286.62 H 172.573 c 1.037,2.592 2.868,4.682 5.492,6.27 2.657,1.588 6.237,2.382 10.741,2.382 3.694,0 8.603,-0.794 14.727,-2.382 2.527,-0.648 4.277,-0.972 5.249,-0.972 1.329,0 2.446,0.47 3.354,1.41 0.908,0.94 1.361,2.122 1.361,3.548 0.016,1.26092 -0.51593,2.46674 -1.458,3.305 -1.296,1.199 -4.455,2.349 -9.478,3.451 -5.022,1.069 -9.85,1.604 -14.484,1.604 -7.971,0 -14.354,-2.252 -19.15,-6.756 -4.763,-4.504 -7.145,-10.045 -7.145,-16.622 0,-6.999 2.576,-12.686 7.728,-17.06 5.184,-4.407 11.146,-6.61 17.886,-6.61 4.05,0 7.76,0.713 11.13,2.139 3.402,1.426 5.93,2.965 7.582,4.617 2.333,2.398 4.261,5.363 5.784,8.894 1.037,2.463 1.555,5.314 1.555,8.554 l 6.1e-4,1.29959 a 2.9270298,2.9270298 134.98645 0 1 -2.92702,2.92841 z m -8.10459,-9.964 c -1.523,-2.851 -3.516,-4.974 -5.978,-6.367 -2.463,-1.426 -5.395,-2.139 -8.797,-2.139 -3.37,0 -6.286,0.713 -8.749,2.139 -2.463,1.393 -4.472,3.516 -6.027,6.367 z m 42.548,-13.41998 V 265.72 c 4.18,-3.013 7.469,-5.022 9.867,-6.027 2.43,-1.004 4.698,-1.507 6.805,-1.507 3.24,0 6.383,1.199 9.429,3.597 2.074,1.62 3.111,3.273 3.111,4.958 0,1.426 -0.502,2.641 -1.507,3.645 -0.972,0.972 -2.155,1.458 -3.548,1.458 -1.231,0 -2.527,-0.616 -3.888,-1.847 -1.361,-1.231 -2.576,-1.847 -3.645,-1.847 -1.393,0 -3.483,0.875 -6.27,2.625 -2.754,1.75 -6.205,4.374 -10.353,7.874 v 15.019 h 14.192 c 2.398,0 4.099,0.47 5.103,1.41 1.037,0.907 1.555,2.106 1.555,3.597 0,1.458 -0.518,2.657 -1.555,3.597 -1.004,0.907 -2.706,1.361 -5.103,1.361 H 229.07 c -2.398,0 -4.115,-0.454 -5.152,-1.361 -1.004,-0.94 -1.507,-2.155 -1.507,-3.645 0,-1.458 0.502,-2.641 1.507,-3.548 1.037,-0.94 2.754,-1.41 5.152,-1.41 H 235 v -24.205 h -3.597 c -2.398,0 -4.115,-0.454 -5.152,-1.361 -1.004,-0.94 -1.507,-2.155 -1.507,-3.645 0,-1.458 0.502,-2.641 1.507,-3.548 1.037,-0.94 2.754,-1.41 5.152,-1.41 l 9.82398,-7.2e-4 a 3.7367412,3.7367412 44.997887 0 1 3.73702,3.73674 z m 71.613,-0.77202 a 3.0821847,3.0821847 137.13896 0 1 3.19507,-2.965 h 8.46993 c 2.398,0 4.099,0.47 5.103,1.41 1.037,0.907 1.555,2.106 1.555,3.597 0,1.458 -0.518,2.657 -1.555,3.597 -1.004,0.907 -2.706,1.361 -5.103,1.361 h -1.701 v 36.258 c 0,3.499 -0.745,6.545 -2.236,9.138 -1.458,2.625 -3.71,4.877 -6.756,6.756 -3.046,1.879 -6.481,2.819 -10.304,2.819 h -11.276 c -2.398,0 -4.115,-0.47 -5.152,-1.41 -1.004,-0.907 -1.507,-2.09 -1.507,-3.548 0,-1.491 0.502,-2.706 1.507,-3.645 1.037,-0.907 2.754,-1.361 5.152,-1.361 h 10.984 c 3.046,0 5.411,-0.826 7.096,-2.479 1.685,-1.653 2.527,-3.742 2.527,-6.27 v -4.86 c -2.203,1.426 -4.455,2.495 -6.756,3.208 -2.268,0.713 -4.601,1.069 -6.999,1.069 -6.772,0 -12.443,-2.252 -17.011,-6.756 -4.569,-4.536 -6.853,-10.126 -6.853,-16.768 0,-6.675 2.284,-12.264 6.853,-16.768 4.569,-4.536 10.239,-6.805 17.011,-6.805 2.527,0 4.925,0.373 7.193,1.118 2.301,0.713 4.488,1.815 6.562,3.305 z m -0.049,19.101 c 0,-3.661 -1.361,-6.837 -4.083,-9.526 -2.689,-2.689 -5.93,-4.034 -9.721,-4.034 -3.791,0 -7.048,1.345 -9.769,4.034 -2.689,2.689 -4.034,5.865 -4.034,9.526 0,3.694 1.345,6.886 4.034,9.575 2.722,2.657 5.978,3.986 9.769,3.986 3.791,0 7.031,-1.329 9.721,-3.986 2.722,-2.689 4.083,-5.881 4.083,-9.575 z m 45.551,21.726 -17.254,-33.828 c -1.62,-0.194 -2.851,-0.745 -3.694,-1.653 -0.843,-0.908 -1.264,-2.009 -1.264,-3.305 0,-1.491 0.502,-2.689 1.507,-3.597 1.037,-0.94 2.754,-1.41 5.152,-1.41 h 9.089 c 2.398,0 4.099,0.47 5.103,1.41 1.037,0.907 1.555,2.106 1.555,3.597 0,1.458 -0.518,2.657 -1.555,3.597 -1.004,0.907 -2.608,1.361 -4.812,1.361 l 11.762,22.892 11.665,-22.892 c -2.139,0 -3.726,-0.454 -4.763,-1.361 -1.004,-0.94 -1.507,-2.155 -1.507,-3.645 0,-1.458 0.502,-2.641 1.507,-3.548 1.037,-0.94 2.754,-1.41 5.152,-1.41 h 9.381 c 2.365,0 4.05,0.47 5.055,1.41 1.037,0.907 1.555,2.106 1.555,3.597 0,1.329 -0.437,2.463 -1.312,3.402 -0.875,0.907 -2.171,1.426 -3.888,1.555 l -22.844,45.007 c 2.495,0 4.131,0.243 4.909,0.729 1.555,1.004 2.333,2.43 2.333,4.277 0,1.458 -0.518,2.641 -1.555,3.548 -1.004,0.94 -2.706,1.41 -5.103,1.41 h -21.726 c -2.398,0 -4.115,-0.47 -5.152,-1.41 -1.004,-0.907 -1.507,-2.09 -1.507,-3.548 0,-1.491 0.502,-2.706 1.507,-3.645 1.037,-0.907 2.754,-1.361 5.152,-1.361 h 9.915 z"
           stroke-width="19.051"
           id="path5"
           style="stroke-linejoin:round"
           sodipodi:nodetypes="cccscsccscsscsccscsccccscsscscccsscsccccscsscccscscscccccccsccccccscscssscccscscsscscsccscscccccscscscscssscscssssccscscscccscscscscsccsscsscscccccscsscsccccscsscscscc"
           inkscape:path-effect="#path-effect3"
           inkscape:original-d="m 119.388,259.499 v 3.354 c 1.815,-1.555 3.807,-2.722 5.978,-3.499 2.203,-0.778 4.585,-1.166 7.145,-1.166 5.897,0 10.563,1.831 13.998,5.492 2.722,2.916 4.083,6.74 4.083,11.47 v 18.518 c 2.106,0 3.661,0.47 4.666,1.41 1.004,0.907 1.507,2.106 1.507,3.597 0,1.458 -0.518,2.657 -1.555,3.597 -1.004,0.907 -2.706,1.361 -5.103,1.361 h -8.992 c -2.398,0 -4.115,-0.454 -5.152,-1.361 -1.004,-0.94 -1.507,-2.155 -1.507,-3.645 0,-1.458 0.502,-2.641 1.507,-3.548 1.004,-0.94 2.56,-1.41 4.666,-1.41 v -18.81 c 0,-2.171 -0.583,-3.759 -1.75,-4.763 -1.523,-1.296 -3.807,-1.944 -6.853,-1.944 -2.301,0 -4.326,0.454 -6.075,1.361 -1.717,0.875 -3.905,2.754 -6.562,5.638 v 18.518 c 2.56,0 4.212,0.243 4.958,0.729 1.588,0.972 2.382,2.398 2.382,4.277 0,1.458 -0.518,2.657 -1.555,3.597 -1.004,0.907 -2.706,1.361 -5.103,1.361 h -11.325 c -2.398,0 -4.115,-0.454 -5.152,-1.361 -1.004,-0.94 -1.507,-2.155 -1.507,-3.645 0,-1.815 0.778,-3.224 2.333,-4.229 0.778,-0.486 2.446,-0.729 5.006,-0.729 v -24.205 c -2.106,0 -3.661,-0.47 -4.666,-1.41 -1.005,-0.94 -1.507,-2.139 -1.507,-3.597 0,-1.458 0.502,-2.641 1.507,-3.548 1.037,-0.94 2.754,-1.41 5.152,-1.41 z m 94.061,27.121 h -40.876 c 1.037,2.592 2.868,4.682 5.492,6.27 2.657,1.588 6.237,2.382 10.741,2.382 3.694,0 8.603,-0.794 14.727,-2.382 2.527,-0.648 4.277,-0.972 5.249,-0.972 1.329,0 2.446,0.47 3.354,1.41 0.908,0.94 1.361,2.122 1.361,3.548 0.016,1.26092 -0.51593,2.46674 -1.458,3.305 -1.296,1.199 -4.455,2.349 -9.478,3.451 -5.022,1.069 -9.85,1.604 -14.484,1.604 -7.971,0 -14.354,-2.252 -19.15,-6.756 -4.763,-4.504 -7.145,-10.045 -7.145,-16.622 0,-6.999 2.576,-12.686 7.728,-17.06 5.184,-4.407 11.146,-6.61 17.886,-6.61 4.05,0 7.76,0.713 11.13,2.139 3.402,1.426 5.93,2.965 7.582,4.617 2.333,2.398 4.261,5.363 5.784,8.894 1.037,2.463 1.555,5.314 1.555,8.554 z m -11.033,-9.964 c -1.523,-2.851 -3.516,-4.974 -5.978,-6.367 -2.463,-1.426 -5.395,-2.139 -8.797,-2.139 -3.37,0 -6.286,0.713 -8.749,2.139 -2.463,1.393 -4.472,3.516 -6.027,6.367 z m 42.548,-17.157 v 6.221 c 4.18,-3.013 7.469,-5.022 9.867,-6.027 2.43,-1.004 4.698,-1.507 6.805,-1.507 3.24,0 6.383,1.199 9.429,3.597 2.074,1.62 3.111,3.273 3.111,4.958 0,1.426 -0.502,2.641 -1.507,3.645 -0.972,0.972 -2.155,1.458 -3.548,1.458 -1.231,0 -2.527,-0.616 -3.888,-1.847 -1.361,-1.231 -2.576,-1.847 -3.645,-1.847 -1.393,0 -3.483,0.875 -6.27,2.625 -2.754,1.75 -6.205,4.374 -10.353,7.874 v 15.019 h 14.192 c 2.398,0 4.099,0.47 5.103,1.41 1.037,0.907 1.555,2.106 1.555,3.597 0,1.458 -0.518,2.657 -1.555,3.597 -1.004,0.907 -2.706,1.361 -5.103,1.361 H 229.07 c -2.398,0 -4.115,-0.454 -5.152,-1.361 -1.004,-0.94 -1.507,-2.155 -1.507,-3.645 0,-1.458 0.502,-2.641 1.507,-3.548 1.037,-0.94 2.754,-1.41 5.152,-1.41 H 235 v -24.205 h -3.597 c -2.398,0 -4.115,-0.454 -5.152,-1.361 -1.004,-0.94 -1.507,-2.155 -1.507,-3.645 0,-1.458 0.502,-2.641 1.507,-3.548 1.037,-0.94 2.754,-1.41 5.152,-1.41 z m 71.613,2.965 v -2.965 h 11.665 c 2.398,0 4.099,0.47 5.103,1.41 1.037,0.907 1.555,2.106 1.555,3.597 0,1.458 -0.518,2.657 -1.555,3.597 -1.004,0.907 -2.706,1.361 -5.103,1.361 h -1.701 v 36.258 c 0,3.499 -0.745,6.545 -2.236,9.138 -1.458,2.625 -3.71,4.877 -6.756,6.756 -3.046,1.879 -6.481,2.819 -10.304,2.819 h -11.276 c -2.398,0 -4.115,-0.47 -5.152,-1.41 -1.004,-0.907 -1.507,-2.09 -1.507,-3.548 0,-1.491 0.502,-2.706 1.507,-3.645 1.037,-0.907 2.754,-1.361 5.152,-1.361 h 10.984 c 3.046,0 5.411,-0.826 7.096,-2.479 1.685,-1.653 2.527,-3.742 2.527,-6.27 v -4.86 c -2.203,1.426 -4.455,2.495 -6.756,3.208 -2.268,0.713 -4.601,1.069 -6.999,1.069 -6.772,0 -12.443,-2.252 -17.011,-6.756 -4.569,-4.536 -6.853,-10.126 -6.853,-16.768 0,-6.675 2.284,-12.264 6.853,-16.768 4.569,-4.536 10.239,-6.805 17.011,-6.805 2.527,0 4.925,0.373 7.193,1.118 2.301,0.713 4.488,1.815 6.562,3.305 z m -0.049,19.101 c 0,-3.661 -1.361,-6.837 -4.083,-9.526 -2.689,-2.689 -5.93,-4.034 -9.721,-4.034 -3.791,0 -7.048,1.345 -9.769,4.034 -2.689,2.689 -4.034,5.865 -4.034,9.526 0,3.694 1.345,6.886 4.034,9.575 2.722,2.657 5.978,3.986 9.769,3.986 3.791,0 7.031,-1.329 9.721,-3.986 2.722,-2.689 4.083,-5.881 4.083,-9.575 z m 45.551,21.726 -17.254,-33.828 c -1.62,-0.194 -2.851,-0.745 -3.694,-1.653 -0.843,-0.908 -1.264,-2.009 -1.264,-3.305 0,-1.491 0.502,-2.689 1.507,-3.597 1.037,-0.94 2.754,-1.41 5.152,-1.41 h 9.089 c 2.398,0 4.099,0.47 5.103,1.41 1.037,0.907 1.555,2.106 1.555,3.597 0,1.458 -0.518,2.657 -1.555,3.597 -1.004,0.907 -2.608,1.361 -4.812,1.361 l 11.762,22.892 11.665,-22.892 c -2.139,0 -3.726,-0.454 -4.763,-1.361 -1.004,-0.94 -1.507,-2.155 -1.507,-3.645 0,-1.458 0.502,-2.641 1.507,-3.548 1.037,-0.94 2.754,-1.41 5.152,-1.41 h 9.381 c 2.365,0 4.05,0.47 5.055,1.41 1.037,0.907 1.555,2.106 1.555,3.597 0,1.329 -0.437,2.463 -1.312,3.402 -0.875,0.907 -2.171,1.426 -3.888,1.555 l -22.844,45.007 c 2.495,0 4.131,0.243 4.909,0.729 1.555,1.004 2.333,2.43 2.333,4.277 0,1.458 -0.518,2.641 -1.555,3.548 -1.004,0.94 -2.706,1.41 -5.103,1.41 h -21.726 c -2.398,0 -4.115,-0.47 -5.152,-1.41 -1.004,-0.907 -1.507,-2.09 -1.507,-3.548 0,-1.491 0.502,-2.706 1.507,-3.645 1.037,-0.907 2.754,-1.361 5.152,-1.361 h 9.915 z" />
        <path
           d="M45.786 276.814v19.801h34.406v-9.466c0-3.245.614-5.548 1.842-6.907 1.272-1.403 2.916-2.105 4.934-2.105 1.974 0 3.574.702 4.802 2.105 1.272 1.36 1.908 3.662 1.908 6.907v18.22a4.73 4.73 0 0 1-4.732 4.732H36.973c-2.614 0-4.713-2.119-4.698-4.732l.026-8.754v-52.76l-.044-8.819c-.007-2.614 2.112-4.73 4.726-4.727l49.003.055a4.74 4.74 0 0 1 4.732 4.738v17.957c0 3.202-.614 5.504-1.842 6.907-1.228 1.36-2.851 2.039-4.868 2.039s-3.662-.68-4.934-2.039c-1.228-1.36-1.842-3.662-1.842-6.907v-9.203H45.786v19.472h11.841c0-3.509.329-5.767.987-6.776 1.36-2.149 3.289-3.223 5.789-3.223 1.974 0 3.574.702 4.802 2.105 1.272 1.36 1.908 3.662 1.908 6.907v15.525c0 2.938-.351 4.912-1.053 5.921-1.403 2.061-3.289 3.092-5.658 3.092-2.5 0-4.43-1.074-5.789-3.223-.658-1.009-.987-3.289-.987-6.842z"
           stroke-opacity="0"
           stroke-width="20.185"
           id="path6" />
      </g>
    </g>
  </g>
</svg>
