<svg xmlns="http://www.w3.org/2000/svg" width="2452.475" height="1048.101" viewBox="0 0 648.884 277.31"><path d="M31.983 0c-3.072.054-7.431.149-12.222 3.465-4.778 3.303-7.065 8.892-7.823 12.791-.744 3.898-.758 7.35-.744 11.708l.095 8.148-.041 57.172c-1.408.799-2.924 1.205-4.196 2.409C2.72 99.74 0 106.277 0 112.07c0 5.766 2.599 12.398 7.052 16.567l.149.149.176.149c5.793 5.062 12.236 5.82 18.326 5.82h77.839c9.623 0 17.717-8.08 17.717-17.704V41.688c1.367-.785 2.869-1.191 4.115-2.355 4.385-4.101 7.052-10.706 7.052-16.486 0-5.834-2.815-12.588-7.431-16.675C119.216 1.029 112.787.244 106.75.244h-.027L78.597.163h-.013L40.821.23c-3.14-.068-5.752-.257-8.825-.189z"/><g fill="#fff"><path d="M42.428 47.64v54.833h10.795c4.284 0 7.454.771 9.253 2.485 1.885 1.628 2.827 3.77 2.827 6.511 0 2.656-.942 4.798-2.827 6.511-1.799 1.628-4.884 2.399-9.253 2.399H25.121c-4.284 0-7.454-.771-9.339-2.399-1.799-1.628-2.742-3.855-2.742-6.597 0-2.57.857-4.712 2.742-6.426 1.799-1.628 4.627-2.485 8.482-2.485V35.559l-.086-8.054c0-16.193 1.971-14.394 15.679-14.137 1.285 0 2.999.942 3.684 2.056l45.066 70.683V31.532H77.812c-4.284 0-7.454-.771-9.339-2.399-1.799-1.628-2.742-3.855-2.742-6.597 0-2.656.857-4.884 2.742-6.511s4.969-2.485 9.339-2.485l28.102.086c4.284 0 7.454.771 9.253 2.399 1.885 1.628 2.827 3.77 2.827 6.511 0 2.656-.857 4.798-2.742 6.511-1.799 1.628-4.627 2.485-8.396 2.485v84.991a4.11 4.11 0 0 1-4.112 4.112h-9.681a7.54 7.54 0 0 1-6.34-3.427z"/><g stroke="#000" paint-order="stroke markers fill"><path stroke-linejoin="round" stroke-width="25.785" d="M249.109 192.841h-55.325q2.105 5.263 7.434 8.486 5.394 3.223 14.539 3.223 7.5 0 19.933-3.223 5.131-1.316 7.105-1.316 2.697 0 4.539 1.908t1.842 4.802q0 2.631-1.974 4.473-2.631 2.434-12.828 4.671-10.197 2.17-19.604 2.171-16.184 0-25.919-9.144-9.67-9.144-9.67-22.499 0-14.21 10.46-23.091 10.526-8.947 24.209-8.947 8.223 0 15.065 2.895 6.908 2.895 10.262 6.25 4.737 4.867 7.828 12.039 2.105 5 2.105 11.578zm-14.933-13.486q-3.091-5.789-8.092-8.618-5-2.895-11.907-2.895-6.842 0-11.841 2.895-5 2.829-8.157 8.618zm56.036-16.991v2.19q8.487-6.118 13.354-8.157 4.933-2.04 9.21-2.039 6.579 0 12.762 4.868 4.21 3.29 4.21 6.71 0 2.894-2.039 4.934-1.973 1.974-4.802 1.974-2.5 0-5.263-2.5t-4.934-2.5q-2.83 0-8.486 3.552-5.592 3.553-14.012 10.657v20.328h19.209q4.868 0 6.907 1.908 2.105 1.842 2.105 4.868 0 2.96-2.105 4.868-2.04 1.842-6.907 1.842H268.7q-4.868 0-6.973-1.842-2.04-1.907-2.039-4.934 0-2.96 2.039-4.802 2.105-1.908 6.973-1.908h8.026V169.62h-4.868q-4.868 0-6.973-1.842-2.04-1.907-2.039-4.934 0-2.96 2.039-4.802 2.105-1.908 6.973-1.908h12.123a6.23 6.23 44.998 0 1 6.231 6.23zm83.745 37.121 14.539-29.866q-5.394 0-6.907-.921-3.29-2.04-3.289-5.855 0-2.96 2.039-4.802 2.105-1.908 6.973-1.908h18.486q4.868 0 6.907 1.908 2.105 1.842 2.105 4.868 0 2.96-2.105 4.868-2.04 1.842-6.907 1.842h-2.237l-19.832 40.647a9.97 9.97 148.004 0 1-8.963 5.6h-1.616a9.97 9.97 31.996 0 1-8.963-5.6l-19.832-40.647h-1.908q-4.868 0-6.973-1.842-2.04-1.907-2.039-4.934 0-2.96 2.039-4.802 2.105-1.908 6.973-1.908h18.091q4.803 0 6.842 1.908 2.105 1.842 2.105 4.868 0 3.75-3.158 5.723-1.58.987-7.039.987zm110.607-12.368q0 7.763-4.342 15.065-4.277 7.237-12.828 11.578-8.486 4.276-17.762 4.276-9.21 0-17.63-4.21-8.421-4.276-12.828-11.578-4.408-7.302-4.408-15.262 0-8.091 4.473-15.854 4.473-7.829 12.828-12.302 8.421-4.473 17.565-4.473 9.21 0 17.696 4.605 8.552 4.54 12.894 12.302 4.342 7.697 4.342 15.854zm-13.486.066q0-6.513-4.671-11.973-6.381-7.368-16.775-7.368-9.144 0-15.262 5.855t-6.118 13.552q0 6.315 6.184 11.841 6.184 5.46 15.196 5.46 9.079 0 15.262-5.46 6.184-5.526 6.184-11.907zm82.262-24.82v40.016q4.277 0 6.315 1.908t2.039 4.868-2.105 4.868q-2.04 1.842-6.907 1.842h-9.736a3.09 3.09 45 0 1-3.092-3.092q-5.789 2.631-11.052 3.947-5.264 1.316-9.999 1.316-6.645 0-11.512-2.763-4.868-2.829-7.697-7.763-2.04-3.552-2.039-8.881v-29.011h-2.302q-4.868 0-6.973-1.842-2.04-1.907-2.039-4.934 0-2.96 2.039-4.802 2.105-1.908 6.973-1.908h9.557a6.23 6.23 45 0 1 6.231 6.23v33.899q0 4.276 2.039 6.315 2.105 1.974 6.381 1.974 4.079 0 8.749-1.579 4.737-1.644 11.644-5.855v-27.498h-4.868q-4.868 0-6.973-1.842-2.04-1.907-2.039-4.934 0-2.96 2.039-4.802 2.105-1.908 6.973-1.908h12.123a6.23 6.23 45 0 1 6.231 6.23zm63.667 9.557a26 26 0 0 0-6.907-3.026q-3.618-1.053-7.565-1.053-7.828 0-12.433 2.566-2.04 1.119-2.039 2.434 0 1.513 2.763 2.96 2.105 1.053 9.407 2.039 13.42 1.842 18.683 3.684 6.907 2.434 10.657 7.236t3.75 10.131q0 7.236-6.381 12.104-9.144 7.04-23.748 7.039-5.854 0-10.855-1.053-4.933-.987-9.078-2.96a7.7 7.7 0 0 1-2.105 1.316 6 6 0 0 1-2.302.46q-3.158 0-5.065-2.039-1.842-2.105-1.842-6.973v-4.539q0-4.868 1.842-6.907 1.908-2.105 4.934-2.105 2.434 0 4.079 1.381 1.644 1.316 2.566 4.605 3.091 2.631 7.434 4.013 4.342 1.316 9.999 1.316 9.276 0 14.407-2.895 2.434-1.448 2.434-3.026 0-2.631-3.487-4.342t-14.407-2.895q-16.25-1.71-21.709-6.579-5.46-4.803-5.46-11.841 0-7.236 6.118-12.039 8.289-6.579 21.709-6.579 4.67 0 8.947.921a36 36 0 0 1 8.289 2.697q1.25-.92 2.302-1.381 1.118-.46 2.039-.46 2.763 0 4.605 2.105 1.842 2.04 1.842 6.907v3.289q0 4.407-1.053 5.986-2.105 3.026-5.723 3.026-2.434 0-4.276-1.513t-2.368-4.013z" transform="matrix(1.023 0 0 .978 -61.96 -98.651)"/><path fill="#000" stroke="none" d="M139.235 126.75c-11.166-.011-20.553 8.954-20.521 19.655l.06 11.74v69.734l-.035 11.512c-.064 10.654 9.304 19.697 20.47 19.697h71.93c11.166 0 20.517-8.942 20.517-19.622v-24.119c0-5.98 1.137-12.686-4.26-18.32l.162-26.804v-23.77c0-10.675-9.34-19.617-20.501-19.63zm54.784 37.49.312.331c-.049-.054-.12-.091-.17-.144-.059-.06-.082-.126-.142-.187m2.528 54.176-.08.11c.02-.026.026-.045.044-.072.01-.013.024-.025.034-.038z"/><path stroke-linejoin="round" stroke-width="19.051" d="M119.388 262.71v.143q2.722-2.333 5.978-3.499 3.305-1.166 7.145-1.166 8.845 0 13.998 5.492 4.083 4.375 4.083 11.47v18.518q3.159 0 4.666 1.41 1.507 1.36 1.507 3.597 0 2.187-1.555 3.597-1.507 1.36-5.103 1.361h-8.992q-3.597 0-5.152-1.361-1.507-1.41-1.507-3.645 0-2.187 1.507-3.548 1.506-1.41 4.666-1.41v-18.81q0-3.257-1.75-4.763-2.284-1.944-6.853-1.944-3.451 0-6.075 1.361-2.576 1.312-6.562 5.638v18.518q3.84 0 4.958.729 2.382 1.458 2.382 4.277 0 2.187-1.555 3.597-1.507 1.36-5.103 1.361h-11.325q-3.597 0-5.152-1.361-1.507-1.41-1.507-3.645 0-2.722 2.333-4.229 1.166-.729 5.006-.729v-24.205q-3.159 0-4.666-1.41t-1.507-3.597 1.507-3.548q1.555-1.41 5.152-1.41h6.265a3.21 3.21 45 0 1 3.211 3.211zm91.133 23.91h-37.948q1.556 3.888 5.492 6.27 3.985 2.382 10.741 2.382 5.541 0 14.727-2.382 3.79-.972 5.249-.972 1.993 0 3.354 1.41 1.362 1.41 1.361 3.548a4.35 4.35 0 0 1-1.458 3.305q-1.944 1.798-9.478 3.451-7.533 1.604-14.484 1.604-11.956 0-19.15-6.756-7.145-6.756-7.145-16.622 0-10.499 7.728-17.06 7.776-6.61 17.886-6.61 6.075 0 11.13 2.139 5.104 2.139 7.582 4.617 3.5 3.597 5.784 8.894 1.555 3.694 1.555 8.554v1.3a2.927 2.927 134.986 0 1-2.926 2.928zm-8.105-9.964q-2.285-4.277-5.978-6.367-3.694-2.139-8.797-2.139-5.055 0-8.749 2.139-3.695 2.09-6.027 6.367zm42.548-13.42v2.484q6.27-4.52 9.867-6.027 3.645-1.507 6.805-1.507 4.86 0 9.429 3.597 3.111 2.43 3.111 4.958 0 2.139-1.507 3.645-1.458 1.458-3.548 1.458-1.846 0-3.888-1.847t-3.645-1.847q-2.09 0-6.27 2.625-4.131 2.625-10.353 7.874v15.019h14.192q3.597 0 5.103 1.41 1.555 1.36 1.555 3.597 0 2.187-1.555 3.597-1.507 1.36-5.103 1.361H229.07q-3.597 0-5.152-1.361-1.507-1.41-1.507-3.645 0-2.187 1.507-3.548 1.555-1.41 5.152-1.41H235v-24.205h-3.597q-3.597 0-5.152-1.361-1.507-1.41-1.507-3.645 0-2.187 1.507-3.548 1.555-1.41 5.152-1.41h9.824a3.737 3.737 44.998 0 1 3.737 3.736zm71.613-.772a3.08 3.08 137.139 0 1 3.195-2.965h8.47q3.597 0 5.103 1.41 1.555 1.36 1.555 3.597 0 2.187-1.555 3.597-1.507 1.36-5.103 1.361h-1.701v36.258q0 5.249-2.236 9.138-2.187 3.938-6.756 6.756t-10.304 2.819h-11.276q-3.597 0-5.152-1.41-1.506-1.36-1.507-3.548 0-2.236 1.507-3.645 1.555-1.36 5.152-1.361h10.984q4.569 0 7.096-2.479t2.527-6.27v-4.86q-3.305 2.139-6.756 3.208a23.2 23.2 0 0 1-6.999 1.069q-10.159 0-17.011-6.756-6.853-6.804-6.853-16.768 0-10.012 6.853-16.768 6.853-6.804 17.011-6.805 3.79 0 7.193 1.118 3.451 1.07 6.562 3.305zm-.049 19.101q0-5.492-4.083-9.526-4.034-4.034-9.721-4.034t-9.769 4.034q-4.034 4.034-4.034 9.526 0 5.541 4.034 9.575 4.083 3.986 9.769 3.986t9.721-3.986q4.083-4.034 4.083-9.575zm45.551 21.726-17.254-33.828q-2.43-.291-3.694-1.653-1.264-1.361-1.264-3.305 0-2.236 1.507-3.597 1.555-1.41 5.152-1.41h9.089q3.597 0 5.103 1.41 1.555 1.36 1.555 3.597 0 2.187-1.555 3.597-1.506 1.36-4.812 1.361l11.762 22.892 11.665-22.892q-3.208 0-4.763-1.361-1.507-1.41-1.507-3.645 0-2.187 1.507-3.548 1.555-1.41 5.152-1.41h9.381q3.548 0 5.055 1.41 1.555 1.36 1.555 3.597 0 1.993-1.312 3.402-1.312 1.361-3.888 1.555l-22.844 45.007q3.742 0 4.909.729 2.333 1.506 2.333 4.277 0 2.187-1.555 3.548-1.507 1.41-5.103 1.41h-21.726q-3.597 0-5.152-1.41-1.506-1.36-1.507-3.548 0-2.236 1.507-3.645 1.555-1.36 5.152-1.361h9.915z" transform="matrix(1.384 0 0 1.324 88.038 -164.745)"/><path stroke="none" d="M151.405 201.668v26.21h47.618v-12.53q0-6.443 2.549-9.142 2.64-2.786 6.828-2.786 4.098 0 6.646 2.786 2.64 2.7 2.641 9.143v24.117a6.546 6.261 0 0 1-6.549 6.264h-71.93c-3.618 0-6.523-2.805-6.502-6.264l.036-11.587V158.04l-.061-11.673c-.01-3.46 2.923-6.261 6.54-6.257l67.82.073a6.56 6.274 0 0 1 6.55 6.271v23.77q0 6.357-2.55 9.142-2.55 2.7-6.737 2.7c-4.187 0-5.068-.901-6.829-2.7q-2.55-2.7-2.55-9.143v-12.181h-43.52v25.774h16.388q0-6.966 1.366-8.969 2.822-4.266 8.012-4.266 4.097.001 6.646 2.786 2.64 2.7 2.64 9.143v20.55q0 5.834-1.457 7.838-2.913 4.092-7.83 4.092-5.19 0-8.013-4.266-1.366-2.002-1.366-9.057z"/></g></g></svg>