<svg xmlns="http://www.w3.org/2000/svg" width="291.005" height="164.999" viewBox="0 0 76.995 43.656" xmlns:v="https://vecta.io/nano"><path d="M.133 21.829V.133h38.365 38.365v21.696 21.696H38.498.133z" fill="#eaf1fa"/><path d="M.139 32.544l.016-10.98h.254.254l-.004-.463-.004-.463-.256.397-.256.397-.004-1.14-.004-1.14.331.199.331.199-.397-.498L0 18.552l.376.226.376.226-.159-.415-.159-.415.494-.447.494-.447.878.188.878.188.331.266.331.266.393-.327.393-.327.601.151.601.151.476.805.476.805-.163.264-.163.264-.315.006-.315.006-.658.505-.658.505.2.2.2.2 1.681-.898 1.681-.898.953 1.011.953 1.011-.249.464-.249.464.167.167.167.167h5.484 5.484l.161-.419.161-.419v-1.186-1.186l.274-.512.274-.512h2.738 2.738l.189-2.268.189-2.268-.161-.161-.161-.161-.863.411-.863.411-1.317-.216-1.317-.216-1.389-.016-1.389-.016-.008-.331-.008-.331-.376-.497-.376-.497-.857.721-.857.721-.338-.462-.338-.462.121-.196.121-.196-.394-.327-.394-.327-.031.363-.031.363.027.185.027.185-1.385-.155-1.385-.155-.59-.692-.59-.692-.171-.989-.171-.989-.694.15-.694.15-.593.287-.593.287-.676-.308-.676-.308h-.511-.511l-.599-1.124-.599-1.124-.283-.774-.283-.774-1.294-.054-1.294-.054-.456.285-.456.285-.945-.509-.945-.509V2.719.133h10.698 10.698l.168.529.168.529-.198.595-.198.595-.018.529-.018.529-.86.083-.86.083v.215.215l.39.324.39.324.621 1.362.621 1.362.255.623.255.623 1.049.365 1.049.365.868.004.868.004.154-.4.154-.4-.333-.401-.333-.401.298-.654.298-.654h-.541-.541l-.578-.303-.578-.303-.251-.424-.251-.424-.153.642-.153.642-.29.097-.29.097-.162-.606-.162-.606.447-.334.447-.334-.614-.43-.614-.43.14-1.043.14-1.043.42-.464.42-.464-.191-.191-.191-.191.428.164.428.164.175-.283.175-.283h23.268 23.268v.31.31l-2.349 2.315-2.349 2.315-.76.087-.76.087v.529.529l.728-.05.728-.05v.079.079l-.773 1.704-.773 1.704-.695.317-.695.317-.847.006-.847.006-1.058.482-1.058.482-.831.702-.831.702-.801-.16-.801-.16-1.345 1.31-1.345 1.31v.535.535l-.728-.13-.728-.13-.397-.317-.397-.317-1.106-.315-1.106-.315-.132-.458-.132-.458.148 2.249.148 2.249.096.108.096.108 2.608-.051 2.608-.051.291.351.291.351.079 1.841.079 1.841 7.007.071 7.007.071.38-.146.38-.146-1.17-.624-1.17-.624-.082-.955-.082-.955h.413.413v-.249-.249l-.265-.164-.265-.164v-.544-.544l.652.427.652.427h.142.142v-.421-.421l.595-.497.595-.497.3-.009.3-.009.138-.528.138-.528 1.195.112 1.195.112.145-.378.145-.378h.509.509l.141-.368.141-.368.879.069.879.069.073 14.454.073 14.454H38.5.123zm33.927 10.54l-.331-.133-.331.133-.331.133h.661.661zm3.969-.018l-1.124-.101-1.124.101-1.124.101h2.249 2.249zm1.698.017l-.176-.176-.176.176-.176.176h.353.353zm1.482.003l-.326-.132-.468.122-.468.122.794.01.794.01zm1.164-.003l-.176-.176-.176.176-.176.176h.353.353zm-8.114-1.014v-.397H34h-.265v.397.397H34h.265zm-2.381-.117v-.249l-.271-.168-.271-.168-.787.173-.787.173v.244.244h1.058 1.058zm12.7.117v-.132h-.132-.132v.132.132h.132.132zm.529-.265v-.132h-.132-.132v.132.132h.132.132zm29.562-19.078l-.16-.16-.347.139-.347.139.507.021.507.021zM.662 21.961v-.132H.53.398v.132.132H.53.662zm75.142-.529v-.132h-.132-.132v.132.132h.132.132zm.794-6.615v-.132h-.132-.132v.132.132h.132.132zM28.389 5.668l.078-.641-.243.359-.243.359-.181-.293-.181-.293h-.265-.265l.21.331.21.331.037.198.037.198.033.154.033.154.331-.109.331-.109zm48.094 6.713l-.181-.474.329.326.329.326-.148.148-.148.148zM66.543 8.07v-.265h.28.28l-.164.265-.164.265h-.117-.117zm1.062-.86l.004-.331.194-.29.194-.29.711-.174.711-.174.151.244.151.244-.7.55-.7.55h-.361-.361z" fill="#d6e6f8"/><path d="M.133 33.086V22.654l.265-.164.265-.164-.004-.315-.004-.315-.256.397-.256.397-.004-.278-.004-.278.3-.3.3-.3-.207-.481-.207-.481-.091-.463-.091-.463h.393.393l.33-.529.33-.529h.565.565l.335.404.335.404.499-.452.499-.452.717.252.717.252.082.428.082.428-.94.581-.94.581v.587.587l-.317.317-.317.317h.302.302l.166-.269.166-.269.254.157.254.157.76-.814.76-.814h.468.468l.478-.433.478-.433.187.499.187.499.48.346.48.346v.25.25h-.529-.529v.28.28l.276-.171.276-.171.39.324.39.324 5.545.133 5.545.133.149-.389.149-.389.187-1.698.187-1.698 2.91-.132 2.91-.132.211-1.455.211-1.455.234-2.646.234-2.646.161-3.043.161-3.043.374-1.455.374-1.455.149-.728.149-.728h2.9 2.9l.131.595.131.595.073.794.073.794 2.051.03 2.051.03v-.74-.74l.258-.679.258-.679h2.78 2.78l.158.728.158.728.36 1.323.36 1.323.162 2.91.162 2.91.213 2.91.213 2.91.196.458.196.458.04.997.04.997 2.91.132 2.91.132.18 1.82.18 1.82.296.296.296.296h7.222 7.222l.372-.309.372-.309 2.089.234 2.089.234.226-.139.226-.139v-.186-.186l-1.786-.518-1.786-.518-1.169-.008-1.169-.008-.097-.292-.097-.292.883-.673.883-.673.69.132.69.132.194.569.194.569.113-.728.113-.728h.512.512v-.249-.249l-.265-.164-.265-.164v-.796-.796l.529.168.529.168v-.578-.578l.595.191.595.191.661.06.661.06.086.877.086.877-.35.222-.35.222.298.004.298.004.047 12.301.047 12.301H38.511L.133 43.518zm34.202 10l-.326-.132-.468.122-.468.122.794.01.794.01zm5.684-.023l-1.786-.093-1.786.093-1.786.093h3.572 3.572zm2.778.021l-.331-.133-.331.133-.331.133h.661.661zm-8.533-1.015v-.661h-.397-.397v.243.243l.161.419.161.419h.236.236zm-2.117-.111v-.255l-.272-.168-.272-.168-1.712.183-1.712.183v.201.201l1.984.038 1.984.038zm10.319-.021v-.265h-.265-.265v.265.265h.265.265zm3.44 0l.397-.256-.992-.004-.992-.004v.265.265l.595-.004.595-.004zm30.347-20.282l.168-.439-.721-.62-.721-.62h-.647-.647l.004.331.004.331.194.28.194.28.654.448.654.448h.346.346zm.344-1.017v-.132h-.132-.132v.132.132h.132.132zm-.132-4.63l.164-.265h.132.132l-.164.265-.164.265h-.132-.132z" fill="#d6c6b4"/><path d="M.133 33.074V22.622h.285.285L.63 21.455.559 20.288l.349-.42.349-.42h.201.201l.145.556.145.556.282-.175.282-.175.021-.58.021-.58.133.331.133.331h.342.342l.329-.397.329-.397h.497.497v.199.199l-.794.749-.794.749v.524.524l-.274.512-.274.512.34.028.34.028.792-.055.792-.055.697-.36.697-.36.156-.407.156-.407h.537.537v.224.224l-.531.48-.531.48.13.13.13.13 3.642.158 3.642.158h3.228 3.228l.276-.277.276-.277.131-1.683.131-1.683.069-.061.069-.061 2.894-.168 2.894-.168.126-.126.126-.126.082-1.257.082-1.257.264-2.91.264-2.91.171-3.44.171-3.44.216-.271.216-.271.183-1.382.183-1.382h2.876 2.876V1.44v1.307l.323.2.323.2 1.815.016 1.815.016.225-.271.225-.271.084-1.185.084-1.185L43.295.19l2.813-.075.182 1.46.182 1.46.246.152.246.152v1.826 1.826l.256 2.59.256 2.59.116 1.852.116 1.852.263.675.263.675-.142.742-.142.742.367.241.367.241 2.381-.021 2.381-.021.293.017.293.017.175 1.885.175 1.885.153.247.153.247 9.036-.034 9.036-.034 1.058-.136 1.058-.136.762-.611.762-.611.038-.624.038-.624-.47-.346-.47-.346v-.499-.499l-.282-.174-.282-.174-.152.152-.152.152.335.403.335.403h-.562-.562V19.4v-.312l.322-.945.322-.945.038-.074.038-.073.698.265.698.265.004.47.004.47.256-.397.256-.397.004.315.004.315-.293.181-.293.181.359.227.359.227-.363.004-.363.004.274.331.274.331.033 11.84.033 11.84H64.287 51.692l-.544-.291-.544-.291.174.282.174.282-25.41.01-25.41.01zm5.556 10.054v-.132h-.132-.132v.132.132h.132.132zm.529 0v-.132h-.132-.132v.132.132h.132.132zm.706-.044l-.176-.176-.176.176-.176.176h.353.353zm35.979-.287l-.002-.463.057-1.058.056-1.058.378.661.378.661.009.435.009.435.414.159.414.159 1.637-.31 1.637-.31-.074-4.781-.074-4.781-.134-.614-.134-.614-.302.101-.302.101-.283.513-.283.513-.159.132-.159.132-.304.578-.304.578v.799.799l.307.674.307.674-.31.68-.31.68-.593-.084-.593-.084-.079-.677-.079-.677.316-.778.316-.778-.058-.794-.058-.794-.444-.985-.444-.985-.223-.007-.223-.007-.138.529-.138.529h-.242-.242l-.152-.397-.152-.397h-.401-.401l.302.363.302.363-.164.427-.164.427.688.262.688.262v.385.385l-.595.085-.595.085.089.529.089.529-.028 1.852-.028 1.852-.086.661-.086.661-.041.992-.041.992h-3.548-3.548l-.19-2.277-.19-2.277.136-1.229.136-1.229-.217-.529-.217-.529-.06.529-.06.529-.045.661-.045.661-.2.862-.2.862-.27-.167-.27-.167.161-2.391.161-2.391.27-.326.27-.326-.595-1.009-.595-1.009-.161.781-.161.781-.323.601-.323.601.167.271.167.271-.272.328-.272.328.245.388.245.388.004 1.124.004 1.124h-.67-.67l-.165-.431-.165-.431.346-1.355.346-1.355.29-.479.29-.479-.44-.327-.44-.327-.089-.751-.089-.751-.848-.065-.848-.065-.135 1.093-.135 1.093-.167 3.53-.167 3.53-.22.766-.22.766.222.137.222.137 1.999.169 1.999.169.272-.716.272-.716.265.164.265.164v.778.778h4.85 4.85zm3.675-1.9l-.152-.246.269-.166.269-.166.265.164.265.164v.249.249h-.381-.381zm-3.805-3.603l-.307-.674v-.12-.12h.397.397v.794.794h-.09-.09zm33.824 5.304v-.132h-.132-.132v.132.132h.132.132zm-20.77-7.805v-.353l-.331-.11-.331-.11v.573.573l.331-.11.331-.11zm-33.734-.1v-.364l-.355-.295-.355-.295-.174.174-.174.174v.485.485h.529.529zm35.366-.606l-.176-.176-.176.176-.176.176h.353.353zm.088-1.147v-.265h-.397-.397v.265.265h.397.397zM34.582 31.83l-.317-.317-.317.317-.317.317h.635.635zm-5.228-1.698l.174-.693-.128-.128-.128-.128-.282.174-.282.174v.646.646h.236.236zm3.579.18l.274-.512.892.145.892.145.153-.248.153-.248-.152-.581-.152-.581-.307.255-.307.255-.427-.063-.427-.063-.424-.352-.424-.352v.694.694h-.236-.236l-.161.421-.161.421.149.241.149.241h.24.24zm11.193.353l.159-.159-.241-.634-.241-.634h.39.39v-.388-.388l-.558-.298-.558-.298-.278.278-.278.278.311.375.311.375-.165.43-.165.43.152.397.152.397h.229.229zm2.107-.293l.5-.452.244.386.244.386.004-.844.004-.844-.242-.15-.242-.15-.134.332-.134.332-.021-.611-.021-.611.265.164.265.164v-.718-.718l-.541.49-.541.49.076.584.076.584-.487.538-.487.538.174.281.174.281h.162.162zm-15.411-.143l-.004-.331-.25-.395-.25-.395-.311.311-.311.311.159.415.159.415h.405.405zm27.918-1.121v-.526l-.397-.069-.397-.069-.369.238-.369.238.17.442.17.442.596-.085.596-.085zm-44.168-.963l.393-.76h-.939-.939l-.268.706-.268.706.304.188.304.188.51-.133.51-.133zm4.728.591l.146-.237-.423-.162-.423-.162.151-.395.151-.395h-.596-.596l.053.728.053.728.022.066.022.066h.646.646zm12.232-.204l-.176-.176v.353.353l.176-.176.176-.176zm27.076-.75v-.397h-.232-.232l-.893.183-.893.183.661.188.661.188.463.026.463.026zm-39.158-.265v-.132h-.132-.132v.132.132h.132.132zm12.171 0v-.132h-.132-.132v.132.132h.132.132zm19.579 0v-.132h-.132-.132v.132.132h.132.132zm-26.065-1.196l-.195-.316-.214.346-.214.346.145.234.145.234.265-.265.265-.265zm6.662.093l-.176-.176v.353.353l.176-.176.176-.176zm2.205-.75v-.132h-.132-.132v.132.132h.132H34zm4.41-1.367l-.176-.176-.176.176-.176.176h.353.353zm-2.69-2.469l-.192-.311-.265.265-.265.265.192.311.192.311.265-.265.265-.265zm-33.823-.176l-.176-.176v.353.353l.176-.176.176-.176zm33.072-2.006l-.133-.331v.661.661l.133-.331.133-.331zm.354-3.638v-.265h-.265-.265v.265.265h.265.265zM42.202.53V.397h-.132-.132V.53.662h.132.132zm1.323 0V.397h-.132-.132V.53.662h.132.132zM.133 22.093v-.353l.176.176.176.176-.176.176-.176.176zm73.201-.441l-.176-.176v-.385-.385l.397.329.397.329v.232.232h-.22-.22zm-2.514-.634l-.617-.247.109-.331.109-.331.611-.089.611-.089.224.354.224.354.004.331.004.331-.331-.017-.331-.017zM.398 19.58v-.132H.53.662v.132.132H.53.398zm73.356-1.117l-.331-.118v-.375-.375h.273.273l.157.408.157.408-.099.085-.099.085zm2.712-1.132l-.164-.265h.28.28v.265.265h-.117-.117zm-.132-1.191v-.132h.132.132v.132.132h-.132-.132z" fill="#c8b6a1"/><path d="M.133 33.259V22.993l.295-.295.295-.295-.101-1.059-.101-1.059.203.126.203.126v-.28-.28h.431.431l-.175 1.323-.175 1.323h.274.274l.004-.728.004-.728.2-.315.2-.315.998-.677.998-.677h.152.152l-.679.89-.679.89.009.499.009.499-.186.595-.186.595h.392.392l1.408-.267 1.408-.267.162.262.162.262 7.156.178 7.156.178.223-.361.223-.361.149-1.731.149-1.731 3.307-.142 3.307-.142.104.069.104.069-.276.337-.276.337-.261 1.72-.261 1.72.105.177.105.177.766-.382.766-.382.008-2.013.008-2.013.274-.274.274-.274.166.507.166.507.104.346.104.346-.406.972-.406.972.429.313.429.313-.086.75-.086.75-.586-.081-.586-.081-.133.61-.133.61-.27 2.381-.27 2.381-.315 5.292-.315 5.292-.019 1.048-.019 1.048 1.942.294 1.942.294.637-.501.637-.501.031.35.031.35-.031.198-.031.198h5.027 5.027v-.514-.514l.265-.164.265-.164v.287.287l.669.254.669.254 1.061-.366 1.061-.366.493.129.493.129.148-.487.148-.487-.109-1.984-.109-1.984-.043-4.101-.043-4.101-.264-.499-.264-.499-.099-2.362-.099-2.362.524.166.524.166v-.531-.531l-.324-.2-.324-.2-.664-.014-.664-.014-.436-.92-.436-.92.14-.364.14-.364-.499.096-.499.096-.487-.487-.487-.487-.376.144-.376.144v-.265-.265l.331-.103.331-.103.992-.165.992-.165v-.253-.253h-1.191-1.191l-.004.331-.004.331-.224-.353-.224-.353-.114.353-.114.353.049 2.45.049 2.45-.4.224-.4.224-.045 2.485-.045 2.485-.462.696-.462.696.406.156.406.156v.377.377l-.419.161-.419.161-2.558-.004-2.558-.004-.606-.162-.606-.162.098-.297.098-.297 1.5-.079 1.5-.079v-.401-.401l-.53.168-.53.168-.168-.437-.168-.437-.228.353-.228.353-.261-.397-.261-.397-.004-1.382-.004-1.382.838-.433.838-.433 1.213.151 1.213.151.746.178.746.178-.186-1.027-.186-1.027-.112-.125-.112-.125h-2.896-2.896v-.47-.47h.646.646l.152-.247.152-.247.151-2.097.151-2.097-.371-.142-.371-.142-.711.136-.711.136-.055.697-.055.697-.011 1.455-.011 1.455h-.378-.378l-.019-2.381-.019-2.381-.848-.082-.848-.082-.88.243-.88.243-.852-.125-.852-.125v-.748-.748l.237-.146.237-.146.163.425.163.425.394-.327.394-.327v-.364-.364h-.563-.563l.182-2.977.182-2.977.219-3.307.219-3.307.329-1.382.329-1.382 2.732.025 2.732.025.078 1.489.078 1.489h2.249 2.249l.228-1.521.228-1.521h2.748 2.748v.785.785l.377 1.134.377 1.134.007 2.646.007 2.646.278 1.425.278 1.425v1.53 1.53l-.154.402-.154.402-.375-.144-.375-.144v.293.293h.656.656l.162.646.162.646-.173.28-.173.28h-.469-.469l-.136.136-.136.136.289.923.289.923h.365.365l-.165-.86-.165-.86.208.322.208.322 3.033.075 3.033.075.173 1.937.173 1.937.18.18.18.18 9.887-.022 9.887-.022 1.019-.706 1.019-.706h.178.178l-.06 10.649-.06 10.649-12.55.069-12.55.069-.208-.333-.208-.333-.52.322-.52.322-22.116-.007-22.116-.007.127-.206.127-.206h-.374-.374l.136.22.136.22H2.929.135zm6.791 9.825l-.176-.176-.176.176-.176.176h.353.353zm69.674-.485v-.132h-.132-.132v.132.132h.132.132zm-49.526-2.336l.084-.707h-.25-.25l-.327.394-.327.393.162.422.162.422.331-.109.331-.109zm49.526.483v-.132h-.132-.132v.132.132h.132.132zm-53.446-1.455l-.397-.256-.214-.004-.214-.004.164.265.164.265.447-.004.447-.004zm4.029-1.786l.06-1.521.034-1.323.034-1.323.199-.463.199-.463-.161-.419-.161-.419-.331.111-.331.111-.066.903-.066.903-.16 2.712-.16 2.712h.424.424zm-5.087-2.948v-.765l-.442-.17-.442-.17-.216.34-.216.34-.004.595-.004.595h.661.661zm2.614.526l.365-.231-.189-1.764-.189-1.764-.296.099-.296.099-.227.878-.227.878.278.278.278.278-.419.463-.419.463.174.281.174.281.315-.004.315-.004zm31.253-.422v-.661h-.529-.529v.243.243l.161.419.161.419h.369.369zm-3.795-.97l-.159-.618-.668-.305-.668-.305.152.702.152.702.293.603.293.603.382-.382.382-.382zm5.682-.062l.205-.768-.262-.489-.262-.489h-.52-.52v.496.496l.168.839.168.839.408-.079.408-.079zm-8.566-.84l-.165-.165-.282.174-.282.174v.438.438l.447-.447.447-.447zm-29.814-.185l-.02-.192v-.545-.545l-.261.161-.261.161.054.651.054.651.226-.076.226-.076zm8.307-3l.186-1.485-.273-.273-.273-.273-.13.634-.13.634-.152 1.124-.152 1.124h.37.37zm25.275 1.221v-.265h-.265-.265v.265.265h.265.265zm-29.501-.529l.164-.265h-.28-.28v.265.265h.117.117zm15.314-.463l-.175-.728-.095-.11-.095-.11v.52.52l-.317.317-.317.317h.587.587zm1.223.463v-.265h-.249-.249l-.164.265-.164.265h.412.412zm18.903-.506l.149-.241.057-.685.057-.685h.419.419l.326-.326.326-.326.154.591.154.591h.112.112l.717-.498.717-.498 1.11.127 1.11.127.116.437.116.437.027-.397.027-.397-.242-.383-.242-.383-4.277.033-4.277.033-.145.145-.145.145.291.351.291.351-.144.552-.144.552.751.273.751.273.58.021.58.021zm-10.335-.699l.158-.411-.262.162-.262.162v.249.249h.104.104zm-33.703-.648l.741-.794h.694.694l.249.654.249.654.67.168.67.168.364-.14.364-.14.121-.826.121-.826-.201-.124-.201-.124-2.996-.054-2.996-.054-1.124.333-1.124.333v.634.634l.728.11.728.11.754.04.754.04zm8.467.397v-.132h-.132-.132v.132.132h.132.132zm39.158 0v-.132h-.132-.132v.132.132h.132.132zm-10.988-.914l.156-.252-.172-.687-.172-.687-.428.082-.428.082-.092.475-.092.475.146.381.146.381h.39.39zm-26.466-.6l.412-.588v-.47-.47h-.535-.535l-.294.645-.294.645.159.414.159.414h.258.258zm44.862.191v-.132h-.132-.132v.132.132h.132.132zm-30.162-.265v-.132h-.132-.132v.132.132h.132.132zm1.682-5.622l.164-.992.003-1.274.003-1.274-.86.083-.86.083.059 1.775.059 1.775-.257.159-.257.159v.249.249h.891.891zm6.124-.068l.165-.266-.425-.163-.425-.163-.147.147-.147.147.174.282.174.282h.233.233zm-8.997-4.496l-.164-.265h-.91-.91v.265.265h1.074 1.074zm-2.911-.528l.163-.263-.314-2.144-.314-2.144-.219.355-.219.355.146.583.146.583-.422.602-.422.602v.691.691l.176.176.176.176h.469.469zm5.811-.231l.157-.494-.271-.712-.271-.712-.283.175-.283.175.139.362.139.362-.253.156-.253.156v.514.514h.511.511zm-4.142-1.819l-.081-1.254-.463-.088-.463-.088v1.188 1.188l.331.133.331.133.213.021.213.021zM39.82 15v-.743l-.356-.488-.356-.488-.146.239-.146.239-.054.794-.054.794.028.198.028.198h.529.529zm4.42.186l-.475-.276.162-.51.162-.51h-.24-.24l-.293.644-.293.644.317.129.317.129.529.013.529.013zm-11.405-1.564l-.022-1.591-.355.136-.355.136h-.215-.215l.015.595.015.595-.203.463-.203.463h.433.433l.152.397.152.397h.194.194zm8.043-.922v-.132h-.132-.132v.132.132h.132.132zm3.969-.661v-.265h-.117-.117l-.164.265-.164.265h.28.28zm-9.516-.937l.339-.408-.262-.262-.262-.262-.441.169-.441.169v.324.324l.176.176.176.176h.188.188zm4.412-1.456l.304-.806-.148-.914-.148-.914h-1.802-1.802l-.16.258-.16.258.289 1.131.289 1.131.111.331.111.331h1.406 1.406zm-8.39-3.163v-.794h-.265-.265v.617.617l.176.176.176.176h.088.088zm1.386-.829l-.245-1.156-.202.99-.202.99.17.443.17.443.278-.278.278-.278zm1.26.961v-.661h-.265-.265v.243.243l-.161.419-.161.419h.425H34zm9.786-.463l-.004-.331-.256-.397-.256-.397-.004.728-.004.728h.265.265zM42.202.53V.397h-.132-.132V.53.662h.132.132zm1.323 0V.397h-.132-.132V.53.662h.132.132zm7.144 42.863v-.132h.132.132v.132.132h-.132-.132zM34.667 41.46l-.18-1.551.087-2.447.087-2.447-.463-.339-.463-.339v-.273-.273l.392-.151.392-.151-.143-.373-.143-.373.436-.167.436-.167.257.159.257.159-.479.376-.479.376.794-.162.794-.162.865-.219.865-.219.832.239.832.239.552-.132.552-.132.786.636.786.636-.347.418-.347.418-.042 3.913-.042 3.913-3.347.074-3.347.074zm-4.103-4.351l.004-.86.231-.365.231-.365.294.182.294.182v1.043 1.043h-.529-.529zm13.754-.015v-.912l.362-.3.362-.3.319.384.319.384-.085.744-.085.744-.595.085-.595.084zm.061-4.197l-.325-.325v-.873-.873h.537.537l.115.331.115.331.076.784.076.784-.402.083-.402.083zm-13.366-.139l-.126-.213-.189-.88-.189-.88.735.086.735.086.018.922.018.922-.438.085-.438.085zm11.454-1.917v-.545h.265.265v.381.381l-.265.164-.265.164zm2.308-3.724l-.147-1.095-.432-.477-.432-.477.409-.409.409-.409-.144-.374-.144-.374.385-.32.385-.32.192.311.192.311-.051 2.149-.051 2.149-.213.214-.213.214zm-13.86-1.651l-.124-.201.167-.527.167-.527h.511.511v-.265-.265l-.331-.004-.331-.004.395-.25.395-.25.211.211.211.211-.171 1.071-.171 1.071-.657-.036-.657-.036zM.133 22.093v-.353l.176.176.176.176-.176.176-.176.176zm6.879-.117v-.412h.265.265v.249.249l-.265.164-.265.164zm24.165-.324l.176-.176.176.176.176.176h-.353-.353zm45.265-.666l.126-.446-.289-.096-.289-.096-.362-1.415-.362-1.415.115-.115.115-.115.551.551.551.551v-.309-.309l.17.17.17.17-.252.337-.252.337.039.265.039.265.209.478.209.478-.307.581-.307.581zm-33.447-.216v-.353l.176.176.176.176-.176.176-.176.176zm27.873-.144l-.157-.408.127-.127.127-.127.414.159.414.159.144.376.144.376h-.529-.529zM.398 19.58v-.132H.53.662v.132.132H.53.398zm76.042-2.29l-.189-.305.305.189.305.189v.117.117h-.117-.117zm-.107-1.15v-.132h.132.132v.132.132h-.132-.132z" fill="#aaa094"/><path d="M.139 33.245L.129 22.979l.169-.169.169-.169.494.265.494.265.529-.283.529-.283v.269.269l.595.146.595.145 1.228-.233 1.228-.233.409.229.409.229 7.094.145 7.094.145-.006 1.432-.006 1.432-.279.279-.279.279-1.362-.292-1.362-.292.059-.31.059-.31-.909-.087-.909-.087.346.417.346.417h-.855-.854l.144-.375.144-.375-.402-.154-.402-.154h-.074-.074l-.976.776-.976.776-.796.175-.796.175-.251.659-.251.659.15.242.15.242h.796.796l.506.271.506.271.911-.381.911-.381.295-.552.295-.552h.528.528l.173.463.173.463.547.397.547.397h.524.524l.094.483.094.483-.386.443-.386.443-.13.726-.13.726.343.285.343.285.53-.284.53-.284.132.214.132.214-.216.957-.216.957.271.271.271.271.755-.151.755-.151v.467.467l.402.294.402.294-.534 1.048-.534 1.048v.188.188l.992.319.992.319.469.41.469.41.283-.283.283-.283-.094-.491-.094-.491-.989-.245-.989-.245v-.846-.846l.165-.827.165-.827h.84.84l.322-.322.322-.322-.032 2.902-.032 2.902.063.265.063.265-.201.86-.201.86h-.364-.364v.275.275l-9.126-.062-9.126-.062.329-.209.329-.209-.611-.004-.611-.004.199.331.199.331-.448-.363-.448-.363v.281.281l-2.637.009-2.637.009zm11.9 9.882v-.132h-.132-.132v.132.132h.132.132zm.529 0v-.132h-.132-.132v.132.132h.132.132zm8.996 0v-.132h-.132-.132v.132.132h.132.132zm.529 0v-.132h-.132-.132v.132.132h.132.132zm1.852 0v-.132h-.132-.132v.132.132h.132.132zM.662 40.482v-.132H.53.398v.132.132H.53.662zm0-2.646v-.132H.53.398v.132.132H.53.662zm8.731-8.716v-.117l-.265-.164-.265-.164v.28.28h.265.265zM.662 27.253v-.132H.53.398v.132.132H.53.662zm3.44-1.058v-.132h-.132-.132v.132.132h.132.132zm4.763 0v-.132h-.132H8.6v.132.132h.132.132zm-2.117-.265v-.132h-.132-.132v.132.132h.132.132zm18.521 17.463v-.132h.132.132v.132.132h-.132-.132zm.636-.249l.046-.281.483-.728.483-.728h.234.234v.497.497l.344.286.344.286 2.037.047 2.037.047v.162.162l-3.144.016-3.144.016zm6.507.116v-.265h.28.28l-.164.265-.164.265h-.117-.117zm.992.089l.331-.133.331.133.331.133h-.661-.661zm2.124-.019l1.131-.102.985.103.985.103-2.117-.002-2.117-.002zm3.322.018l.176-.176.176.176.176.176h-.353-.353zm.904.001l.331-.133.331.133.331.133h-.661-.661zm2.047-.021l1.055-.108.268-.221.268-.221.732.14.732.14.144.233.144.233-2.198-.044-2.198-.044zm3.706-.071l-.127-.205.726-.21.726-.21.661-.017.661-.017.37-.841.37-.841.603-.151.603-.151-.007-1.256-.007-1.256.028-.397.028-.397-.125-1.379-.125-1.379.255-.158.255-.158v.512.512l.338.28.338.28.853-.413.853-.413.378.314.378.314-.14-3.39-.14-3.39-.039-1.706-.039-1.706.661-.156.661-.156.077-.651.077-.651 9.051-.013 9.051-.013 1.202-.193 1.202-.193.705-.653.705-.653h.133.133l.006 10.31.006 10.31-.149.388-.149.388-12.322.012-12.322.012-.608-.656-.608-.656h-.283-.283l.398.608.398.608-.921.062-.921.062v-.282-.282l-.463.237-.463.237-1.26.006-1.26.006zm4.103-.129v-.132h-.132-.132v.132.132h.132.132zm4.498 0v-.132h-.132-.132v.132.132h.132.132zm.794 0v-.132h-.132-.132v.132.132h.132.132zm1.058 0v-.132h-.132-.132v.132.132h.132.132zm6.085 0v-.132h-.132-.132v.132.132h.132.132zm8.378-.044l-.176-.176-.176.176-.176.176h.353.353zm5.909.044v-.132h-.132-.132v.132.132h.132.132zm.265-.529v-.132h-.132-.132v.132.132h.132.132zm-.084-2.034l-.139-.347-.021.507-.021.507.16-.16.16-.16zm-23.124-.91l.472-.166-.174-1.62-.174-1.62-.232-.251-.232-.251-.032.251-.032.251.057 1.54.057 1.54-.488.395-.488.395.397-.149.397-.149zm2.856-4.496l.418-.366h.456.456l.396-.949.396-.949-.307-.931-.307-.931.401-.401.401-.401.294.182.294.182-.149.241-.149.241.295.552.295.552-.281.338-.281.338.167.167.167.167.228-.141.228-.141v-.889-.889l.161-.419.161-.419h.414.414l.485.439.485.439.187-.187.187-.187-.321-.514-.321-.514V29.5v-.273l.637.16.637.16.175-.552.175-.552h.453.453l.468.547.468.547.318-.107.318-.107.006-.638.006-.638h.896.896l.102-.298.102-.298-.474-.215-.474-.215-5.821-.016-5.821-.016-.36-.232-.36-.232-.231.365-.231.365-.004 1.338-.004 1.338.34.466.34.466 1.094-.377 1.094-.377.288.178.288.178-.664.624-.664.624v.88.88h-.397-.397v-.265-.265h-.428-.428l.16.595.16.595.004.878.004.878.595-.181.595-.181zm20.352-4.202v-.132h-.132-.132v.132.132h.132.132zm-6.35-3.44v-.397h-.397-.397v.397.397h.397.397zm-10.583-1.323l.329-.397h-.546-.546l-.141.228-.141.228.169.169.169.169h.188.188zm4.447.112l-.095-.284-.192.02-.192.02h-.397-.397v.265.265h.684.684zm-2.529-.155l-.331-.133-.331.133-.331.133h.661.661zm15.015-2.338v-.132h-.132-.132v.132.132h.132.132zm-41.79 15.06l.029-4.122-.478-.35-.478-.35 1.052-.28 1.052-.28 1.058-.163 1.058-.163 1.699.277 1.699.277.261.261.261.261-.332.4-.332.4.038 3.977.038 3.977h-3.326-3.326zm4.073-2.999l.15-.242-.309-.103-.309-.103-.818.132-.818.132.794.182.794.182.183.031.183.031zm5.823 1.761l-.162-.422.087-.615.087-.615.265.058.265.058.087.702.087.702-.277.277-.277.277zm-13.939-.08l-.149-.149.19-.711.19-.711h.246.246l.083.86.083.86h-.37-.37zm-4.945-4.503l.021-.507.139.347.139.347-.16.16-.16.16zm24.056.022v-.132h.132.132v.132.132h-.132-.132zM44.5 32.77l-.182-.182v-.75-.75h.236.236l.166.66.166.66.015.193.015.193-.235.078-.235.078zm-22.454-.557l-.168-.595h-.686-.686v-.397-.397h.802.802l.145.378.145.378-.092.615-.093.615zm9.043.214v-.249l.265-.164.265-.164v.412.412h-.265-.265zm18.785-.412v-.132h.132.132v.132.132h-.132-.132zm-24.474-.335l-.265-.194-.463-1.001-.463-1.001v-.416-.416l.416.16.416.16.533-.285.533-.285-.17-.678-.17-.678.318-1.243.318-1.243-.221-.77-.221-.77-.149 1.056-.149 1.056-.463.088-.463.088v-1.342-1.342h.67.67l.225-.595.225-.595-.12-.203-.12-.203-.258.159-.258.159-.415-.344-.415-.344h-1.437-1.437l.077-.539.077-.539 2.646-.177 2.646-.177.227.218.227.218-.269.884-.269.884-.028 1.3-.028 1.3-.258.311-.258.311.148.148.148.148-.318 2.077-.318 2.077-.162 1.302-.162 1.302-.265.083-.265.083zm14.773-.503l.176-.176.176.176.176.176h-.353-.353zm9.04-1.411l-.164-.265.166-.269.166-.269.246.152.246.152v.381.381h-.249-.249zm1.323-.265l-.164-.265h.412.412v.265.265h-.249-.249zm-1.455-2.895v-.778l.211-.13.211-.13.332.205.332.205-.321.704-.321.704h-.222-.222zm-26.988-.677v-.397h.265.265v.397.397h-.265-.265zm25.665.132v-.353l.176.176.176.176-.176.176-.176.176zm2.729-.959l-.165-.43-.025-.954-.025-.954.463-.09.463-.09v1.475 1.475h-.273-.273zm-5.639.033v-.132h.132.132v.132.132h-.132-.132zm-13.229-.265v-.132h.132.132v.132.132h-.132-.132zm8.898-1.112l-.186-.186-.718-.044-.718-.044-1.852-.036-1.852-.036.794-.416.794-.416 1.455.167 1.455.167.86.148.86.148v.367.367h-.353-.353zm-18.541-.849l-.155-.251.251-.155.251-.155.155.251.155.251-.251.155-.251.155zm26.841-.552v-.794h.265.265v.794.794h-.265-.265zm4.559.48l.105-.314.314-.105.314-.105v.419.419h-.419-.419zm-16.729-2.165v-1.49h.265.265v.91.91l.246.152.246.152.168-.531.168-.531-.152-.246-.152-.246.781-.389.781-.389.148.148.148.148v1.279 1.279l-.463.003-.463.003-.992.164-.992.164zm2.035-.36l-.122-.468-.01.794-.01.794.132-.326.132-.326zM2.514 21.432v-.397h.265.265v.397.397h-.265-.265zm45.949-.309l-.176-.176v-.75-.75h2.776 2.776l-.09.595-.09.595-1.297.072-1.297.072-.926.257-.926.257-.287.001-.287.001zm28.046-.529l-.176-.176.017-.551.017-.551.254.634.253.634-.094.094-.094.094zm-76.112-.22v-.132H.53.662v.132.132H.53.398zm37.968-2.249l-.529-.227.542-.019.542-.019.319-.319.319-.319.888.06.888.06.33-.397.33-.397.549.294.549.294-.49.358-.49.358-.96-.154-.96-.154-.35.422-.35.422-.298-.019-.298-.019zm-1.505-.181l.347-.139.16.16.16.16-.507-.021-.507-.021zm39.737.048v-.132h.132.132v.132.132h-.132-.132zm-43.248-.643l-.152-.246.263-.162.263-.162 1.064.287 1.064.287v.122.122h-1.175-1.175zm-3.583-.14v-.156l.719-.273.719-.273-.38-.235-.38-.235.195-.195.195-.195.238.247.238.247.088.529.088.529-.86.083-.86.083zm14.111-.054l.176-.176.176.176.176.176h-.353-.353zm-6.24-.547l-1.257-.099v-.25-.25h1.72 1.72v.397.397l-.463-.048-.463-.048zm4.564-.599v-.265h.265.265v.265.265h-.265-.265zm-4.559-1.918l-.114-1.124-.205-.462-.205-.462 1.494.034 1.494.034-.1.296-.1.296h-.638-.638l-.081 1.257-.081 1.257h-.356-.356zm4.294-.611v-.412l.265.164.265.164v.249.249h-.265-.265zM30.56 11.377v-.397h.429.429l-.329.397-.329.397h-.1-.1zm11.438-.875V9.208l-.295-.551-.295-.551v-.246-.246l1.753-.141 1.753-.141.235-.359.235-.359-.156-.529-.156-.529-.067-.679-.067-.679-.185-.3-.185-.299.537-.287.537-.287v-.231-.231l-.536.14-.536.14-.495.629-.495.629h-.132-.132l-.166-.661-.166-.661h-.656-.656v.265.265h.397.397v.48.48l-.942.37-.942.37.121.461.121.461-.308.421-.308.421-2.244-.078-2.244-.078.066-.265.066-.265 2.041-.037 2.041-.037.101-.303.101-.303-.294-.354-.294-.354-1.097-.147-1.097-.147-.84.641-.84.641-.175-.175-.175-.175v-.538-.538l-.314.314-.314.314-.48-.434-.48-.434v-.473-.473l-.282-.175-.282-.175-.145.556-.145.556h-.366-.366V3.44v-.397h-.265-.265v.289.289l-.529.673-.529.673-.004.692-.004.692-.234.369-.234.369-.319-1.538-.319-1.538.318-1.081.318-1.081.22-.429.22-.429-.299-.299-.299-.299.119-.027.119-.027L31.22.249l1.056-.095-.395.25-.395.25.315.004.315.004.181-.293.181-.293.227.359.227.359.004-.331.004-.331h.28.28l-.199.331-.199.331.448-.363L34 .068l.004.363.004.363.194-.277.194-.277.595-.037.595-.037v.248.248h-.268-.268l.172 1.124.172 1.124.226.289.226.289 2.106-.024 2.106-.024.324-.325.324-.325.019-1.301.019-1.301.397.079.397.079.265.067.265.067.513-.222.513-.222.108.323.108.323.422-.342.422-.342-.211.35-.211.35.565-.35.565-.35.223.359.223.359.181-.293.181-.293h.281.281l-.313.377-.313.377.182 1.012.182 1.012.423.483.423.483-.456.795-.456.795v1.534 1.534l-.397.329-.397.329v.761.761h-.344-.344l-.291-.291-.291-.291-.539.171-.539.171-.083.562-.083.562-.3.099-.3.099zM30.736 2.602l-.176-.176v.353.353l.176-.176.176-.176zm2.073-1.147l.164-.265h-.412-.412v.265.265h.249.249zM44.848.53V.397h-.132-.132V.53.662h.132.132zm-5.226 10.805l-.331-.133v-.243-.243h.397.397v.397.397l-.066-.021-.066-.021zm-3.418-.266l.176-.176.176.176.176.176h-.353-.353zm1.499.072v-.104l.388-.149.388-.149.156.253.156.253h-.545-.545zm-4.775-.573l-.342-.412-.786.081-.786.081-.186-.397-.186-.397-.306-.592-.306-.592v-.493-.493l2.051.123 2.051.123.245.228.245.228-.448.495-.448.495.046.504.046.504-.042.463-.042.463h-.232-.232z" fill="#968877"/><path d="M.163 33.182l.008-10.397.179.257.179.257.794-.032.794-.032.293.224.293.224 1.691-.237 1.691-.237.466.411.466.411.857-.261.857-.261 2.514.237 2.514.237 3.619-.116 3.619-.116.163.65.163.65-.279.336-.279.336-1.386-.073-1.386-.073-1.942-.169-1.942-.169-.384.319-.384.319-.306-.306-.306-.306h-1.122-1.122l-.171.276-.171.276.31.374.31.374.771-.154.771-.154v.162.162l-.86.362-.86.362-.304.822-.304.822.359.298.359.298.744-.163.744-.163.524.396.524.396.407.008.407.008.916-.783.916-.783.463-.011.463-.011v.397.397h.501.501l.152.397.152.397h.405.405v.401.401l-.86.524-.86.524.198.034.198.034.331.045.331.045-.077.352-.077.352.452.5.452.5.485-.154.485-.154v1.026 1.026l.397.514.397.514.357-.459.357-.459.154.154.154.154-.135.351-.135.351.565.303.565.303-.558.947-.558.947.118.309.118.309 1.054.316 1.054.316.328.396.328.396h.497.497v.254.254l-.463.93-.463.93-.214.007-.214.007.136-.22.136-.22h-.374-.374l.141.228.141.228-2.468-.036-2.468-.036-.331-.269-.331-.269v.255.255l-1.72.056-1.72.056v-.251-.251l-.985.222-.985.222-.132-.132-.132-.132.389-.275.389-.275-.485.157-.485.157h-.126-.126l.164.265.164.265h-.28-.28v-.258-.258l-.644.245-.644.245-.876-.251L9 42.995h-.084-.084l.164.265.164.265h-.428-.428l.187-.331.187-.331-.346.32-.346.32-.722-.426-.722-.426-1.154.32-1.154.32-2.039.144-2.039.144zm21.401 9.946v-.132h-.132-.132v.132.132h.132.132zm.706-.044l-.176-.176-.176.176-.176.176h.353.353zM.662 40.482v-.132H.53.398v.132.132H.53.662zm0-.529v-.132H.53.398v.132.132H.53.662zm-.088-2.425l-.176-.176v.353.353l.176-.176.176-.176zm.088-1.808v-.132H.53.398v.132.132H.53.662zm8.702-6.914l-.3-.362h-.232H8.6v.485.485l.174.174.174.174.358-.297.358-.297zm-4.336-2.217v-.922l-.596-.085-.596-.085-.179.466-.179.466.312.104.312.104v.527.527l.463-.089.463-.089zm-4.366.665v-.132H.53.398v.132.132H.53.662zm8.731-.381v-.514l.269-.166.269-.166-.152-.246-.152-.246H8.99h-.637l-.307.574-.307.574.481.352.481.352h.346.346zm-2.517-1.506l-.494-.362H6.2h-.182l-.346.417-.346.417.38.235.38.235.033.274.033.274.033.168.033.168.576-.732.576-.732zm-4.45-1.332l-.176-.176v.353.353l.176-.176.176-.176zm2.469 19.359v-.132h.132.132v.132.132h-.132-.132zm1.676-.044l.176-.176.176.176.176.176h-.353-.353zm19.648-.292l.554-.476.152-.388.152-.388.013.397.013.397-.323.397-.323.397-.396.07-.396.07zm.901.151v-.212h1.235 1.235l-.166.166-.166.166-1.069.046-1.069.046zm5.292.052v-.265h.28.28l-.164.265-.164.265h-.117-.117zm2.91.132v-.132h.132.132v.132.132h-.132-.132zm6.35 0v-.132h.132.132v.132.132h-.132-.132zm1.588-.132v-.265h.397.397v.265.265h-.397-.397zm1.058 0v-.353l.176.176.176.176-.176.176-.176.176zm1.48-.04l.106-.172h.927.927v.233.233l-1.033-.061-1.033-.061zm3.283.065v-.24l-.595.13-.595.13.27-.221.27-.221.313-.714.313-.714.699-.458.699-.458.509.318.509.318.987-.673.987-.673.974-.158.974-.158-.153-1.821-.153-1.821h.394.394l.466-.514.466-.514.557-.081.557-.081.162-.661.162-.661.702.049.702.049.174-1.312.174-1.312.246-.152.246-.152.467.423.467.423h.442.442v-.516-.516l.622-.671.622-.671.172.172.172.172v.22.22h-.372-.372l.306.659.306.659.189.002.189.002.283-.529.283-.529h.917.917l-.008-.198-.008-.198-.38-.502-.38-.502.147-.238.147-.238.356.295.356.295.679-.445.679-.445v-.373-.373l-.794-.159-.794-.159v-.496-.496l-1.257-.02-1.257-.02-3.043-.01-3.043-.01-.878.055-.878.055-.142.371-.142.371h-.369-.369v-.265-.265h-.514-.514l-.164.265-.164.265h-.268-.268l.09-.463.09-.463h.525.525l.253-.86.253-.86.805.006.805.006 1.079.249 1.079.249 4.213.15 4.213.15.265.025.265.025.265-.084.265-.084.911.215.911.215.455-.561.455-.561 1.545-.002 1.545-.002 1.215-.593 1.215-.593-.112-.331-.112-.331h.23.23l.058.762.058.762-.558.146-.558.146.175.282.175.282h.381.381v.375.375l-.331.134-.331.134.312.223.312.223v6.548 6.548l-.246-.152-.246-.152v.428.428l.331-.199.331-.199-.397.498-.397.498.331-.199.331-.199v.794.794l-.275.17-.275.17.149-.75.149-.75-.271.62-.271.62.151.244.151.244.246-.152.246-.152v.624.624l-.317.317-.317.317h-2.71-2.71l-.164-.265-.164-.265h-.265-.265l.15.243.15.243-.995-.045-.995-.045-.194-.265-.194-.265-.004.331-.004.331h-.28-.28l.164-.265.164-.265h-.28-.28v.226.226l-2.631-.021-2.631-.021.312-.193.312-.193-.574.043-.574.043.13.21.13.21h-4.763-4.763l-.458-.775-.458-.775-.545-.142-.545-.142-.269.275-.269.275.601.491.601.491-.248.153-.248.153-.134-.332-.134-.332-.021.331-.021.331h-.397-.397zm.529-.157v-.132h-.132-.132v.132.132h.132.132zm3.897-.028l-.16-.16-.347.139-.347.139.507.021.507.021zm1.466-.014l-.326-.132-.468.122-.468.122.794.01.794.01zm.899-.003l-.176-.176-.176.176-.176.176h.353.353zm.882.044v-.132h-.132-.132v.132.132h.132.132zm3.969 0v-.132h-.132-.132v.132.132h.132.132zm15.824-.536l-.148-.148-.181.474-.181.474.329-.326.329-.326zm-22.791-.302l-.176-.176-.176.176-.176.176h.353.353zM76.598 38.1v-.132h-.132-.132v.132.132h.132.132zm0-7.144v-.132h-.132-.132v.132.132h.132.132zm-.794-2.613v-.364l-.373-.31-.373-.31-.179.29-.179.29.147.384.147.384h.405.405zm-5.452-.583l.161-.419v-.651-.651l-.699.648-.699.648.162.421.162.421h.377.377zm2.946-1.912l-.148-.148-.326.329-.326.329.474-.181.474-.181zM30.295 43.127v-.132h.132.132v.132.132h-.132-.132zm.529 0v-.132h.132.132v.132.132h-.132-.132zm1.058 0v-.132h.132.132v.132.132h-.132-.132zm3.137-1.786l-.038-1.654-.074-1.34-.074-1.34.207-.334.207-.334h2.84 2.84l.175.175.175.175.02 2.822.02 2.822-.115.331-.115.331h-3.014-3.014zm4.271-.86v-.366l-.265-.164-.265-.164v.693.693l.265-.164.265-.164zm-1.852-.412v-.514h-.265-.265v.677.677l.265-.164.265-.164zm3.175.148v-.397h-.265-.265v.397.397h.265.265zm-4.851-.309l-.176-.176v.353.353l.176-.176.176-.176zm15.3-.789l-.436-.436.149-.556.149-.556.004-.463.004-.463h.529.529v-.529-.529h.244.244l.187 1.749.187 1.749-.365.231-.365.231-.312.004-.312.004zm-27.052-.281l-.595-.113v-.61-.61l.165-.827.165-.827h.232.232l.008.595.008.595.375-.496.375-.496.166.662.166.662-.087.739-.087.739-.265.049-.265.049zm20.761-1.333l-.106-.198.197-.661.197-.661.026.86.026.86h-.117-.117zm-13.929-.265l.019-.198.227-.529.227-.529.019.728.019.728h-.265-.265zm8.977-1.696l-.661-.272-2.051.163-2.051.163v-.238-.238l.332-.276.332-.276.709-.178.709-.178-.143-.373-.143-.373h1.056 1.056l.145.556.145.556.287-.177.287-.177-.152-.246-.152-.246.611.004.611.004.323.205.323.205-.205.766-.205.766-.25.066-.25.066zm4.763-3.133v-.353l.176.176.176.176-.176.176-.176.176zm9.26-.682v-.641h.794.794v.245.245l-.794.396-.794.396zm4.498.433v-.249l.265-.164.265-.164v.412.412h-.265-.265zm-38.1-5.704v-.132h.132.132v.132.132h-.132-.132zm4.762-2.249v-.635l.317.317.317.317-.317.317-.317.317zm25.665-.132v-.132h.132.132v.132.132h-.132-.132zm-23.945-3.51l-.265-.194-.078-.463-.078-.463h.673.673v.243.243l-.161.419-.161.419-.17-.004-.17-.004zm21.828-.432V19.5l1.521.067 1.521.067v.366.366l-.794.17-.794.17-.728.031-.728.031zm27.958.458l-.176-.176.017-.551.017-.551.254.634.253.634-.094.094-.094.094zm-76.112-.22v-.132H.53.662v.132.132H.53.398zm37.525-7.011l-.156-.926.084-.094.084-.094.217.094.217.094-.146.926-.146.926zm-5.841-3.629l-.728-.11v-.216-.216l.605-.116.605-.116.321.107.321.107v.375.375l-.198-.04-.198-.04zm10.649-.075v-.265h.91.91l.164.265.164.265h-1.074-1.074zM31.552 8.385l-.992-.082v-.249-.249l.992.019.992.019.515.202.515.202-.515.111-.515.111zm10.561.038l-.176-.176v-.22-.22h1.72 1.72v.229.229l-1.228.168-1.228.168h-.316-.316zm-6.35-3.969l-.176-.176v-.331-.331l2.051.016 2.051.016.794-.209.794-.209-.493.556-.493.556-1.653-.154-1.653-.154-.185.299-.185.299h-.337-.337zm-.97-1.162v-.28l.265.164.265.164v.117.117h-.265-.265zm0-1.307v-.353l.176.176.176.176-.176.176-.176.176zM30.031.529V.397h.132.132v.132.132h-.132-.132zm1.191-.132l.164-.265h.132.132l-.164.265-.164.265h-.132-.132zm1.191 0V.044l.176.176.176.176-.176.176-.176.176zm8.996.132V.397h.132.132v.132.132h-.132-.132zm2.734-.044l.176-.176.176.176.176.176h-.353-.353zM33.029.221l.176-.176.176.176.176.176h-.353-.353zm1.235.044V.132h.132.132v.132.132h-.132-.132zm8.731 0V.132h.132.132v.132.132h-.132-.132z" fill="#897065"/><path d="M.166 40.8l.063-2.803.217.134.217.134v-.428-.428l-.246.152-.246.152-.012-5.02-.012-5.02.258-.16.258-.16-.004-.315-.004-.315-.269.397-.269.397.075-2.009.075-2.009.661.05.661.05.162.041.162.041-.129.675-.129.675.761-.179.761-.179.397-.465.397-.465.945-.166.945-.166.183.183.183.183-.715.746-.715.746h-.365-.365l-.519.278-.519.278.383.714.383.714.145.463.145.463h.641.641l.152-.397.152-.397h.509.509l.157-.41.157-.41.511.476.511.476.174.794.174.794.287.592.287.592.393-.326.393-.326 1.322-.048 1.322-.048.778.575.778.575.309-.413.309-.413.898-.513.898-.513.117.331.117.331h.476.476l-.07.728-.07.728-.193.464-.193.464.915.942.915.942.503.08.503.08-.063.498-.063.498.136.602.136.602 1.154.561 1.154.561-.481 1.075-.481 1.075.117.19.117.19.778.171.778.171.674.53.674.53v.36.36l-.527.167-.527.167-.259-.16-.259-.16-.788.408-.788.408-.273.463-.273.463-.21-.317-.21-.317-.376.232-.376.232-.531-.284-.531-.284-.111.332-.111.332-.229-.361-.229-.361-.004.331-.004.331h-1.427-1.427l-.138-.359-.138-.359-.854-.171-.854-.171-.789.393-.789.393-.21-.13-.21-.13-.089.267-.089.267-.926-.266-.926-.266-.088.265-.088.265h-.258-.258l.162-.262.162-.262-.411.158-.411.158v-.293-.293H6.765 5.724l-.68.258-.68.258-2.13.178-2.13.178zm19.546 2.328v-.132h-.132-.132v.132.132h.132.132zM.662 40.482v-.132H.53.398v.132.132H.53.662zm2.117-.545v-.381H2.53h-.249l-.164.265-.164.265.166.269.166.269.246-.152.246-.152zm-1.588-.249v-.397H.955.719l-.152.397-.152.397h.389.389zm16.597-2.938l-.16-.16-.347.139-.347.139.507.021.507.021zM.662 35.719v-.132H.53.398v.132.132H.53.662zm0-4.233v-.132H.53.398v.132.132H.53.662zm0-2.381v-.132H.53.398v.132.132H.53.662zm7.144-.926v-.265h-.117-.117l-.164.265-.164.265h.28.28zM.573 25.202l-.133-.331v.661.661l.133-.331.133-.331zm11.466 18.19v-.132h.132.132v.132.132h-.132-.132zm10.451-.132l.529-.227.198-.019.198-.019v.265.265l-.728-.019-.728-.019zm1.306.061l.164-.164.413-.061.413-.061-.164.164-.164.164-.413.061-.413.061zm2.161-.105l.136-.22h.249.249v.22.22h-.385-.385zm1.163.044v-.353l.176.176.176.176-.176.176-.176.176zm1.72 0l.164-.265h.132.132l-.164.265-.164.265h-.132-.132zm3.572 0v-.265h.28.28l-.164.265-.164.265h-.117-.117zm11.112 0v-.265h.265.265v.265.265h-.265-.265zm2.646 0v-.353l.176.176.176.176-.176.176-.176.176zm.723-.033l.326-.329.148.148.148.148-.474.181-.474.181zm2.187.033v-.353l.176.176.176.176-.176.176-.176.176zm.529 0v-.353l.176.176.176.176-.176.176-.176.176zm.529 0v-.353l.176.176.176.176-.176.176-.176.176zm1.832.198l-.02-.066-.089-.463-.089-.463h.358.358l.164.265.164.265-.346.019-.346.019.529.227.529.227-.595.019-.595.019zm1.343-.066v-.132h.132.132v.132.132h-.132-.132zm1.323-.132l.661-.212-.454-.026-.454-.026-.288-.538-.288-.538-.863.162-.863.162-.321-.387-.321-.387.809-.681.809-.681.984-.163.984-.163.316-.098.316-.098-.156-1.866-.156-1.866h.539.539l.138-.359.138-.359.816-.163.816-.163v-.697-.697l.667.167.667.167.106-.337.106-.337.165-.995.165-.995.499.267.499.267h.553.553l.275-.725.275-.725.451.598.451.598.849-.17.849-.17.303-.365.303-.365h.344.344l.286-.86.286-.86.708-.328.708-.328.44.399.44.399.724-.57.724-.57.9-.055.9-.055.594-.755.594-.755-.08-.609-.08-.609h.312.312l-.142-.371-.142-.371.499-.13.499-.13.445.679.445.679-.302.417-.302.417-.177.377-.177.377-.483.483-.483.483v.381.381l.275.17.275.17-.161.507-.161.507h.538.538l.299-.559.299-.559-.13-.68-.13-.68.28-.613.28-.613h.192.192l.022 2.921.022 2.921-.323-.194-.323-.194.38.468.38.468-.3.185-.3.185.247.39.247.39.004.214.004.214-.264-.163-.264-.163.267.702.267.702-.054 1.931-.054 1.931-.369-.142-.369-.142.096.633.096.633.324-.066.324-.066v.156.156l-.573.464-.573.464.168.438.168.438h.288.288l-.162-.262-.162-.262.245-.437.245-.437.011 1.295.011 1.295-.223-.529-.223-.529-.05.529-.05.529.031.197.031.197-2.712-.033-2.712-.033-.351-.28-.351-.28-.24.38-.24.38-.004-.265-.004-.265-.86.006-.86.006-.372.233-.372.233.189-.305.189-.305-.611.004-.611.004.397.256.397.256-.611.004-.611.004.164-.265.164-.265h-.28-.28v.297.297l-.448-.363-.448-.363.199.331.199.331h-.56-.56l.146-.236.146-.236-.99.23-.99.23-.397-.012-.397-.012.529-.227.529-.227-.743-.019-.743-.019.164.265.164.265h-2.397-2.397l-.004-.331-.004-.331-.281.397-.281.397-.134-.331-.134-.331h-.258-.258l.164.265.164.265-.876-.026-.876-.026zm2.646-.132v-.132h-.132-.132v.132.132h.132.132zm3.44 0v-.132h-.132-.132v.132.132h.132.132zm1.852-3.662v-.354l-.678-.309-.678-.309.19.333.19.333.256.331.256.331h.232.232zm7.144.09v-.265h-.397-.397v.265.265h.397.397zm5.331-.926v-.251l-.284-.095-.284-.095v.441.441l.284-.095.284-.095zm1.46-.838l-.176-.176v.353.353l.176-.176.176-.176zm.088-2.602v-.132h-.132-.132v.132.132h.132.132zm0-4.233v-.132h-.132-.132v.132.132h.132.132zm0-.529v-.132h-.132-.132v.132.132h.132.132zM12.921 43.083l.176-.176.176.176.176.176h-.353-.353zm.904.001l.331-.133.331.133.331.133h-.661-.661zm13.913-.001l.176-.176.176.176.176.176h-.353-.353zm3.087.044v-.132h.132.132v.132.132h-.132-.132zm17.413-.048l.347-.139.16.16.16.16-.507-.021-.507-.021zM36.456 42.8l-1.38-.097.169-.845.169-.845.351-.351.351-.351v-.347-.347l-.494-.129-.494-.129-.03-1.327-.03-1.327.722-.14.722-.14 1.984.12 1.984.119.331.114.331.114v2.884 2.884l-.992.164-.992.164-.661-.046-.661-.046zm4.21-1.809l.11-.945-.303-.415-.303-.415-.161.419-.161.419.153.941.153.941h.201.201zm-1.385.169l.274-.512-.264-.695-.264-.695-.265.164-.265.164v.624.624l.161.419.161.419h.095.095zm-1.766-.957l.056-.76-.463-.096-.463-.096v.659.659l.167.436.167.436.24-.24.24-.24zm2.834-1.839v-.397h-.926-.926v.22.22l.176.176.176.176h.75.75zm-2.91-.102v-.234l-.799.063-.799.063-.171.171-.171.171h.97.97zm12.579 3.163l-.152-.246.294-.182.294-.182.428.428.428.428h-.57-.57zm1.087-2.599l-.124-.2.139-.726.139-.726h.601.601l.117.795.117.795-.131.131-.131.131h-.602-.602zm-26.631-.197v-.132h.132.132v.132.132h-.132-.132zm-.794-.91v-.809h.265.265v.646.646l-.265.164-.265.164zm16.14-2.453l-.661-.259-1.974.141-1.974.141.386-.244.386-.244.595-.004.595-.004.463-.463.463-.463.463.463.463.463h.778.778l.152.246.152.246-.203.12-.203.12zm14.42-3.913l.164-.265h.249.249v.265.265h-.412-.412zM9.189 28.129l.105-.314.314-.105.314-.105v.419.419h-.419-.419zm58.809-1.258l-.794-.413v-.397-.397l-2.778-.1-2.778-.1-1.852-.003-1.852-.003-1.521.171-1.521.171v-.78-.78l.274-.169.274-.169 1.379.416 1.379.416 4.102.091 4.102.091.572.306.572.306.815-.163.815-.163v.943.944l-.198.098-.198.098zm3.043-.265v-.514l-.265-.164-.265-.164v-.22-.22l.7-.176.7-.176.23.23.23.23-.42.843-.42.843h-.245-.245zm-63.393-1.38l-.175-.283.352-.218.352-.218.211.13.211.13v.221.221l-.388.149-.388.149zm9.087-.034l-1.521-.275v-.222-.222h.547.547l.446-.238.446-.238 1.852-.093 1.852-.093v.794.794l-1.323.034-1.323.034zm59.862-.057v-.132h.132.132v.132.132h-.132-.132zm-67.132-.427l.469-.267-.142-.229-.142-.229.552-.175.552-.175.512.463.512.463-.138.138-.138.138-1.253.07-1.253.07zm4.955.015v-.28l.265.164.265.164v.117.117h-.265-.265zm-6.085-.778v-.265h.397.397v.265.265h-.397-.397zm67.998-.809v-.28l.265.164.265.164v.117.117h-.265-.265zm-76.2-.117v-.132h.132.132v.132.132H.265.133zm76.288-.838l.176-.176.176.176.176.176h-.353-.353zm-27.7-1.859l-.169-.169v-.22-.22h.397.397v.249.249l-.228.141-.228.141zm27.703-.225l-.157-.408.131-.131.131-.131.141.54.141.54h-.116-.116zm-49.48-.297l.176-.176.176.176.176.176h-.353-.353zm9.04-15.699l-.164-.265h.428.428l-.164.265-.164.265h-.101-.101zm3.836-.132v-.132h.132.132v.132.132h-.132-.132zM31.089.53V.397h.132.132V.53.662h-.132-.132zm1.323 0V.397h.132.132V.53.662h-.132-.132z" fill="#6f5e58"/><path d="M.166 41.774l.026-1.766.22-.767.22-.767.611-.499.611-.499-.364-.35-.364-.35-.121.331-.121.331H.508.133v-.545-.545l.198.123.198.123.041-.677.041-.677-.204.329-.204.329-.015-3.467-.015-3.467.189.117.189.117.043-.574.043-.574-.249.394-.249.394-.004-.312-.004-.312.416-.416.416-.416h.198.198l.378.847.378.847.743.193.743.193.147-.383.147-.383.301.036.301.036.576-.031.576-.031.414-.414.414-.414.267.165.267.165v.601.601l.595-.021.595-.021.082.576.082.576.374.311.374.311.317-.695.317-.695.285.093.285.093.084.707.084.707h.261.261l.398-.953.398-.953.469.424.469.424h.246.246l.347.555.347.555.156-.156.156-.156.352.292.352.292.428-.164.428-.164-.161-.643-.161-.643.263-.163.263-.163.465.271.465.271-.494.008-.494.008.15.572.15.572-.26.486-.26.486h.702.702l-.138.529-.138.529h.53.53l.725.428.725.428-.039.961-.039.961-.757-.083-.757-.083-.616.155-.616.155v.361.361l.661.433.661.433v-.403-.403h.476.476l.287-.287.287-.287.626.089.626.089-.09.661-.09.661-.704.572-.704.572.174.176.174.176.818-.423.818-.423v.639.639l.992.181.992.181.624.402.624.402-.255.255-.255.255-2.432.095-2.432.095-.658.431-.658.431.16.26.16.26-.218-.049-.218-.049-.441.194-.441.194-.75-.086-.75-.086-.033-.331-.033-.331-.033-.303-.033-.303-1.657.155-1.657.155-.475.182-.475.182.148.385.148.385-.331-.116-.331-.116.077-.431.077-.431-.408.156-.408.156-.004.302-.004.302-.251-.397-.251-.397h-2.35-2.35l-.408.338-.408.338-1.359.11-1.359.11.171-.276.171-.276-.558.299-.558.299zm.942-1.182l.286-.286.533.333.533.333 1.186-.453 1.186-.453.495-.557.495-.557-1.012.185-1.012.185-.343-.284-.343-.284-.626.232-.626.232-.454-.284-.454-.284-.119.122-.119.122-.156.992-.156.992h.21.21zm1.319-3.065l-.176-.176v.353.353l.176-.176.176-.176zm-1.764-.485v-.132H.53.398v.132.132H.53.662zM5.16 35.19v-.132h-.132-.132v.132.132h.132.132zm11.305-1.107l.094-.281-.474-.166-.474-.166-.331-.154-.331-.154v.406.406l.463.269.463.269.248-.074.248-.074zm-12.628.049v-.132h-.132-.132v.132.132h.132.132zM2.25 32.147v-.265h-.265-.265v.265.265h.265.265zm-1.588-.661v-.132H.53.398v.132.132H.53.662zm3.339-.781l.147-.384-.182-.294-.182-.294-.497.449-.497.449.142.229.142.229h.39.39zm-1.548-.36l.105-.314h-.551-.551v.22.22l.182.182.182.182.265-.088.265-.088zM20.506 43.26v-.265h.265.265v.265.265h-.265-.265zm28.575 0v-.353l.176.176.176.176-.176.176-.176.176zm1.058.132v-.132h.132.132v.132.132h-.132-.132zm2.381 0v-.132h.132.132v.132.132h-.132-.132zm3.44-.148v-.28l.265.164.265.164v.117.117h-.265-.265zm1.323.148v-.132h.132.132v.132.132h-.132-.132zm1.538-.047l-.447-.118-.082-.579-.082-.579-1.058-.015-1.058-.015-1.918-.211-1.918-.211v-.306-.306l.535-.334.535-.334 1.251-.163 1.251-.163.476-.244.476-.244-.163-.513-.163-.513h.282.282v-.375-.375l-.279-.093-.279-.093.262-.657.262-.657.017.435.017.435.431.166.431.166-.159-.997-.159-.997.808-.463.808-.463h.372.372l.17-1.064.17-1.064.227-.14.227-.14-.158.411-.158.411.359-.007.359-.007.913-.757.913-.757.609.277.609.277v.591.591l.397.152.397.152v-.438-.438l.595-.874.595-.874.235-.002.235-.002.342.463.342.463.328-.324.328-.324-.26-.602-.26-.602.102-.463.102-.463h.263.263l.488.261.488.261-.133.51-.133.51.526.282.526.282.262-.325.262-.325.188-1.14.188-1.139.57.081.57.081-.089.757-.089.757.341-.114.341-.114.218-.842.218-.842h.248.248l.262.489.262.489-.158 1.885-.158 1.885.335.403.335.403h.37.37l-.136-.595-.136-.595.374-.484.374-.484.583.312.583.312-.169-.273-.169-.273.269-.166.269-.166v.362.362l-.388.514-.388.514-.008.346-.008.346.246-.152.246-.152.191.31.191.31-.314-.194-.314-.194.125.688.125.688-.209-.129-.209-.129-.421.322-.421.322-.175.728-.175.728h.262.262l.138-.529.138-.529h.573.573l-.085.728-.085.728-.926.177-.926.177-.294-.375-.294-.375h-.195-.195l-.781.556-.781.556-.878-.165-.878-.165-.615.498-.615.498.604.323.604.323.637-.598.636-.598v.314.314l1.058-.169 1.058-.169v.535.535l.392.151.392.151-.15.391-.15.391.551.344.551.344.002.532.002.532.38.728.38.728h-1.572-1.572v-.236-.236l-.453-.174-.452-.174-2.921-.126-2.921-.126-.499-.155-.499-.155.158.757.158.757-.144-.331-.144-.331h-.258-.258l.164.265.164.265h-.536-.536l.152-.397.152-.397-.094-.017-.094-.017-1.521-.129-1.521-.129-.031.345-.031.345.031.198.031.198-.992-.031-.992-.031zm1.902-.218v-.132h-.132-.132v.132.132h.132.132zm14.199-1.102l-.176-.176-.176.176-.176.176h.353.353zm-.917-.935l-.309-.309-.195.195-.195.195.382.236.382.236.122-.122.122-.122zm-10.107-.873v-.133l-1.09-1.058-1.09-1.058h-.894-.894v.198.198l.948.756.948.756.706.213.706.213.331.023.331.023zm2.538-.172l.188-.305-.437-.32-.437-.32v-.302-.302h-.331-.331l-.042.727-.042.727.307.195.307.195.315.004.315.004zm3.499-.552l-.085-.593-.437-.083-.437-.083-.971.406-.971.406.167.27.167.27h1.326 1.326zm2.958.063v-.529h-.514-.514l-.164.265-.164.265.164.265.164.265h.514.514zm-14.287-.265v-.265h-.397-.397v.265.265h.397.397zm13.229-3.471v-.265l-.265.164-.265.164v.265.265l.265-.164.265-.164zm-9-2.284l-.004-.198-.231-.365-.231-.365-.307.19-.307.19.31.373.31.373h.232.232zm9.794-.198v-.132h-.132-.132v.132.132h.132.132zm0-1.455v-.265h-.117-.117l-.164.265-.164.265h.28.28zM62.045 43.392v-.132h.132.132v.132.132h-.132-.132zM4.19 43.083l.176-.176.176.176.176.176h-.353-.353zm4.41.044v-.132h.132.132v.132.132h-.132H8.6zm5.38-.044l.176-.176.176.176.176.176h-.353-.353zm8.908.044v-.132h.132.132v.132.132h-.132-.132zm9.525 0v-.132h.132.132v.132.132h-.132-.132zm19.315 0v-.132h.132.132v.132.132h-.132-.132zm6.085 0v-.132h.132.132v.132.132h-.132-.132zm5.821 0v-.132h.132.132v.132.132h-.132-.132zm7.144 0v-.132h.132.132v.132.132h-.132-.132zm-33.933-.582l-.728-.115v-.379-.379h.212.212l.317.317.317.317.286-.286.286-.286.013-1.487.013-1.487h.198.198l.125 1.521.125 1.521.105.391.105.391-.529.037-.529.037zm2.487-.066l.106-.317.192.02.192.02.02.192.02.192-.317.106-.317.106zm37.287-.168l.021-.507.139.347.139.347-.16.16-.16.16zm-.285-3.682v-.132h.132.132v.132.132h-.132-.132zm-76.2-.397v-.353l.176.176.176.176-.176.176-.176.176zm36.512-.48l-1.191-.083-.242-.238-.242-.238.749-.285.749-.285 2.205.179 2.205.179-.001.427-.001.427h-1.521-1.521zm39.795-.09l-.189-.305.305.189.305.189v.117.117h-.117-.117zm-.107-6.971v-.132h.132.132v.132.132h-.132-.132zm.071-1.919l.032-1.126.254.254.254.254-.287.871-.287.871zm-73.746-.945l.154-.615-.348-.278-.348-.278-.846-.118-.846-.118.101.163.101.163-.243.384-.243.384-.004-.716-.004-.716.973-.182.973-.182.747.836.747.836v.525.525h-.534-.534zm73.674-.692v-.249l.262-.162.262-.162-.158.411-.158.411h-.104-.104zm0-.942v-.132h.132.132v.132.132h-.132-.132zM.154 25.378l.021-.507.139.347.139.347-.16.16-.16.16zm.244-.772v-.132H.53.662v.132.132H.53.398zm0-.529v-.132H.53.662v.132.132H.53.398z" fill="#572b2b"/><path d="M1.044 43.284l.148-.24-.571.149-.571.149.189-.306.189-.306H.81h.381v-.223-.223l.992-.26.992-.26 1.123.019 1.123.019.068.261.068.261-1.283.183-1.283.183-.151.151-.151.151.639.023.639.023-.778.232-.778.232-.323-.268-.323-.268-.171.277-.171.277H1.16.895zm14.369.058l-.463-.121.396-.396.396-.396.53.168.53.168v-.252-.252l-1.654-.172-1.654-.172-2.778.135-2.778.135-.917-.201-.917-.201.964-.596.964-.596 1.009-.129 1.009-.129.358-.358.358-.358.703.346.703.346.376.084.376.084.021-.794.021-.794.899-.086.899-.086.636-.417.636-.417.257.257.257.257-.646.952-.646.952.416.16.416.16.82-.248.82-.248 1.251-.15 1.251-.15.271.506.271.506v.414.414l-1.124.006-1.124.006-.557.457-.557.457-.162.463-.162.463-.604-.031-.604-.031zm-.993-2.993v-.265h-.381-.381l-.164.265-.164.265h.545.545zm34.66 3.043v-.132h.132.132v.132.132h-.132-.132zm9.749-.663l-.277-.795-.569-.136-.569-.136-2.328-.095-2.327-.095-.178-.178-.178-.178.389-.246.389-.246.902-.174.902-.174.476.298.476.298.209-.353.209-.353 1.455-.167 1.455-.167.297-.406.297-.406.41.157.41.157.134.349.134.349 1.276.396 1.276.396 1.588-.095 1.588-.095 1.72-.007 1.72-.007 1.09-.01 1.09-.01 1.118.934 1.118.934.306.006.306.006.661.517.661.517-1.654.006-1.654.006v-.397-.397l-.066-.016-.066-.016-2.646-.134-2.646-.134-.926-.282-.926-.282-.298-.236-.298-.236-.127.484-.127.484-1.882-.045-1.882-.045-.471.538-.471.538.331-.193.331-.193v.28.28h-.94-.94zm1.495-.263l-.164-.265h-.381-.381v.265.265h.545.545zm-50.932.661v-.132h.132.132v.132.132h-.132-.132zm4.763 0v-.132h.132.132v.132.132h-.132-.132zm6.35 0v-.132h.132.132v.132.132h-.132-.132zm44.185 0v-.132h.132.132v.132.132h-.132-.132zm.794 0v-.132h.132.132v.132.132h-.132-.132zm11.113-.661v-.353l.176.176.176.176-.176.176-.176.176zm-76.461-.58l-.004-.447.265-.164.265-.164-.004.214-.004.214-.256.397-.256.397zm21.279-.504l-.148-.239.164-.265.164-.265h.878.878l.329.397.329.397-.099.025-.099.025-1.124.083-1.124.083zm53.197.025l-.164-.265h.412.412v.265.265h-.249-.249zm-74.48-.926v-.132h.132.132v.132.132H.265.133zm.265-.926v-.353l.176.176.176.176-.176.176-.176.176zm12.577-1.521l-.203-.595h-.251-.251l-.512.274-.512.274v-.51-.51l.397-.152.397-.152v-.405-.405l.198-.013.198-.013 1.124-.097 1.124-.097v.333.333l-.644.293-.644.293-.11.874-.11.874zm-6.083-.048l-.152-.246.28-.173.28-.173-.162-.51-.162-.51.807-.161.807-.161.303-.365.303-.365h.232.232v.661.661h-.414-.414l-.668.794-.668.794h-.225-.225zm54.89-.547l-.283-.529h-.388-.388v-.397-.397h.255.255l.283.529.283.529h.388.388v-.382-.382l-.794-.469-.794-.469v-.208-.208h.529.529v.397.397l.992.004.992.004.365.231.365.231-.182.294-.182.294h-.671-.671l-.138.529-.138.529h-.357-.357zm-25.4-.016l-1.191-.169 2.712-.04 2.712-.04-.002.198-.002.198-1.519.01-1.519.01zM3.63 36.869l.119-.356.472-.091.472-.091-.119.356-.119.356-.472.091-.472.091zm-3.233-.885v-.132H.53.662v.132.132H.53.398zm69.144-.309l.176-.176.176.176.176.176h-.353-.353zm-58.512-.634l.116-.347.347-.116.347-.116-.116.347-.116.347-.347.116-.347.116zm-3.853-.195l-.131-.212.512-.32.512-.32v.531.531h-.381-.381zm-6.78-.714v-.132H.53.662v.132.132H.53.398zm10.208-.097l-.207-.335.159-.159.159-.159.16.16.16.16-.111.334-.111.334zm-1.308-.432l.152-.397h.104.104v.397.397h-.256-.256zm-8.9-.265v-.132H.53.662v.132.132H.53.398zm-.265-.529v-.132h.132.132v.132.132H.265.133zm8.819-.044l.176-.176.176.176.176.176h-.353-.353zm-1.411-.353v-.265h.28.28l-.164.265-.164.265h-.117-.117zm-7.144-.397v-.132H.53.662v.132.132H.53.398zm-.265-1.323v-.132h.132.132v.132.132H.265.133z" fill="#2e2415"/></svg>