<svg xmlns="http://www.w3.org/2000/svg" xml:space="preserve" width="30" height="50" viewBox="0 0 50.92 65.62"><path fill="#83a300" d="M12.23 41.19c-1.33.42-2 1.44-3.19 2.07-1.29.7-2.95.3-4.19 1.09-2.56 1.64-.66 3.96 1.3 4.78 0 0-3.14 2.24-6.15 1.4.02 3.35 13.37 4.62 9.9 5.45-28.65 6.84 14.47 8.15 28.61 9.18 6.13 1.12 10.14-.14 7.55-.52-1.28-.18-3.06-.52-3.43-2.03-.16-.63.23-1.15.84-1.3 2.95-.78 5.42-.92 7.04-4.24.7-1.45.5-4.78-.58-6.02-.71-.82-2.23-1-2.52-2.2-.6-2.56.91-6.05-1.02-7.97-.88-.88-1.66 2.92-4.53 2.2-1.5-.4-4.06.3-5.55-.04v-.53c1.65-.32 4.11.25 5.25-1.42.78-1.17.45-2.86 1-4.13.4-.9 1.52-1.82 1.2-2.89-.47-1.54-2.95-1.13-3.33-2.68-.36-1.5 1.86-2.55.7-4.17-1.24-1.74-5.65-1.13-6.29-2.78-.53-1.38 1.48-3.86 1.02-5.74-.47-1.94-2.51-2.08-3.17-3.71-.35-.85.04-1.77-.44-2.61-.66-1.18-2.07-1.6-2.59-2.94-1.11-2.9-1.82-6.6-4.26-8.93-1.55-1.5-5.04.65-6.15 2.08-1.28 1.63-.2 3.25-.05 5 .14 1.57-.48 4.16-1.23 5.54-1.12 2.07-4.79 3.72-4.85 6.36-.04 2.16 2.66 2.82 1.87 5.56-.34 1.19-1.7 1.95-1.83 3.18-.1 1.14 1.11 2 .79 3.17-.58 2.08-3.13 3.62-3.27 5.82-.1 1.53 1.1 2.6 1.55 3.97"/><path fill="#647c00" d="M27.75 5.57c-.5.06-.8 1.96-3.24 3.81-3.54 2.7-.55-.55-5.07-2.93l-.36.33q.08.4.12.8.06.6-.02 1.31c1.29 1 2.92 2.93 5.33 3.85 3.49 1.34 1.32.68 6.57-1.62-.56-.47-1.13-.93-1.42-1.68q-.48-1.31-.94-2.74c-.48-.82-.75-1.15-.97-1.13m-4.01 11.34c-.67 0-.55 2.07-2.83 3.96-3.18 2.63-1.72-.06-7.52-2.44l-.04.01q-.2.5-.23 1.05c-.04 1.96 2.17 2.69 2 4.86 1.7-.27 3.55-.79 5-1.28a8 8 0 0 0 1.5-.65c.98.74 2.39 1.8 3.62.04.7-1 1.34-1.24 1.97-1.1-.42-.66-.88-1.93-2.15-3.36-.69-.77-1.06-1.1-1.32-1.1m3.47 4.45c.25.41.5.58.9.4q-.45-.29-.9-.4m.9.4.68.46c1.18.82.16 2.88 5.99 1.45q.07-.66.37-1.43a9 9 0 0 1-3.24-1c-3.24-2.02-1.17-1.71-3.06 0q-.45.4-.74.52m-10.56 5.75c-.35-.05-.8 1.29-3.57 3.64q0 .12-.03.25-.11.4-.3.77a3.4 3.4 0 0 0 3.22-.85c1.96-1.7.12-.36 3.12 1.16 3 1.53 1.22.06 3.05-1.46 1.84-1.53 1.9 1.7 4.28 2.8s.8-3.72 3.18-2.5c2.15 1.1 2.97 1.53 9.93-.58.16-.78.82-1.47.99-2.25l-3.1.39c-2.93.36-5.56-.25-6.78.12s-1.47 1.22-2.63 2.02-2.32-1.16-4.03-2.14-2.14 1.9-2.81.85c-.68-1.04-1.04-1.34-1.23-.85s-1.89.91-2.8-.74c-.24-.4-.36-.61-.49-.63m9.87 9.86c-.72-.05-1.14.6-1.8 1.35-.99 1.1-1.96 1.28-3.43.06s-1.9-1.16-3.73-.25c-1.83.92-3.42.61-4.28-.55-.6-.82-2.13.22-3.12.92.3.6.69 1.18.97 1.8.79-.34 1.52-.64 2.03-.52 1.04.25 2.2 1.53 3.67 1.4 1.46-.11 2.01-1.58 2.87-1.21.86.36 2.2 2.26 4.83.55s1.53-.13 4.7.24c3.18.37 2.33-2.08 1.23-1.4-1.1.67-1.04-.68-2.7-1.84a2.6 2.6 0 0 0-1.24-.55M3.91 45.25c-.96 1.5.62 3.2 2.23 3.88 0 0-2.97 2.11-5.9 1.44 1.06 1.33 3.55 2.7 5.7 1.77 2.8-1.22 3.54 1.23 7.39 1.53s2.26-.18 5.2.74c2.93.91.54-2.51 3.35-1.84s2.88 1.6 4.1.86.85-2.94 3-1.53c2.13 1.4 4.76 1.47 6.4-.55 1.66-2.02-1.21-3.12-.79-2.63.43.5-.91 3-3.97-.43-3.05-3.42-2.8-1.16-5.2 1.17-2.38 2.32-3.6.12-4.76-3.06s-3.91 3.67-5.07 3.97-.3-6.1-2.14-3.85c-1.83 2.26-7.27-.3-7.27-.3zm32.9 9.24c-.62.05 2.83 3.11 3.53 4.4.8 1.46 1.04 2.01-1.71 3.6 0 0 2.53 1.63 5 3.1 2.88-.05 4.18-.7 2.43-.95-1.28-.18-3.06-.52-3.43-2.03-.16-.63.23-1.15.84-1.3 1.03-.28 2-.47 2.91-.76-1-1.02-2.09-1.87-2.74-1.54-1.47.73-4.1-3.3-6.3-4.34a1.4 1.4 0 0 0-.53-.18M5.83 57.55c-.8 0-1.7.16-2.51.35C-9.1 62.63 19.75 64 34.54 64.9c.35-.8.78-1.68 1.26-2.28A17 17 0 0 1 31 58.94c-3-3.42.37 2.14-2.75 3.92s-4.89-1.72-6.17-3.12-1.4 2.63-4.16 3.18c-2.75.55.49-.86-.92-3.43-1.4-2.56-5.37 1.41-8.06 1.78-2.7.36-.67-1.1-1.35-2.94-.2-.57-.9-.77-1.75-.78m29.97 5.08c1.61.8 2.65.86 1.79-.26-.59-.77-1.21-.46-1.79.26"/></svg>