<svg xmlns="http://www.w3.org/2000/svg" xml:space="preserve" width="30" height="50" viewBox="0 0 45.67 72.07"><g paint-order="stroke fill markers"><path fill="#fbfcfe" d="m23.42 0 7.09 18.58.26 11.75 3.71-.95-1.9 6.75 2.85.51-3.8 3.29s3.03 3.54 3.63 3.71a64 64 0 0 1 4.5 2.42l-6.31 1.73s3.97 4.5 7.34 5.7c3.37 1.22-5.44 3.55-5.44 3.55s7.17 3.89 9.85 7-6.91 2.33-8.56 1.56c-1.64-.78-8.03.6-8.03.6l-2.16 5.36s-1.47.86-3.29.34c-1.81-.51-2.68-5.79-4.84-5.18-2.16.6-8.04.43-8.04.43l-.17-3.89L0 63.18l1.64-4.15 6.22-1.9.96-3.63-3.98-1.39 6.22-1.98.87-7.35 2.93-2.6-5.1-1.63 5.36-4.07-1.72-5.18 2.93-3.9 2.08-3.53-1.04-7.61 3.2-2.25z"/><path fill="#dbe8f8" d="m18.09 13.76-.72.5 1.04 7.6-.52.88c1.94 1.26 4.05 2.24 5.4 1.75 2.68-.98-3.3-8.68-5.2-10.73m9.09 15.67c-.61.06-1.94 2.78-3.95 3.64-2.08.88-3.24-1.9-4.64-2.85 0 0-1.84-.85.03 2.6 1.86 3.46 6.6 3.3 8.34 1.77s.85-5.04.27-5.16zm7.93 20.06c-1.89.63-3.84 1.33-6.32 1.45-2.28.11 7.77 1.21 9.89 1.44a26 26 0 0 1-3.57-2.9m-23.98.02-.07.62-6.22 1.98 1.12.4c4.05.32 11.7.85 14.14.4 3.37-.6 3.71-2.67 3.71-2.67zm-5.15 8.2-.71.21c1.52.54 4.94 1.69 6.62 1.76 2.2.1 4.37 4.37 4.37 4.37s-.24-2.23.65-3.64c.88-1.4 3.57-2.07 3.57-2.07l-10.63-.46zM.7 61.4 0 63.18l10.11.08.15 3.24 1.81.67c1.9 0 4.83-.05 6.25-.45.95-.27 1.65.61 2.28 1.72 1.26-.26 2.6-.57 3.49-.82 1.81-.52 3.02-1.21 4.32-1.9.57-.3 1.97-.25 3.48-.1 1.84-.25 3.91-.42 4.75-.02 1.65.77 11.24 1.55 8.56-1.56-.46-.53-1.08-1.1-1.75-1.65-1.94.33-4.76 1.17-4.76 1.17s-10.28.08-11.4-.78-3.12-.78-4.41-.7c-1.3.1-4.15 3.55-4.5 3.81s-5.18-1.55-6.91-2.33S7.84 61.83.7 61.4"/></g></svg>