<svg xmlns="http://www.w3.org/2000/svg" xml:space="preserve" width="25.21" height="25.44" viewBox="0 0 6.67 6.73"><path d="m.64 1.29.39.48.6-.67-.31-.53.54-.57c.65.3.95.75.6 1.53l2.38 2.44c.95-.2 1.24.12 1.83.82-.11.34-.35.52-.6.69l-.7-.42-.49.5-.02.36.25.32-.48.49c-.32-.26-1.1-1-.67-1.74L1.67 2.65c-.65.3-1.2 0-1.67-.79z"/><path fill="#333" d="M.66 4.97c-.01.2-.15.4.02.69l.47.63c.12.1.26.02.34 0l2.3-2.53c.1-.1.15-.21.1-.41l-.21-.32L5.83.88c.17-.02.2-.12.28-.2L5.74.35c-.1.06-.24.17-.23.32L3.57 2.68a1 1 0 0 0-.62.06z"/></svg>