<svg xmlns="http://www.w3.org/2000/svg" xml:space="preserve" width="24.56" height="24" viewBox="0 0 6.5 6.35"><path fill="none" stroke="#fb1717" stroke-linecap="round" stroke-linejoin="round" stroke-width=".495" d="M1.68 4.3c1.79-.35 2.23 1.19 2.6 1.77"/><path fill="none" stroke="#fb1717" stroke-linecap="round" stroke-linejoin="round" stroke-width=".495" d="M6.25 4.52c-1.62-.6-2.98-.3-3.86 1.58"/><path fill="#12cd13" d="m2.16 2.93.26-.2s.22.2.4.4l.47.48c-.2-.93-.38-2-.8-2.73l.22-.61c.65 1.02.63 1.82.9 2.74q.16-.67.25-1.36s.25.18.31.27c-.33 2.57-.5 2.93-.5 2.93-.3-.13-1.51-1.92-1.51-1.92M.7.77l.2.26.2.26-.38.77C.19 3.1.13 4.22.1 4.06-.2 2.1.24 1.69.7.76M.98.45Q1.51 0 2.2 0l-.13.63C1.84.7 1.63.85 1.4 1z"/></svg>