<svg xmlns="http://www.w3.org/2000/svg" xml:space="preserve" width="1200" height="900" viewBox="0 0 160 100"><defs><linearGradient id="b"><stop offset="0" stop-color="#8a8a8a" stop-opacity="0"/><stop offset="1" stop-color="#464242" stop-opacity=".389"/></linearGradient><linearGradient id="a"><stop offset="0" stop-color="#8a8a8a" stop-opacity="0"/><stop offset="1" stop-color="#464242"/></linearGradient><linearGradient id="c" x1="80" x2="79.704" y1="124.42" y2="190" gradientTransform="matrix(.913 0 0 .61 7.191 -16.157)" gradientUnits="userSpaceOnUse" href="#a"/><linearGradient id="d" x1="80" x2="79.704" y1="124.42" y2="190" gradientTransform="matrix(.915 0 0 1.638 7.017 -202.154)" gradientUnits="userSpaceOnUse" href="#b"/></defs><path fill-opacity=".75" d="M-5.728-18.296H162.47v131.062H-5.728z" paint-order="markers fill stroke"/><g paint-order="markers fill stroke"><path fill="#24242d" d="M-3.457 86.395V49.852h21.531v36.543h36.74V57.951h14.223v28.444h25.679V25.753h13.827v60.642h10.864V50.84H144.1v35.556h18.173v25.086H-3.457Z"/><path fill="#ff0" fill-opacity=".247" d="M126.41 54.055v1.397h17.69v-1.397zm2.197 1.962v1.397h15.492v-1.397zM5.582 57.067v1.396h12.492v-1.396zm130.174 1.02v1.397h8.343v-1.397zM7.845 58.97v1.397h10.23V58.97zm.82 1.904v1.397h9.41v-1.397zm49.829.672v1.396h10.543v-1.396zm4.168 1.782v1.397h6.375v-1.397zM54.815 76.82v1.397h3.934V76.82zm0 1.901v1.397h7.652V78.72zm0 1.901v1.397h5.914v-1.397zm0 1.901v1.397h4.823v-1.397z"/><path fill="#8a0000" d="M108.543 27.568c-3.423 2.12-6.11 5.542-6.11 7.026v51.753h1.725V35.065c0-1.06 1.725-3.563 4.385-5.452zm-13.827.024v2.048c2.64 1.886 4.348 4.37 4.348 5.425v51.282h1.724V34.594c0-1.478-2.667-4.88-6.072-7.002"/></g><path fill="url(#c)" d="M.067 59.333h159.788v40.889H.067z" paint-order="markers fill stroke"/><g paint-order="markers fill stroke"><path fill="#2a2a2e" d="M-2.37 94.099h12.642V7.778h38.716v86.32h18.37V40.766h22.123V94.1h32.396V66.444h26.074V94.1h13.827v17.975H-2.37Z"/><path fill="#ff0" fill-opacity=".248" d="M26.888 12.977v2.374h22.1v-2.374zm2.858 3.714v2.375h19.242V16.69zm8.444 3.715v2.375h10.798v-2.375zm29.168 24.127v2.375h9.39v-2.375zm0 4.064v2.374h6.044v-2.374zm0 4.063v2.375h8.202V52.66zm54.519 17.43v2.374h19.702v-2.375zm2.84 3.751v2.375h23.234V73.84zm-48.058 2.527v2.374h12.823v-2.374zm1.474 3.689v2.375h11.349v-2.375zm43.744 6.158v2.375h16.935v-2.375zm0 3.468v2.374h20.718v-2.374z"/></g><path fill="url(#d)" d="M-.119.36h160.067v109.69H-.119z" paint-order="markers fill stroke"/></svg>