<svg xmlns="http://www.w3.org/2000/svg" xml:space="preserve" width="1200" height="900" viewBox="0 0 160 100"><defs><linearGradient id="b" x1="0%" x2="50%" y1="0%" y2="100%"><stop offset="0%" stop-color="#d4b65f"/><stop offset="100%" stop-color="#c6a04e"/></linearGradient><linearGradient id="a" x1="0%" x2="0%" y1="0%" y2="100%"><stop offset="0%" stop-color="#e1ce93"/><stop offset="100%" stop-color="#dac177"/></linearGradient><linearGradient id="c" x1="0%" x2="0%" y1="0%" y2="50%"><stop offset="0%" stop-color="#e1cea300"/><stop offset="100%" stop-color="#e1cea370"/></linearGradient></defs><path fill="url(#a)" d="m-38 110 65-71 33 71z" transform="translate(15.4)"/><path fill="url(#b)" d="m27 39 80 71H47z" transform="translate(15.4)"/><path fill="url(#c)" d="M-10-40h180v50H-10z" transform="translate(0 110)"/><path fill="url(#a)" d="m57 110 48-51 25 51z" transform="translate(15.4)"/><path fill="url(#b)" d="m105 59 57 51h-43z" transform="translate(15.4)"/><path fill="url(#c)" d="M-10-20h180v30H-10z" transform="translate(0 110)"/><path fill="#c7a252" d="M1.87 106.46c-3.27-.13-2.08-5.32-2.08-9.21 0-3.4 0-3.4.35-3.4.19 0 .6-.05.9-.11.32-.06.77-.13 1.03-.16.47-.05.63-.16.74-.5.02-.07.12-.22.22-.33s.27-.4.4-.66c.11-.25.28-.53.37-.63s.3-.46.48-.82c.37-.73.37-.72.14-2.25l-.13-.93c-.03-.25-.09-.6-.13-.76-.24-1.08 0-2.87.48-3.43.1-.12.32-.5.48-.86a12 12 0 0 1 .85-1.52c.09-.09.2-.25.24-.36.05-.12.18-.32.3-.45s.23-.31.26-.4c.03-.08.14-.26.26-.39q.55-.64.57-.75c0-.03.19-.26.42-.5l.69-.8c.48-.65 1.46-1.39 1.84-1.39.07 0 .37-.12.67-.26s.6-.27.66-.27c.05 0 .33-.1.6-.23 1.12-.54 3.33-.91 4.08-.7.14.04.77.1 1.39.14a13 13 0 0 1 2.28.3q1.3.16 1.88.35c.38.12 1.1.67 1.1.84 0 .04.35.78.78 1.65.99 2 1.27 3.1.94 3.63-.2.32-.17.54.13 1.13.14.29.26.58.26.65s.06.26.13.4c.12.28.22.61.37 1.32.07.31.09 1.64.04 2.6-.01.14-.6.69-.79.73a3.7 3.7 0 0 1-1.48.42c-.5.07-.5.07-.55.58-.02.25-.08.55-.13.67s-.1.41-.1.66c0 .24-.05.83-.11 1.3-.27 2.27 0 3.32.87 3.34.28 0 .42.09.56.33.2.37.72.99 1.67 2.01.29.31.32.37.32.68 0 .29.03.38.3.72.64.86.96 1.27 1.17 1.51a5 5 0 0 1 .5.7c.11.08.56.08 1.12 5.28-5.31.74-18.8.39-27.34.13m21.96-10.63c.33-.12.2-.49-.2-.61-.9-.28-1.45-1.6-1.1-2.63.04-.1.1-.7.14-1.33a11 11 0 0 1 .3-2.16c.06-.52.16-.6.9-.7.3-.03.66-.11.79-.18.12-.07.28-.13.34-.13.31 0 .83-.73.72-1.02-.06-.17-.27-.22-1.06-.23-.5 0-.67-.03-.83-.14a1 1 0 0 0-.55-.13q-.36 0-.52-.13a1 1 0 0 0-.26-.14 1 1 0 0 1-.27-.13 1 1 0 0 0-.28-.13c-.34 0-.9-.75-.62-.82.19-.05.55-.28.63-.4.18-.25-.17-.78-.8-1.23-.2-.14-.2-.14-.54.1-.18.13-.38.23-.44.23-.07 0-.23.06-.36.14-.39.2-.72.18-.72-.06 0-.14-.07-.24-.27-.41-.59-.48-.6-.5-.38-.79.25-.34 0-1.14-.4-1.24-.1-.02-.24-.1-.33-.16-.11-.09-.28-.12-.62-.13-.93-.02-1.18-.18-1.12-.73q.05-.62-.56-.9c-.24-.1-.29-.3-.11-.49a1 1 0 0 0 .14-.4 1 1 0 0 1 .12-.38c.04-.06.1-.18.13-.27s.1-.21.15-.27.11-.26.14-.44c.05-.42.21-.6.77-.89 1.08-.53 2.33-1.53 2-1.6l-.65-.14c-.71-.17-3.64-.18-3.93-.02-.11.06-.36.13-.56.15-.2.03-.6.17-.9.31-.29.14-.58.26-.64.26s-.36.12-.66.26-.6.27-.66.27c-.17 0-.75.28-1 .5l-.45.35c-.11.09-.27.26-.36.4-.08.13-.37.47-.64.76s-.54.62-.6.73-.25.37-.43.58c-.19.2-.36.44-.38.53-.03.08-.15.26-.27.39-.11.13-.23.31-.26.4-.02.08-.13.24-.23.35-.17.18-.28.37-.54.9l-.37.77c-.16.33-.36.66-.43.72a1 1 0 0 0-.31.7c0 .11-.05.26-.11.33-.2.2-.27 1.5-.14 2.25.35 2.06.37 2.2.42 2.9.04.66-.22 1.42-.68 1.92-.08.09-.27.4-.42.71s-.33.6-.4.68c-.32.32-.05.45.33.16.18-.14.7-.36.93-.4.13-.03.3-.1.4-.16.63-.4 2.93-.14 3.97.47.28.17.45.2.82.15l.93-.1c.29-.04 1.1-.09 1.82-.12 2.2-.1 2.38-.23 2.28-1.7l-.1-1.71a7 7 0 0 0-.13-1.34c-.09-.2-.08-.22.15-.52.3-.37.34-.88.12-1.16-.14-.19-.03-.58.18-.6.75-.07 1.95.86 2.09 1.61q.08.45.4.45.14 0 .33.26c.18.26.32.33.64.34q.16 0 .25.1c.05.04.17.1.27.13s.3.14.42.26c.13.13.3.25.4.27q.16.06.25.22c.03.09.15.25.26.36.21.23.22.25.12.82-.06.37-.04.46.1.93.1.28.2.67.24.87s.1.4.15.46.11.28.13.5c.02.2.08.43.13.5.06.05.13.19.16.3q.07.19.27.29t.25.26c.05.2.46.6.6.6a1 1 0 0 1 .27.14q.17.13.46.13c.16 0 .29.03.29.07q0 .08.3.2zM13.61 81.86v-.79c.02-.81-.02-.87-.4-.63-.9.6-1.58.52-1.68-.2-.06-.34-.03-.33-.73-.42-1.48-.19-1.82-.26-1.82-.4 0-.18 2.86-1.78 3.2-1.78.06 0 .2-.05.32-.1.43-.23.61-.12.65.36q.1 1.2.62.11c.24-.5.46-.8.96-1.36.35-.4.32-.47-.2-.47-.34 0-.41-.02-.55-.17-.36-.38-.25-.46 1.1-.84.61-.18 1.02-.13.75.09a.3.3 0 0 0-.1.19c0 .14-.58 1.3-.7 1.4-.05.04-.1.17-.1.29 0 .1-.04.32-.1.47a5 5 0 0 0-.19.7c-.04.23-.11.48-.15.56-.04.07-.1.3-.12.5s-.08.43-.13.52c-.04.09-.1.3-.12.46-.18 1.19-.47 2.07-.51 1.5m5.43 8.25c.34-.18.32-.7-.03-.7a.4.4 0 0 1-.24-.1 3 3 0 0 0-.63-.37c-.3-.14-.6-.32-.66-.4-.42-.45-1.15-.6-1.15-.22 0 1.3 1.61 2.36 2.7 1.79m4.25-9.86c.13-.1.26-.24.29-.33a.5.5 0 0 1 .23-.27c.64-.33.11-1.81-.64-1.81-.11 0-.3-.06-.44-.13-.34-.19-.4-.18-.75.13q-.3.26-.49.26-.86 0-.57.48c.11.19.11.2-.02.34-.3.32.06.65.56.51.23-.06.24-.05.74.46.57.59.7.63 1.09.36m-1.5-1.02q.04-.06.07-.07.02 0-.01.07l-.07.06q-.03 0 0-.06"/><path fill="#b39248" d="M23.49 95.83q-.13-.07-.15-.13c0-.04-.13-.07-.29-.07a.7.7 0 0 1-.46-.13 1 1 0 0 0-.27-.13c-.14 0-.55-.41-.6-.6q-.06-.17-.25-.27a.5.5 0 0 1-.27-.3c-.03-.1-.1-.24-.16-.3a1 1 0 0 1-.13-.5 1 1 0 0 0-.13-.49 1 1 0 0 1-.15-.46c-.03-.2-.14-.59-.23-.87-.15-.47-.17-.56-.1-.93.09-.57.08-.6-.13-.82-.11-.1-.23-.27-.26-.36a.4.4 0 0 0-.24-.22 1 1 0 0 1-.41-.27 1 1 0 0 0-.42-.26 1 1 0 0 1-.27-.14q-.08-.09-.25-.1c-.32 0-.46-.07-.64-.33q-.18-.26-.33-.26-.32 0-.4-.45c-.14-.75-1.34-1.68-2.1-1.6-.2.01-.31.4-.17.59.22.28.17.79-.12 1.16-.23.3-.24.32-.15.52.05.13.1.67.14 1.34.03.62.07 1.39.1 1.72.1 1.46-.08 1.59-2.3 1.69a38 38 0 0 0-2.74.22c-.37.05-.54.02-.82-.15-1.04-.61-3.34-.88-3.97-.47-.1.06-.27.13-.4.15-.24.05-.75.27-.93.4-.38.3-.65.17-.33-.15.07-.07.25-.38.4-.68s.34-.62.42-.71c.46-.5.72-1.26.68-1.92-.05-.7-.07-.84-.42-2.9-.13-.76-.05-2.04.14-2.25a.6.6 0 0 0 .1-.34c0-.24.13-.51.32-.69.07-.06.27-.39.43-.72l.37-.78c.26-.52.37-.71.54-.89.1-.1.2-.27.23-.35.03-.09.15-.27.26-.4s.24-.31.27-.4c.02-.08.2-.31.38-.52s.37-.47.43-.58.33-.44.6-.73.56-.63.64-.76c.09-.14.25-.31.36-.4l.44-.35c.26-.22.84-.5 1.01-.5.06 0 .36-.12.66-.27.3-.14.6-.26.66-.26s.35-.12.64-.26.7-.28.9-.3c.2-.03.45-.1.56-.16.3-.16 3.22-.15 3.93.02l.65.14c.33.07-.92 1.07-2 1.6-.56.28-.72.47-.77.9-.03.17-.1.36-.14.43a1 1 0 0 0-.15.27 1 1 0 0 1-.13.27 1 1 0 0 0-.12.38 1 1 0 0 1-.14.4c-.18.2-.13.4.11.5q.61.27.56.89c-.06.55.19.71 1.12.73.34 0 .5.04.62.13.09.07.24.14.33.16.4.1.65.9.4 1.24-.21.3-.2.3.38.79.2.17.27.27.27.41 0 .24.33.26.72.06.13-.08.3-.14.36-.14s.26-.1.44-.23c.33-.24.33-.24.54-.1.63.45.98.98.8 1.23a2 2 0 0 1-.63.4c-.29.07.28.82.62.82a1 1 0 0 1 .28.13q.16.12.27.13a1 1 0 0 1 .26.14q.16.14.52.13.36 0 .55.13c.16.1.32.13.83.14.8.01 1 .06 1.06.23.11.3-.4 1.02-.72 1.02-.06 0-.22.06-.34.13s-.48.15-.78.19c-.75.09-.85.17-.9.69a10.78 10.78 0 0 0-.3 2.16c-.05.63-.11 1.23-.15 1.33-.35 1.02.2 2.35 1.1 2.63.29.09.37.17.37.4 0 .12-.24.3-.35.27zm.3-.29c-.04-.09-.32-.14-.32-.06q0 .06.07.13c.1.1.28.04.24-.07m-.48-.18c.02-.04-.15-.26-.4-.51-.52-.5-.6-.97-.44-2.46l.14-1.42c.2-2.28.33-2.57 1.22-2.64.29-.02.59-.08.67-.13s.26-.13.4-.17c.82-.22.83-.93.02-.93a7 7 0 0 1-3.74-1.33c-.23-.22-.4-.32-.6-.35-.58-.1-.53-.37.07-.37.52 0 1.1-.25 1.1-.49 0-.25-.85-.88-.96-.7-.3.49-2.07.73-2 .27.05-.24.03-.26-.25-.48-.45-.33-.5-.46-.35-.87.26-.68-.2-1.23-1.03-1.24-.75 0-1.4-.4-1.44-.88-.02-.21-.05-.28-.15-.3-.5-.09-.78-.74-.5-1.18.1-.18.2-.4.2-.49s.1-.37.24-.62c.13-.26.26-.6.3-.76s.11-.45.18-.63c.27-.7.29-1.29.04-1.29q-.16-.01-.3.43c-.03.15-.2.49-.35.76-.16.27-.33.66-.38.86s-.12.45-.16.56-.1.34-.13.52-.08.41-.13.53c-.05.11-.11.35-.13.53-.03.17-.1.42-.15.55s-.12.5-.14.83a2 2 0 0 1-.33 1.16c-.3.58-.3.58-.22 1.06.07.45.06.51-.06.7-.14.23-.18.44-.08.44.03 0 .17.08.3.17.56.37 1.52.56 1.97.38.27-.1.27-.1.02-.24-.35-.2-.35-.27.06-.57.2-.15.38-.3.4-.33q.13-.19.52.16.25.22.43.23c.47 0 .34.35-.16.43q-1.14.18.09.4c1.34.26 2.55 1.48 1.46 1.49-.22 0-1.03-.36-1.2-.54l-.12-.06c-.08 0-.07.32.01.37.1.06.08.67-.03.9q-.2.38.16.5c.1.04.3.2.43.37q.26.31.41.3c.22 0 .96.37 1.19.58.1.1.26.2.35.23.17.07.47.42.69.83.08.15.14.47.18 1.06a5 5 0 0 0 .27 1.77c.06.11.12.32.15.47.05.39.34 1 .5 1.1.08.05.25.24.37.43.32.5 1.22.89 1.39.61M5.66 90.5c.16-.05.34-.12.4-.16s.3-.1.54-.16c.56-.12 1.5-.4 1.99-.6.13-.06.42-.14.66-.2.24-.04.52-.13.63-.19s.26-.1.34-.1.34-.1.6-.23c.24-.12.55-.25.67-.27s.42-.15.66-.27c.24-.11.55-.25.68-.29.28-.1.32-.2.36-.93.02-.5.08-.61.22-.43.27.32.87.08.87-.35 0-1.4-1.33-2.3-2.81-1.92a8 8 0 0 1-1.23.15c-1.54.08-2.95.24-3.35.39-.71.26-1.63.16-2.04-.22-.48-.45-.7.72-.43 2.38l.2 1.32c.22 1.72.28 1.95.56 2.1.17.1.15.1.48-.02m8.3-9.27.16-.88c.02-.16.08-.37.12-.46.05-.1.1-.33.13-.53s.08-.42.12-.5c.04-.07.1-.32.15-.56s.13-.55.19-.7.1-.35.1-.46.05-.25.1-.3c.12-.1.7-1.25.7-1.4 0-.05.05-.14.1-.18.27-.22-.14-.27-.75-.1-1.35.39-1.46.47-1.1.85.14.15.21.17.55.17.52 0 .55.07.2.47-.5.56-.72.86-.96 1.36q-.52 1.08-.62-.1c-.04-.5-.22-.6-.65-.37a1 1 0 0 1-.32.1c-.34 0-3.2 1.6-3.2 1.79 0 .13.34.2 1.82.4.7.08.67.07.73.42.1.7.79.79 1.69.2.37-.25.4-.2.4.62-.02.94-.03.89.12.8.09-.04.15-.21.23-.64m4.02 8.98c-.9-.16-1.65-1.02-1.65-1.9 0-.37.73-.22 1.15.24.06.07.36.25.66.39s.58.3.63.37c.05.06.16.1.24.1.19 0 .32.22.26.44-.07.3-.68.47-1.3.36m4.22-10.32c-.5-.51-.51-.52-.74-.46-.5.14-.86-.19-.56-.5.13-.15.13-.16.02-.35q-.3-.49.57-.48.19 0 .5-.26c.34-.3.4-.32.74-.13.13.07.33.13.44.13.75 0 1.28 1.48.64 1.81a.5.5 0 0 0-.23.27c-.05.2-.48.5-.7.5-.12 0-.32-.16-.68-.53m.95.18c.06-.05.19-.2.28-.36s.25-.33.34-.39c.33-.22-.11-1.21-.54-1.22a1 1 0 0 1-.25-.1c-.2-.15-.67-.12-.83.05-.08.08-.28.2-.45.25-.3.1-.31.12-.33.35q-.03.24-.15.31c-.2.1-.17.33.04.33q.17 0 .28-.2.18-.34.5-.2.34.15.18.42c-.18.29.66.98.93.76m-1.3-.84q.04-.06 0-.07l-.07.07q-.03.05 0 .06z"/><path fill="#916d1d" d="M23.54 95.61q-.06-.07-.07-.13c0-.08.28-.03.31.06.04.1-.15.16-.24.07m-1.08-.35a1.3 1.3 0 0 1-.54-.5 2 2 0 0 0-.36-.44c-.17-.1-.46-.71-.51-1.1a2 2 0 0 0-.15-.47 5 5 0 0 1-.27-1.77c-.04-.6-.1-.9-.18-1.06-.22-.41-.52-.76-.69-.83a1 1 0 0 1-.35-.23 3 3 0 0 0-1.19-.57q-.15 0-.4-.3a1.4 1.4 0 0 0-.44-.37q-.36-.14-.16-.51c.11-.23.14-.84.03-.9-.08-.05-.09-.37-.01-.37q.05 0 .12.06c.17.18.98.54 1.2.54 1.09 0-.12-1.23-1.46-1.5q-1.23-.21-.1-.39c.5-.08.64-.42.17-.43q-.17-.01-.43-.23-.39-.35-.51-.16c-.03.03-.2.18-.4.33-.42.3-.42.37-.07.57.25.14.25.14-.02.24-.45.18-1.41 0-1.96-.38-.14-.1-.28-.17-.3-.17-.1 0-.07-.2.07-.43.12-.2.13-.26.06-.7-.07-.5-.07-.5.22-1.07.26-.5.3-.62.33-1.16.02-.32.09-.7.14-.83s.12-.38.15-.55.08-.42.13-.53.1-.36.13-.53.08-.4.13-.52c.04-.1.12-.36.16-.56s.22-.59.38-.86.32-.61.36-.76q.11-.44.3-.43c.24 0 .22.58-.05 1.29-.07.18-.15.47-.18.63-.04.16-.17.5-.3.76a2 2 0 0 0-.24.62c0 .09-.1.3-.2.49-.28.44 0 1.1.5 1.18.1.02.13.09.15.3.03.47.69.87 1.44.88.83 0 1.29.56 1.03 1.24-.15.4-.1.54.35.87.28.22.3.24.26.48-.08.46 1.69.22 2-.27.1-.18.95.45.95.7s-.58.49-1.1.49c-.6 0-.65.27-.06.37q.25.03.6.35c.69.65 2.6 1.33 3.73 1.33.8 0 .8.71-.02.93-.14.04-.32.11-.4.17-.08.05-.38.1-.67.13-.89.07-1.02.36-1.22 2.64l-.14 1.42c-.16 1.49-.08 1.97.43 2.46.6.58.36.8-.44.4m.52-.1q.03-.1-.28-.38c-.35-.31-.44-1.67-.23-3.38l.14-1.42c.12-1.4.35-1.76 1.11-1.76.32 0 .52-.03.7-.13.13-.07.3-.13.38-.13.47 0 .51-.44.04-.48-.19-.02-.57-.1-.84-.16-.72-.16-4.97-.17-5.42 0-.16.06-.35.1-.43.1-.4 0-.34.48.08.65 2.06.84 2.55 1.47 2.62 3.34.01.53.06 1.02.1 1.1s.17.45.27.82c.17.6.23.71.48.95.16.15.34.37.41.5.2.33.75.57.87.38M15.55 83.9c.08-.04.26-.16.4-.27q.45-.36.95.08c.37.33.42.3.51-.37.03-.23.01-.3-.12-.47a5 5 0 0 1-.42-.68c-.22-.43-.3-.51-.58-.66q-.78-.38-.89-.79a1 1 0 0 0-.24-.4 2 2 0 0 1-.34-.47q-.28-.5-.28-.09c0 .1-.06.34-.13.54-.18.51-.17.74.06 1.18.17.31.2.45.2.83 0 .27.05.57.1.7a1 1 0 0 1 .07.5c-.07.41.29.6.71.37m-.61-4.81a3.07 3.07 0 0 1 .33-.9c.14-.29.26-.58.26-.65 0-.06.05-.2.1-.3s.11-.3.14-.44c.02-.14.08-.33.13-.4.1-.17.13-.79.04-.73-.03.02-.08.16-.1.3-.02.15-.16.43-.3.64-.15.21-.27.44-.27.52s-.05.2-.1.27-.1.2-.1.27-.06.33-.13.56c-.23.79-.24 1.3 0 .86M5.18 90.53c-.28-.16-.34-.39-.56-2.1l-.2-1.33c-.26-1.66-.05-2.83.43-2.38.41.38 1.33.48 2.04.22.4-.15 1.8-.31 3.35-.4.46-.02 1-.08 1.23-.14 1.48-.38 2.8.53 2.8 1.92 0 .43-.59.67-.86.35-.14-.18-.2-.08-.22.43-.04.74-.08.84-.36.93-.13.04-.44.18-.68.3s-.54.23-.66.26-.43.15-.68.27-.51.22-.6.22a1 1 0 0 0-.33.11c-.11.06-.4.15-.63.2-.24.05-.53.13-.66.18-.5.2-1.43.5-1.99.61-.23.05-.48.12-.54.16-.36.2-.7.28-.88.19m.24-1.93c.52-.45.51-.45 1.11-.83a2 2 0 0 1 .55-.27c.06 0 .22-.07.36-.15.22-.13.32-.14.91-.12 3.28.12 3.61.06 4.17-.76.33-.48.4-.5.79-.2.7.55 1 .23.57-.6-.59-1.12-1.33-1.54-2.04-1.16-.07.04-.84.13-1.7.2-2.38.21-2.73.26-3.74.54a6 6 0 0 1-.98.06c-1.1 0-1.24.42-.8 2.3.07.3.13.7.13.87 0 .66.05.66.67.12m17.04-8.81c-.28-.31-.3-.37-.24-.48q.15-.27-.18-.42t-.5.2q-.11.2-.28.2c-.21 0-.24-.22-.04-.33q.12-.06.15-.31c.02-.23.04-.26.33-.35.17-.05.37-.17.45-.25.16-.17.62-.2.83-.05q.13.09.25.1c.43 0 .87 1 .54 1.22-.1.06-.25.23-.34.39-.35.56-.53.58-.97.08m.66-.17a1 1 0 0 0 .08-.37c0-.11.07-.28.15-.38.2-.26.09-.5-.24-.5-.12 0-.25.03-.27.06-.02.04-.1.07-.16.07-.25 0-.3.18-.11.45.1.15.17.34.17.48 0 .4.22.5.38.19"/><path fill="#4e3107" d="M22.48 95.12c-.13-.07-.3-.22-.37-.34a3 3 0 0 0-.41-.5c-.25-.24-.3-.35-.48-.95-.1-.37-.23-.74-.27-.82a6 6 0 0 1-.1-1.1c-.07-1.87-.56-2.5-2.62-3.34-.42-.17-.48-.64-.08-.64.08 0 .27-.05.43-.11.45-.17 4.7-.16 5.42 0 .27.07.65.14.84.16.47.04.43.48-.04.48-.08 0-.25.06-.39.13-.17.1-.37.13-.69.13-.76 0-.99.37-1.1 1.76-.04.43-.1 1.07-.15 1.42-.2 1.71-.12 3.07.23 3.38.45.4.32.6-.22.34m-17.69-6.2a2 2 0 0 1-.04-.44c0-.17-.06-.56-.13-.87-.44-1.88-.3-2.3.8-2.3.4 0 .85-.03.98-.06 1-.28 1.36-.33 3.73-.53.87-.08 1.64-.17 1.71-.2.71-.39 1.45.03 2.04 1.14.44.84.14 1.16-.57.61-.4-.3-.46-.28-.79.2-.56.82-.89.88-4.17.76-.6-.02-.7 0-.91.12-.14.08-.3.15-.36.15a2 2 0 0 0-.55.27c-.6.38-.59.38-1.11.83-.5.45-.57.47-.63.31m10.08-5.03q-.08-.1-.03-.35a1 1 0 0 0-.06-.5 2 2 0 0 1-.1-.7c0-.38-.04-.52-.2-.83-.24-.44-.25-.67-.07-1.18.07-.2.13-.45.13-.54q0-.4.28.09c.1.17.25.38.34.47s.2.27.24.4q.1.4.89.8c.29.14.36.22.58.65a5 5 0 0 0 .42.68c.13.16.15.24.12.47-.09.66-.14.7-.51.37q-.5-.45-.95-.08c-.47.37-.9.47-1.08.25m7.95-4.15c-.04-.04-.08-.18-.08-.3a1 1 0 0 0-.17-.49c-.19-.27-.14-.45.11-.45q.12 0 .16-.07c.02-.03.15-.06.27-.06.33 0 .44.24.24.5a1 1 0 0 0-.15.38c0 .38-.21.66-.38.5m-8.05-.8c.03-.15.1-.46.17-.7s.13-.48.13-.56.05-.2.1-.27.1-.19.1-.27.12-.31.26-.52c.15-.2.29-.5.3-.64.03-.14.08-.28.1-.3.1-.06.07.56-.03.72a1 1 0 0 0-.13.41c-.03.14-.1.34-.14.44s-.1.24-.1.3c0 .07-.12.36-.26.65s-.27.59-.27.65c0 .16-.12.38-.2.38q-.08 0-.03-.28"/><defs><linearGradient id="d" x1="0%" x2="0%" y1="0%" y2="50%"><stop offset="0%" stop-color="#dfc179"/><stop offset="100%" stop-color="#c79e4c"/></linearGradient></defs><path fill="url(#d)" d="M170 3v7H-10V3L0 0l2-.23 2-.24 2-.22 2-.22 2-.2 2-.19 2-.17 2-.15 2-.13 2-.1 2-.08 2-.05L26-2l2 .01 2 .03 2 .06 2 .08 2 .11 2 .14 2 .16 2 .17 2 .2 2 .2 2 .22 2 .23 2 .23 2 .24 2 .23 2 .23 2 .23 2 .21 2 .2 2 .18 2 .16 2 .14 2 .12 2 .1 2 .07 2 .04L80 2l2-.01 2-.04 2-.07 2-.1 2-.12 2-.14 2-.16 2-.18 2-.2 2-.21 2-.23 2-.23 2-.23 2-.24 2-.23 2-.23 2-.22 2-.2 2-.2 2-.17 2-.16 2-.14 2-.11 2-.08 2-.06 2-.03 2-.01 2 .02 2 .05 2 .08 2 .1 2 .13 2 .15 2 .17 2 .19 2 .2 2 .22 2 .22 2 .23z" transform="translate(0 103)"/></svg>