<svg xmlns="http://www.w3.org/2000/svg" width="1200" height="900" viewBox="0 0 160 100"><path fill="#718c00" d="M37.68 54.91c7.77 6.74 14.86 11.3 21.75 2.87 18.46-22.6 24.44-13.4 43.3-1.01 5.53 5.4 8.61 7.6 8.61 7.6s3.02-3.77 5.24-5.4C129.04 49.79 162 57 162 57v55H-1l-1-57.03c11.58-4.63 28.88-9.41 39.68-.06"/><g fill="#a2ca00"><path d="M27.6 43.73c15.32 16.5 5.95 9.15 4.78 9.67-1.18.53-3.43 8.6-15.65 1.91-.68-.36-9.7 2.63-14.7 1.08-4.69-1.46.75-6.06 2.58-8.32 13.38-16.56 13.57-14.49 22.99-4.34M90.43 47.94c8.42 5.62 25.3 16.96 8.24 11.53l-7.14-3c1.87 9.21-7.52 2.6-13.3 1.06 0 0-20.36 4.01-15.97-2.96 1.2-1.9 5.33-5.88 6.65-7.16 6.19-5.94 7.27-9 21.52.53M130.81 56.3c-2 8.41 5.92 4.12 13.3.51 6.57 1.45 11.33 3.55 17.89.19-11.92-13.1-16.6-19.22-33.76-6.95l-6.3 4.5c-12.81 9.7-1.66 5.55 8.87 1.75"/></g><path fill-opacity=".12" d="M18.12 35.87c-3.02-.13-6.4 3.4-13.51 12.2-1.23 1.52-4.1 4.1-4.4 6.08l-2.21.82L-1 112h6.16c-.03-2.82-.15-13.6.02-36.38.06-8.44 8.73-15.69 7.1-19.83-1.54-3.92-.68-11.94 7.55-19.43a4 4 0 0 0-1.7-.49M77.76 41.85c-3.5-.2-5.37 2.22-8.85 5.56-1.21 1.17-4.75 4.59-6.26 6.62a99 99 0 0 0-3.22 3.75c-6.89 8.43-13.98 3.87-21.75-2.87a20 20 0 0 0-1.65-1.25q-.26-.45-.8-1.19c7.74 18.14 5.43 40.3 5.37 59.53h20.03l.23-37.52s2.45-11.69 7.06-15.77c.52-5.66 7.1-12.86 11-16.7q-.61-.12-1.16-.16M143.32 43.4q-2.79.02-6.22 1.47c10.88 1.54 17 6.84 17.13 13.93 4.25 5.09 6.2 12.04 7.77 17.38V57c-7.45-8.2-12.07-13.65-18.68-13.6"/></svg>