<svg xmlns="http://www.w3.org/2000/svg" xml:space="preserve" width="160mm" height="415.75" viewBox="0 0 160 110"><path fill="#8bbaf0" d="M-2 112h164V90c-1.58-10.99-5.12-22.07-16-36.94-15.47-21.15-25.9-33.66-30.75-33.38-6.87.4-14.82 19.23-22.98 35.24-7 15.55-14.97 11.66-23.32-.17L58.68 37.03C53.6 19.9 45.88 5.97 42.24 6.07c-4.13.1-10.91 14.04-28.43 51.51L-2 90Z"/><path fill="#b7dbff" d="M42.24 6.07c-3.4.09-9.05 10.32-20.58 34.52l.05 1.36C15.84 58.85 33 51.02 39.54 49.1c13.39 13.37 16.02 3.52 19.86-3.72 2.27 1.5 6.26 5.43 3.46-.25q-.06-.53-.1-1.05l-4.08-7.04C53.6 19.9 45.88 5.97 42.24 6.07m73.01 13.61c-5.86.34-12.52 14.1-19.42 28.07-2.15 13.77 11.62 9.23 20.1 6.16 12.78 12.03 18.67 12.21 16.14-2.11 4.38 3.17 20.94 17.85 16.9 5.57l-.02-.06c-.93-1.39-1.87-2.79-2.94-4.25-15.48-21.15-25.91-33.66-30.76-33.38"/><path fill-opacity=".08" d="M42.24 6.07C38.12 6.4 31.2 19.99 13.7 57.46L-2 90v22h27.26c-.03-5.51.02-13.18.43-20.59.72-13.02 10.04-40.15 10.04-40.15l-1.5-.56s-1.63-5.58-1.36-8.4c1.16-12.03 2.63-17.05 12.58-34.02-.95-1.21-2.43-2.28-3.2-2.21M115.25 19.68c-6.87.4-14.82 19.23-22.98 35.24-7 15.55-14.97 11.66-23.32-.17L62.94 44.4c2.74 8.84 6.27 23.16 6.35 48.3l.05 19.31h23.53c1.35-10.7 3.84-30.2 5.23-37.73 1.73-9.4 4.53-17.03 5.36-17.1 0 0-1.56-3.18 1.14-12.3 1.96-6.62 8.08-18.65 12.47-24.8a4 4 0 0 0-1.82-.39"/></svg>