<?xml version="1.0" encoding="UTF-8" standalone="no"?>
<svg
   version="1.1"
   x="0px"
   y="0px"
   width="110"
   height="110"
   viewBox="0.21 -0.077 110 110"
   enable-background="new 0.21 -0.077 110 110"
   xml:space="preserve"
   id="svg16"
   sodipodi:docname="Python-logo-notext.svg"
   inkscape:export-filename="Python-logo-notext.png"
   inkscape:export-xdpi="96"
   inkscape:export-ydpi="96"
   xmlns:inkscape="http://www.inkscape.org/namespaces/inkscape"
   xmlns:sodipodi="http://sodipodi.sourceforge.net/DTD/sodipodi-0.dtd"
   xmlns="http://www.w3.org/2000/svg"
   xmlns:svg="http://www.w3.org/2000/svg"><defs
     id="defs20" /><sodipodi:namedview
     id="namedview18"
     pagecolor="#ffffff"
     bordercolor="#999999"
     borderopacity="1"
     inkscape:showpageshadow="0"
     inkscape:pageopacity="0"
     inkscape:pagecheckerboard="0"
     inkscape:deskcolor="#d1d1d1"
     showgrid="false"
     inkscape:zoom="7.3814206"
     inkscape:cx="49.109788"
     inkscape:cy="65.299083"
     inkscape:window-width="2256"
     inkscape:window-height="1476"
     inkscape:window-x="0"
     inkscape:window-y="0"
     inkscape:window-maximized="1"
     inkscape:current-layer="svg16" /><linearGradient
     id="SVGID_1_"
     gradientUnits="userSpaceOnUse"
     x1="63.815899"
     y1="56.682899"
     x2="118.4934"
     y2="1.8225"
     gradientTransform="matrix(1,0,0,-1,-53.2974,66.4321)"> <stop
   offset="0"
   style="stop-color:#387EB8"
   id="stop2" /> <stop
   offset="1"
   style="stop-color:#366994"
   id="stop4" /></linearGradient><path
     id="path7"
     style="fill:url(#SVGID_1_)"
     d="m 55.0225,-0.077 c -25.970948,0 -26.25,10.081254 -26.25,12.15625 V 24.673 h 26.75 v 3.78125 h -37.375 c -7.948984,0 -17.9375,4.833042 -17.9375,26.25 0,19.67296 7.7922658,27.28125 15.65625,27.28125 h 9.25 L 25.026406,81.907375 25.21,81.694484 v -0.103515 c 0.01155,0.02224 0.022,0.04434 0.0332,0.06641 l 2.263672,-2.619141 V 76.399567 L 24.90531,73.389801 v -2.289063 c -0.0015,-0.320514 0.0021,-0.641807 0.01172,-0.964843 l 0.0059,-0.179688 0.117187,-0.134765 C 25.912834,68.82655 26.85545,67.92571 27.835,67.139797 c 0.139684,-0.824606 0.335437,-1.63185 0.59375,-2.416016 -0.252206,-0.578552 -0.482042,-1.176443 -0.660156,-1.816406 -0.175089,-0.630192 -0.305706,-1.290734 -0.384766,-1.974609 l -0.01953,-0.171875 0.08984,-0.146485 c 0.598696,-0.976227 1.313511,-1.881961 2.128906,-2.691406 l 0.123047,-0.123047 0.169922,-0.01953 c 0.967925,-0.115129 1.915053,-0.119267 2.816406,-0.01367 h 0.002 c 0.386736,0.04382 0.757798,0.114426 1.125,0.191406 0.700338,-0.407433 1.437401,-0.747553 2.207031,-1.023437 0.593678,-1.095541 1.329865,-2.16964 2.207032,-3.189453 l 0.117187,-0.134766 0.173828,-0.03125 c 1.077353,-0.194299 2.163865,-0.309015 3.240235,-0.359375 l 0.177734,-0.0078 0.144531,0.107421 c 0.542569,0.405526 1.058796,0.825528 1.552735,1.251954 l 1.414062,1.220703 h 2.638672 l 3.009766,-2.601563 H 54.085 l 3.011719,2.601563 h 2.636719 l 3.011718,-2.601563 h 3.382813 l 3.009765,2.601563 h 0.707032 c 0.680459,0.0011 1.360597,-0.05864 2.035156,-0.150391 0.865429,-0.948875 1.580322,-1.963372 2.082031,-2.996094 l 0.08789,-0.179687 0.1875,-0.07031 c 0.818859,-0.304618 1.599487,-0.693645 2.316406,-1.162109 l 0.167969,-0.109375 0.197265,0.03711 c 1.117589,0.209452 2.332594,0.218024 3.601563,0.0293 0.26449,-0.293394 0.523429,-0.592418 0.761719,-0.912109 0.314999,-0.429591 0.598701,-0.882394 0.86914,-1.341797 -0.21106,-1.26608 -0.558898,-2.457681 -1.048828,-3.511719 l -0.08398,-0.18164 0.0625,-0.1875 c 0.280929,-0.840356 0.478071,-1.707294 0.582031,-2.578125 l 0.02344,-0.197266 0.154297,-0.126953 c 0.51236,-0.424834 1.003481,-0.904746 1.462891,-1.441406 v -0.002 l 1.046875,-1.210937 V 36.8605 L 81.749062,33.850734 C 82.071399,27.49381 82.05375,21.082083 82.05375,14.57925 82.05475,11.426256 81.514448,-0.077 55.0225,-0.077 Z m -14.75,8.46875 c 2.661994,0 4.814453,2.149506 4.814453,4.8125 0,2.660994 -2.152459,4.814453 -4.814453,4.814453 -2.661994,0 -4.8125,-2.152459 -4.8125,-4.814453 0,-2.662994 2.150506,-4.8125 4.8125,-4.8125 z"
     sodipodi:nodetypes="sscccssscccccccccccccccccsccccccccccccccccccccccccccccccccccccccccccccccssssss" /><linearGradient
     id="SVGID_2_"
     gradientUnits="userSpaceOnUse"
     x1="97.044403"
     y1="21.632099"
     x2="155.6665"
     y2="-34.5308"
     gradientTransform="matrix(1,0,0,-1,-53.2974,66.4321)"> <stop
   offset="0"
   style="stop-color:#FFE052"
   id="stop9" /> <stop
   offset="1"
   style="stop-color:#FFC331"
   id="stop11" /></linearGradient><path
     id="path14"
     style="fill:url(#SVGID_2_)"
     d="m 85.21,27.8605 v 0.0918 l 0.01953,0.01758 -0.01953,0.02344 v 0.04297 c -0.009,-0.004 -0.0182,-0.0094 -0.02734,-0.01367 l -2.433594,2.816407 v 2.638672 l 2.603516,3.009765 v 3.382813 l -1.289062,1.492187 c -0.455009,0.531296 -0.945658,1.000389 -1.451172,1.431641 -0.109739,0.815089 -0.288733,1.621956 -0.541016,2.408203 0.511168,1.143609 0.910652,2.391195 1.119141,3.742187 l 0.02539,0.173829 -0.08594,0.152343 c -0.315872,0.551976 -0.663002,1.084788 -1.039063,1.597657 l -0.002,0.002 v 0.002 c -0.301336,0.40456 -0.623412,0.789268 -0.96289,1.154297 l -0.115235,0.125 -0.169922,0.02734 c -1.367101,0.223571 -2.666221,0.172507 -3.886718,-0.0332 -0.694405,0.440188 -1.437142,0.809824 -2.210938,1.109375 -0.56261,1.112599 -1.287926,2.206151 -2.226562,3.208985 l -0.119141,0.126953 -0.171875,0.02539 c -0.787033,0.117532 -1.582703,0.177082 -2.378906,0.175782 h -1.078125 l -3.011719,-2.601563 h -2.638672 l -3.009765,2.601563 h -3.382813 l -3.009766,-2.601563 h -2.638671 l -3.011719,2.601563 h -3.38086 l -1.695312,-1.464844 c -0.430906,-0.372008 -0.885465,-0.733935 -1.351563,-1.087891 -0.914896,0.049 -1.832945,0.147119 -2.742187,0.302735 -0.829267,0.981327 -1.555785,1.996617 -2.09375,3.021484 l -0.09375,0.175781 -0.1875,0.06445 c -0.840375,0.289807 -1.635942,0.651231 -2.373047,1.097657 l -0.171875,0.105468 -0.197266,-0.04492 c -0.386754,-0.08695 -0.785554,-0.154582 -1.197265,-0.201172 h -0.0039 c -0.761111,-0.0893 -1.571784,-0.07368 -2.400391,0.01172 -0.665371,0.678784 -1.257171,1.425655 -1.763672,2.228516 0.07411,0.564209 0.173873,1.11634 0.318359,1.636719 v 0.002 c 0.181365,0.651271 0.408173,1.267624 0.671875,1.851562 l 0.08203,0.179688 -0.06445,0.1875 c -0.287765,0.835377 -0.496321,1.713306 -0.640625,2.617187 l -0.03125,0.19336 -0.154297,0.121094 c -0.933119,0.732398 -1.830272,1.617312 -2.679688,2.572265 -0.0054,0.244993 -0.01097,0.49034 -0.0098,0.734375 v 1.919922 l 2.601562,3.011719 c -0.150919,6.380062 -0.140625,12.790968 -0.140625,19.238281 0,5.229978 3.196298,14.656248 27.03125,14.656248 25.958948,0 26.28125,-10.271252 26.28125,-12.156248 V 85.173 H 54.8975 v -3.78125 h 37.375 c 8.00898,0 17.9375,-4.954042 17.9375,-26.25 C 110.21,31.819796 99.67174,27.8605 94.55375,27.8605 Z M 70.1475,91.827297 c 2.660994,0 4.814453,2.152459 4.814453,4.814453 0,2.661994 -2.153459,4.8125 -4.814453,4.8125 -2.661994,0 -4.8125,-2.150506 -4.8125,-4.8125 0,-2.661994 2.149506,-4.814453 4.8125,-4.814453 z"
     sodipodi:nodetypes="cccccccccccccccccccccccccccccccccccccccccccccccccccccccccscccccsscccssscsssss" /></svg>
