<?xml version="1.0" encoding="UTF-8" standalone="no"?>
<svg
   version="1.1"
   x="0px"
   y="0px"
   width="110"
   height="110"
   viewBox="0.21 -0.077 110 110"
   enable-background="new 0.21 -0.077 110 110"
   xml:space="preserve"
   id="svg264"
   xmlns="http://www.w3.org/2000/svg"
   xmlns:svg="http://www.w3.org/2000/svg"><defs
     id="defs268" /><linearGradient
     id="SVGID_1_"
     gradientUnits="userSpaceOnUse"
     x1="63.815899"
     y1="56.682899"
     x2="118.4934"
     y2="1.8225"
     gradientTransform="matrix(1,0,0,-1,-53.2974,66.4321)"> <stop
   offset="0"
   style="stop-color:#387EB8"
   id="stop250" /> <stop
   offset="1"
   style="stop-color:#366994"
   id="stop252" /></linearGradient><path
     id="path255"
     style="fill:url(#SVGID_1_)"
     class="UnoptimicedTransforms"
     d="m 55.0225,-0.077 c -25.970974,0 -26.25,10.081252 -26.25,12.15625 v 16.375 h -10.625 c -7.948992,0 -17.9375,4.833021 -17.9375,26.25 0,19.67298 7.7922579,27.28125 15.65625,27.28125 H 25.21 v -13.125 c 0,-5.490995 2.721263,-15.65625 15.40625,-15.65625 H 67.1475 c 3.901996,0 14.90625,-1.696263 14.90625,-14.40625 V 14.57925 C 82.05475,11.426253 81.514474,-0.077 55.0225,-0.077 Z m 4.027344,6.6679688 c 1.069025,0.3229024 2.092333,0.7702709 3.054687,1.3242187 0.153481,1.3531158 0.118089,2.6797295 -0.08203,3.9375005 0.939788,0.769071 1.773932,1.678215 2.451172,2.679687 1.258481,-0.0992 2.566717,-0.03084 3.888672,0.228516 0.463565,1.010516 0.813655,2.075473 1.03125,3.177734 -0.912909,1.013817 -1.9414,1.850307 -3.056641,2.46875 0.02061,1.174409 -0.198384,2.342058 -0.611328,3.455078 0.812865,0.947317 1.513929,2.053129 2.080078,3.28125 -0.544808,0.967663 -1.19647,1.873052 -1.9375,2.699219 -1.360254,-0.132005 -2.655801,-0.433074 -3.845703,-0.88086 -0.939789,0.769071 -1.986659,1.396467 -3.091797,1.835938 -0.165234,1.240924 -0.515128,2.496557 -1.076172,3.728516 -0.850126,0.177022 -1.72273,0.275619 -2.609375,0.287109 -0.259649,-0.0034 -0.518362,-0.01514 -0.77539,-0.0332 -0.762243,-1.154916 -1.297863,-2.356824 -1.63086,-3.566406 -1.142458,-0.28887 -2.245749,-0.784079 -3.259765,-1.439454 -1.111675,0.588238 -2.34598,1.045363 -3.666016,1.34961 -0.832965,-0.73338 -1.585542,-1.556398 -2.242187,-2.451172 0.404895,-1.306085 0.961666,-2.509589 1.644531,-3.570313 -0.552098,-1.06425 -0.930494,-2.200735 -1.085938,-3.363281 -0.862093,-0.328389 -1.712547,-0.768974 -2.535156,-1.332031 -0.284236,-0.196359 -0.56245,-0.407879 -0.833984,-0.630859 0.06766,-1.137052 0.277793,-2.247294 0.611328,-3.3125 1.284669,-0.45157 2.579418,-0.693765 3.84375,-0.753907 0.552097,-1.064253 1.277354,-2.055073 2.128906,-2.923828 -0.350347,-1.215396 -0.552951,-2.517827 -0.582031,-3.8691404 0.888615,-0.6649343 1.85005,-1.2337123 2.865234,-1.6875 1.190607,0.6651982 2.24109,1.4637941 3.111328,2.3691407 0.788113,-0.1992738 1.596095,-0.2993765 2.40625,-0.2851563 0.364255,-0.00643 0.726317,0.010373 1.087891,0.048828 0.722323,-1.0242304 1.641229,-1.9566962 2.716797,-2.7714843 z" /><linearGradient
     id="SVGID_2_"
     gradientUnits="userSpaceOnUse"
     x1="97.044403"
     y1="21.632099"
     x2="155.6665"
     y2="-34.5308"
     gradientTransform="matrix(1,0,0,-1,-53.2974,66.4321)"> <stop
   offset="0"
   style="stop-color:#FFE052"
   id="stop257" /> <stop
   offset="1"
   style="stop-color:#FFC331"
   id="stop259" /></linearGradient><path
     id="path262"
     style="fill:url(#SVGID_2_)"
     d="m 85.21,27.8605 v 13.125 c 0,5.490995 -2.631263,15.65625 -15.40625,15.65625 H 43.2725 c -3.891996,0 -14.90625,1.896263 -14.90625,14.40625 v 24.21875 c 0,5.22999 3.196274,14.65625 27.03125,14.65625 25.958974,0 26.28125,-10.271252 26.28125,-12.15625 v -16.375 H 92.2725 c 8.00899,0 17.9375,-4.954021 17.9375,-26.25 C 110.21,31.819773 99.671745,27.8605 94.55375,27.8605 Z M 59.131875,75.643703 c 1.069025,0.322903 2.094287,0.77027 3.056641,1.324219 0.15348,1.353116 0.118088,2.677776 -0.08203,3.935547 0.939788,0.769071 1.771979,1.680168 2.449219,2.68164 1.258481,-0.0992 2.566717,-0.03279 3.888672,0.226563 0.463566,1.010516 0.813655,2.077426 1.03125,3.179687 -0.912909,1.013817 -1.939447,1.848354 -3.054688,2.466797 0.02061,1.174409 -0.200337,2.344012 -0.613281,3.457032 0.812865,0.947317 1.515882,2.053129 2.082031,3.28125 -0.544808,0.967663 -1.198422,1.873051 -1.939453,2.699218 -1.360253,-0.132005 -2.653848,-0.435027 -3.84375,-0.882812 -0.939789,0.76907 -1.986659,1.39842 -3.091796,1.83789 -0.165234,1.240926 -0.517082,2.496556 -1.078125,3.728516 -0.850127,0.17703 -1.72273,0.27562 -2.609375,0.28711 -0.25965,-0.003 -0.518362,-0.0151 -0.775391,-0.0332 -0.762242,-1.15492 -1.29591,-2.35683 -1.628906,-3.56641 -1.142458,-0.28887 -2.24575,-0.786032 -3.259766,-1.441406 -1.111675,0.588237 -2.34598,1.047315 -3.666016,1.351566 -0.832965,-0.733385 -1.587495,-1.556402 -2.24414,-2.451176 0.404895,-1.306084 0.961667,-2.509588 1.644531,-3.570312 -0.552097,-1.064251 -0.930494,-2.200736 -1.085937,-3.363281 -0.862094,-0.32839 -1.710594,-0.770927 -2.533204,-1.333985 -0.284235,-0.196359 -0.562449,-0.405925 -0.833984,-0.628906 0.06766,-1.137052 0.277793,-2.247294 0.611328,-3.3125 1.28467,-0.45157 2.577465,-0.693764 3.841797,-0.753906 0.552097,-1.064253 1.279307,-2.055073 2.130859,-2.923828 -0.350346,-1.215396 -0.552951,-2.517827 -0.582031,-3.869141 0.888615,-0.664934 1.850051,-1.233712 2.865235,-1.6875 1.190606,0.665197 2.241089,1.463794 3.111328,2.369141 0.788113,-0.199274 1.594141,-0.299377 2.404297,-0.285157 0.364254,-0.0064 0.72827,0.01038 1.089843,0.04883 0.722324,-1.02423 1.639276,-1.956697 2.714844,-2.771485 z" /></svg>
