<?xml version="1.0" encoding="UTF-8"?><svg xmlns="http://www.w3.org/2000/svg" xmlns:xlink="http://www.w3.org/1999/xlink" width="269.67" height="182.19" viewBox="0 0 71.35 48.2"><defs><marker id="a" markerHeight=".7" markerWidth=".7" orient="auto-start-reverse" preserveAspectRatio="xMidYMid" refX="0" refY="0" style="overflow:visible" viewBox="0 0 1 1"><use xlink:href="#reuse-0" style="fill:none;stroke:context-stroke;stroke-width:1;stroke-linecap:butt" transform="rotate(180 .13 0)"/></marker><marker id="b" markerHeight=".7" markerWidth=".7" orient="auto-start-reverse" preserveAspectRatio="xMidYMid" refX="0" refY="0" style="overflow:visible" viewBox="0 0 1 1"><use xlink:href="#reuse-0" style="fill:none;stroke:context-stroke;stroke-width:1;stroke-linecap:butt" transform="rotate(180 .13 0)"/></marker><path id="reuse-0" d="M 3,-3 0,0 3,3"/></defs><g style="stroke:#fff;stroke-opacity:1;paint-order:stroke fill markers"><path d="m 94.779228,111.29708 a 0.75,0.75 0 0 0 -0.478007,0.20309 0.750075,0.750075 0 0 0 -0.06408,0.0641 0.75,0.75 0 0 0 -0.207739,0.48266 v 13.64051 h -4.853451 a 0.75,0.75 0 0 0 -0.750342,0.74982 0.75,0.75 0 0 0 0.750342,0.75035 h 5.603276 5.601723 a 0.75,0.75 0 0 0 0.74983,-0.75035 0.75,0.75 0 0 0 -0.74983,-0.74982 h -4.851898 v -12.89069 h 27.840158 v 13.10773 l -4.71857,1.64228 a 0.750075,0.750075 0 0 0 0.10335,1.44539 l 5.5547,1.0821 -5.5547,1.08211 a 0.750075,0.750075 0 0 0 0.0134,1.47432 c 0,0 2.41325,0.42692 4.78317,0.86713 0.36059,0.067 0.62681,0.12147 0.97668,0.18759 -0.42783,0.0828 -0.78563,0.15347 -1.22628,0.23823 -2.29157,0.44076 -4.54339,0.86765 -4.54339,0.86765 a 0.750075,0.750075 0 0 0 -0.004,1.47432 l 6.99027,1.35961 -1.92804,0.85318 a 0.750075,0.750075 0 0 0 -0.44701,0.68575 v 17.83767 H 95.529053 v -17.08785 h 2.587955 a 0.75,0.75 0 0 0 0.750342,-0.74982 0.75,0.75 0 0 0 -0.750342,-0.74983 H 91.43938 a 0.75,0.75 0 0 0 -0.749825,0.74983 0.75,0.75 0 0 0 0.749825,0.74982 h 2.590023 v 17.83819 a 0.75,0.75 0 0 0 0.749825,0.74982 h 29.339812 29.79095 a 0.75,0.75 0 0 0 0.5302,-0.21962 0.75,0.75 0 0 0 0.22014,-0.5302 0.75,0.75 0 0 0 -5.2e-4,-0.004 v -18.09347 l 3.66644,-1.62108 a 0.750075,0.750075 0 0 0 -0.16019,-1.42214 l -5.51956,-1.0759 c 0.35715,-0.0684 0.36174,-0.0681 0.73018,-0.13901 1.14697,-0.22061 2.30316,-0.44517 3.19568,-0.62115 0.44625,-0.088 0.8261,-0.16273 1.10742,-0.22066 0.14066,-0.029 0.25743,-0.0541 0.34727,-0.0739 0.0891,-0.0196 0.10888,-0.0178 0.23254,-0.0589 0.0265,-0.009 0.0579,-0.0204 0.0956,-0.0388 0.0377,-0.0184 0.13422,-0.0837 0.13488,-0.0842 6.7e-4,-5.2e-4 0.16964,-0.18495 0.17001,-0.18552 3.6e-4,-5.7e-4 0.11724,-0.32185 0.11731,-0.32246 8e-5,-6.2e-4 -0.0348,-0.32749 -0.0351,-0.32815 -2.2e-4,-6.6e-4 -0.0706,-0.15431 -0.10594,-0.20308 -0.0707,-0.0976 -0.12425,-0.13734 -0.16588,-0.16795 -0.1665,-0.12244 -0.19776,-0.1083 -0.25011,-0.12661 -0.10469,-0.0366 -0.19947,-0.0609 -0.32608,-0.092 -0.25322,-0.0621 -0.6064,-0.13766 -1.04077,-0.22635 -0.86876,-0.17737 -2.04937,-0.40232 -3.23856,-0.62321 -0.43006,-0.0799 -0.44907,-0.08 -0.86713,-0.15658 l 5.41828,-1.05627 a 0.750075,0.750075 0 0 0 0,-1.47278 l -6.6058,-1.28726 2.59777,-0.90434 a 0.750075,0.750075 0 0 0 0.50178,-0.709 v -14.39033 a 0.75,0.75 0 0 0 -0.74982,-0.74983 z m 30.089632,1.49965 h 28.2913 v 13.10773 l -4.71702,1.64228 a 0.750075,0.750075 0 0 0 0.10387,1.44539 l 5.55469,1.0821 -5.55469,1.08211 a 0.750075,0.750075 0 0 0 0.0114,1.47432 c 0,0 2.41324,0.42692 4.78317,0.86713 0.36037,0.0669 0.62701,0.12151 0.97669,0.18759 -0.42722,0.0827 -0.78476,0.1536 -1.22473,0.23823 -2.29157,0.44076 -4.54288,0.86765 -4.54288,0.86765 a 0.750075,0.750075 0 0 0 -0.004,1.47432 l 6.98975,1.35961 -1.9296,0.85318 a 0.750075,0.750075 0 0 0 -0.447,0.68575 v 17.83767 h -28.2913 v -17.34727 l 3.66645,-1.62108 a 0.750075,0.750075 0 0 0 -0.1602,-1.42214 l -5.51956,-1.0759 c 0.35628,-0.0683 0.36064,-0.0683 0.72812,-0.13901 1.14697,-0.22061 2.30523,-0.44517 3.19774,-0.62115 0.44626,-0.088 0.8261,-0.16273 1.10742,-0.22066 0.14066,-0.029 0.25588,-0.0541 0.34572,-0.0739 0.0898,-0.0198 0.10777,-0.0168 0.23409,-0.0589 0.0265,-0.009 0.0579,-0.0204 0.0956,-0.0388 0.0377,-0.0184 0.1342,-0.0837 0.13487,-0.0842 6.7e-4,-5.2e-4 0.16965,-0.18495 0.17002,-0.18552 3.7e-4,-5.7e-4 0.11518,-0.32185 0.11523,-0.32246 8e-5,-6.2e-4 -0.0329,-0.32749 -0.0331,-0.32815 -2.2e-4,-6.6e-4 -0.0701,-0.15431 -0.10542,-0.20308 -0.0707,-0.0976 -0.12683,-0.13734 -0.16846,-0.16795 -0.1665,-0.12244 -0.19725,-0.1083 -0.2496,-0.12661 -0.10469,-0.0366 -0.19792,-0.0609 -0.32453,-0.092 -0.25322,-0.0621 -0.60845,-0.13766 -1.04283,-0.22635 -0.86876,-0.17737 -2.0473,-0.40232 -3.23649,-0.62321 -0.43023,-0.0799 -0.44891,-0.0816 -0.86713,-0.15813 l 5.41827,-1.05472 a 0.750075,0.750075 0 0 0 0,-1.47278 l -6.6058,-1.28726 2.59571,-0.90434 a 0.750075,0.750075 0 0 0 0.50384,-0.709 z" style="stroke:#fff;stroke-linecap:round;stroke-linejoin:round;stroke-miterlimit:14.2;stroke-opacity:1;paint-order:stroke fill markers" transform="translate(-87.93 -110.8)"/><path d="M89.18 135.87a.75.75 0 0 0-.75.75.75.75 0 0 0 .75.75h11.21a.75.75 0 0 0 .75-.75.75.75 0 0 0-.75-.75zM91.44 128.23a.75.75 0 0 0-.75.75.75.75 0 0 0 .75.75h6.68a.75.75 0 0 0 .75-.75.75.75 0 0 0-.75-.75zM89.18 130.78a.75.75 0 0 0-.75.75.75.75 0 0 0 .75.75h11.21a.75.75 0 0 0 .75-.75.75.75 0 0 0-.75-.75zM91.44 133.32a.75.75 0 0 0-.75.75.75.75 0 0 0 .75.75h6.68a.75.75 0 0 0 .75-.75.75.75 0 0 0-.75-.75z" style="stroke:#fff;stroke-linecap:round;stroke-linejoin:round;stroke-miterlimit:14.2;stroke-opacity:1;paint-order:stroke fill markers" transform="translate(-87.93 -110.8)"/></g><path d="m 144.34846,134.03784 a 5.8064976,8.8454123 0 0 1 -5.76965,8.84524 5.8064976,8.8454123 0 0 1 -5.84288,-8.73296 5.8064976,8.8454123 0 0 1 5.69548,-8.95609" style="fill:none;stroke:#000ca3;stroke-width:1;stroke-linecap:round;stroke-linejoin:round;stroke-miterlimit:14.2;stroke-dasharray:none;stroke-opacity:1;marker-start:url(#a);paint-order:fill markers stroke" transform="translate(-87.93 -110.58)"/><text xml:space="preserve" x="138.22" y="135.07" style="font-size:4.58611px;line-height:1.7ex;font-family:&quot;Courier New&quot;;-inkscape-font-specification:&quot;Courier New&quot;;text-align:center;letter-spacing:.259292px;word-spacing:-.661458px;writing-mode:lr-tb;direction:ltr;text-anchor:middle;fill:#0e00c5;fill-opacity:1;stroke:none;stroke-width:1;stroke-linecap:round;stroke-linejoin:round;stroke-miterlimit:14.2;stroke-dasharray:none;stroke-opacity:1;paint-order:fill markers stroke" transform="translate(-87.93 -110.58)"><tspan x="138.35" y="135.07" style="font-weight:700;font-size:4.58611px;fill:#0e00c5;fill-opacity:1;stroke:none;stroke-width:1">L2</tspan></text><path d="m 114.24751,134.46417 a 5.8064976,8.8454123 0 0 1 -5.76964,8.84524 5.8064976,8.8454123 0 0 1 -5.84288,-8.73296 5.8064976,8.8454123 0 0 1 5.69548,-8.95609" style="fill:none;stroke:#000ca3;stroke-width:1;stroke-linecap:round;stroke-linejoin:round;stroke-miterlimit:14.2;stroke-dasharray:none;stroke-opacity:1;marker-start:url(#b);paint-order:fill markers stroke" transform="translate(-87.93 -111.01)"/><text xml:space="preserve" x="108.12" y="135.5" style="font-size:4.58611px;line-height:1.7ex;font-family:&quot;Courier New&quot;;-inkscape-font-specification:&quot;Courier New&quot;;text-align:center;letter-spacing:.259292px;word-spacing:-.661458px;writing-mode:lr-tb;direction:ltr;text-anchor:middle;fill:#0e00c5;fill-opacity:1;stroke:none;stroke-width:1;stroke-linecap:round;stroke-linejoin:round;stroke-miterlimit:14.2;stroke-dasharray:none;stroke-opacity:1;paint-order:fill markers stroke" transform="translate(-87.93 -111.01)"><tspan x="108.25" y="135.5" style="font-weight:700;font-size:4.58611px;fill:#0e00c5;fill-opacity:1;stroke:none;stroke-width:1">L1</tspan></text></svg>